SplineFontDB: 3.0
FontName: Exo-ExtraBold
FullName: Exo ExtraBold
FamilyName: Exo
Weight: ExtraBold
Copyright: Copyright (c) 2011 Natanael Gama (exo@ndiscovered.com), with Reserved Font Name "Exo"
Version: 1.00
ItalicAngle: 0
UnderlinePosition: -50
UnderlineWidth: 50
Ascent: 800
Descent: 200
sfntRevision: 0x00010000
LayerCount: 2
Layer: 0 0 "Back"  1
Layer: 1 0 "Fore"  0
XUID: [1021 762 1116966003 6398729]
FSType: 8
OS2Version: 0
OS2_WeightWidthSlopeOnly: 0
OS2_UseTypoMetrics: 1
CreationTime: 1317847693
ModificationTime: 1325018079
PfmFamily: 33
TTFWeight: 800
TTFWidth: 5
LineGap: 90
VLineGap: 0
OS2TypoAscent: 0
OS2TypoAOffset: 1
OS2TypoDescent: 0
OS2TypoDOffset: 1
OS2TypoLinegap: 90
OS2WinAscent: 0
OS2WinAOffset: 1
OS2WinDescent: 0
OS2WinDOffset: 1
HheadAscent: 0
HheadAOffset: 1
HheadDescent: 0
HheadDOffset: 1
OS2Vendor: 'PfEd'
Lookup: 4 0 0 "'ordn' Ordinals lookup 21"  {"'ordn' Ordinals lookup 21-1"  } ['ordn' ('DFLT' <'dflt' > 'grek' <'dflt' > 'latn' <'dflt' > ) ]
Lookup: 1 0 0 "'smcp' Lowercase to Small Capitals lookup 16"  {"'smcp' Lowercase to Small Capitals lookup 16-1" ("smcp" ) } ['smcp' ('DFLT' <'dflt' > 'grek' <'dflt' > 'latn' <'FRA ' 'dflt' > ) ]
Lookup: 1 0 0 "'c2sc' Capitals to Small Capitals in Latin lookup 17"  {"'c2sc' Capitals to Small Capitals in Latin lookup 17 subtable" ("smcp" ) } ['c2sc' ('latn' <'dflt' > ) ]
Lookup: 4 0 0 "'dlig' Discretionary Ligatures lookup 14"  {"'dlig' Discretionary Ligatures lookup 14-1"  } ['dlig' ('DFLT' <'dflt' > 'grek' <'dflt' > 'latn' <'dflt' > ) ]
Lookup: 4 0 1 "'liga' Standard Ligatures lookup 15"  {"'liga' Standard Ligatures lookup 15-1"  } ['liga' ('DFLT' <'dflt' > 'grek' <'dflt' > 'latn' <'FRA ' 'dflt' > ) ]
Lookup: 1 0 0 "'frac' Diagonal Fractions lookup 13"  {"'frac' Diagonal Fractions lookup 13-1"  } ['frac' ('DFLT' <'dflt' > 'grek' <'dflt' > 'latn' <'FRA ' 'dflt' > ) ]

StartChar: a
Encoding: 97 97 0
Width: 519
VWidth: 0
Flags: HW
LayerCount: 2
Fore
SplineSet
190.5 164 m 2
 190.5 121.25 214 120.5 236.75 120.5 c 0
 287.5 120.5 322.25 158 322.25 158 c 1
 322.25 238.75 l 1
 227.75 231 l 2
 193 227.75 190.5 201 190.5 181 c 2
 190.5 164 l 2
26.5 138.75 m 2
 26.5 184.75 l 2
 26.5 261 65.25 335 190.25 335 c 2
 190.25 335 322.25 334 322.25 335 c 2
 322.25 335 323.25 356 322.25 357 c 1
 322.25 412 297.75 416.5 255.25 416.5 c 0
 218.5 416.5 68.5 407 44.25 405.25 c 1
 44.25 503.5 l 1
 113.75 533.25 181 540.75 280 541 c 0
 405.75 541.25 486.25 503.75 486.25 364.5 c 2
 486.25 0 l 1
 355.5 0 l 1
 322.25 56.5 l 1
 315 40.75 260.25 -8.25 182.75 -6 c 0
 70 -2.25 26.5 75.5 26.5 138.75 c 2
EndSplineSet
AlternateSubs2: "'salt' Access All Alternates in Latin lookup 4-1" a.salt
Substitution2: "'smcp' Lowercase to Small Capitals lookup 16-1" a.smcp
EndChar

StartChar: z
Encoding: 122 122 1
Width: 480
VWidth: 0
Flags: HW
LayerCount: 2
Fore
SplineSet
20.25 397 m 1
 20.25 531 l 1
 461.25 531 l 1
 461.25 397 l 1
 254.5 135 l 1
 461.25 135 l 1
 462.25 134 461.25 1 461.25 1 c 1
 35.25 1 l 1
 35.25 133.5 l 1
 255.25 397 l 1
 20.25 397 l 1
EndSplineSet
Substitution2: "'smcp' Lowercase to Small Capitals lookup 16-1" z.smcp
EndChar

StartChar: e
Encoding: 101 101 2
Width: 525
VWidth: 0
Flags: HW
HStem: -5 125.75<141 471.187> 202.5 110.5<197.5 332.282> 416 119<211.572 329.274>
VStem: 33.5 164<138.793 202.5 313 404.641> 334.5 164<316.252 411.152>
LayerCount: 2
Fore
SplineSet
197.5 313 m 1
 297 313 l 2
 320.75 313 334.5 326.75 334.5 349.25 c 0
 334.5 402.5 328.75 416 276.25 416 c 0
 216.5 416 196 410.5 197.5 313 c 1
33.5 268 m 0
 33.5 493 95.5 535 265.5 535 c 0
 429.5 535 498.5 515.5 498.5 339.5 c 0
 498.5 238.5 442.5 202.5 346.5 202.5 c 2
 197.5 202.5 l 1
 197.5 117.25 238.5 120.75 313.5 120.75 c 0
 390.5 120.75 413.5 120.5 488.5 131.5 c 1
 488.5 23 l 1
 415.75 -6.75 291.5 -5 208.5 -5 c 0
 73.5 -5 33.5 78 33.5 268 c 0
EndSplineSet
Substitution2: "'smcp' Lowercase to Small Capitals lookup 16-1" e.smcp
EndChar

StartChar: o
Encoding: 111 111 3
Width: 557
VWidth: 0
Flags: HW
HStem: -5 126.5<215.2 344.117> 409.5 126.5<214.678 343.019>
VStem: 33.5 164<140.206 393.481> 360 164<137.459 392.289>
LayerCount: 2
Fore
SplineSet
197.5 258 m 0
 197.5 135 214.75 121.5 278.75 121.5 c 0
 347 121.5 360 131 360 258 c 0
 360 391.75 350 409.5 278.75 409.5 c 0
 206.5 409.5 197.5 391.25 197.5 258 c 0
33.5 258 m 0
 33.5 475 97.25 536 278.75 536 c 0
 463 536 524 469 524 258 c 0
 524 61 466.75 -5 278.75 -5 c 0
 93.75 -5 33.5 68 33.5 258 c 0
EndSplineSet
Substitution2: "'smcp' Lowercase to Small Capitals lookup 16-1" o.smcp
EndChar

StartChar: c
Encoding: 99 99 5
Width: 492
VWidth: 0
Flags: HW
LayerCount: 2
Fore
SplineSet
33.5 266 m 0
 33.5 480 106.5 536 208.5 536 c 0
 260.5 536 365 536.5 459 502.5 c 1
 459 403.5 l 1
 459 403.5 379.25 409.5 290.25 409.5 c 0
 224.25 409.5 197.5 408.25 197.5 263.5 c 0
 197.5 133.75 218.25 121.5 290.25 121.5 c 0
 382.25 121.5 466 130.25 466 130.25 c 1
 466 30.75 l 1
 389.5 -14.75 291.5 -4 208.5 -5 c 1
 109.5 -5 33.5 51.75 33.5 266 c 0
EndSplineSet
Substitution2: "'smcp' Lowercase to Small Capitals lookup 16-1" c.smcp
EndChar

StartChar: d
Encoding: 100 100 6
Width: 557
VWidth: 0
Flags: HW
LayerCount: 2
Fore
SplineSet
197.5 270.5 m 0
 197.5 156.25 217.75 130.25 255.75 130.25 c 0
 298.75 130.25 332.5 140 353.5 158.25 c 1
 353.5 398.5 l 1
 328.75 411.25 293.75 416.25 255.75 416.25 c 0
 218.75 416.25 197.5 396 197.5 270.5 c 0
33.5 263 m 0
 33.5 444.75 60.5 539 206.25 539 c 0
 251.25 539 311.25 527.25 354.25 506.5 c 1
 354.25 785 l 1
 518 785 l 1
 518 0 l 1
 380.25 0 l 1
 353.5 51.5 l 1
 317.75 22 267.5 -6 206.25 -6 c 0
 80.75 -6 33.5 81.75 33.5 263 c 0
EndSplineSet
AlternateSubs2: "'salt' Access All Alternates in Latin lookup 4-1" d.salt
Substitution2: "'smcp' Lowercase to Small Capitals lookup 16-1" d.smcp
EndChar

StartChar: A
Encoding: 65 65 7
Width: 700
VWidth: 0
Flags: HW
LayerCount: 2
Fore
SplineSet
289.75 289.25 m 1
 435 289.25 l 1
 365.75 521.5 l 1
 289.75 289.25 l 1
30 0 m 1
 269 732 l 1
 459.25 732 l 1
 690 0 l 1
 518.75 0 l 1
 470.75 147 l 1
 250 147 l 1
 202 0 l 1
 30 0 l 1
EndSplineSet
Substitution2: "'c2sc' Capitals to Small Capitals in Latin lookup 17 subtable" a.smcp
EndChar

StartChar: p
Encoding: 112 112 8
Width: 557
VWidth: 0
Flags: HW
LayerCount: 2
Fore
SplineSet
204.75 132.5 m 1
 229.5 119.75 264.75 114.75 302.75 114.75 c 0
 339.75 114.75 361 135 361 260.5 c 0
 361 374.75 340.75 400.75 302.75 400.75 c 0
 259.75 400.75 225.75 391 204.75 372.75 c 1
 204.75 132.5 l 1
40.5 -270 m 1
 40.5 531 l 1
 178.25 531 l 1
 204.75 479.5 l 1
 240.5 509 291 537 352.25 537 c 0
 477.75 537 525 441 525 268 c 0
 525 108 498 -8 352.25 -8 c 0
 307.25 -8 247 3.75 204 24.5 c 1
 204 -270 l 1
 40.5 -270 l 1
EndSplineSet
AlternateSubs2: "'salt' Access All Alternates in Latin lookup 4-1" p.salt
Substitution2: "'smcp' Lowercase to Small Capitals lookup 16-1" p.smcp
EndChar

StartChar: b
Encoding: 98 98 9
Width: 557
VWidth: 0
Flags: HW
LayerCount: 2
Fore
SplineSet
205 158.25 m 1
 226 140 259.75 130.25 302.75 130.25 c 0
 340.75 130.25 361 156.25 361 270.5 c 0
 361 396 339.75 416.25 302.75 416.25 c 0
 264.75 416.25 229.75 411.25 205 398.5 c 1
 205 158.25 l 1
40.5 0 m 1
 40.5 785 l 1
 204 785 l 1
 204 506.5 l 1
 247 527.25 307.25 539 352.25 539 c 0
 498 539 525 438.75 525 263 c 0
 525 87.75 477.75 -6 352.25 -6 c 0
 291 -6 240.75 22 205 51.5 c 1
 178.25 0 l 1
 40.5 0 l 1
EndSplineSet
AlternateSubs2: "'salt' Access All Alternates in Latin lookup 4-1" b.salt
Substitution2: "'smcp' Lowercase to Small Capitals lookup 16-1" b.smcp
EndChar

StartChar: q
Encoding: 113 113 10
Width: 555
VWidth: 0
Flags: HW
LayerCount: 2
Fore
SplineSet
197.5 273.25 m 0
 197.5 167.5 200.25 113.5 267.75 113.5 c 0
 301.25 113.5 321.5 117.5 351.25 134 c 1
 351.25 418 l 1
 269.25 418 l 2
 199 418 197.5 334 197.5 273.25 c 0
33.5 268 m 0
 33.5 460 106.75 537 231.75 537 c 0
 337.75 537 463 521.75 515.25 504.25 c 1
 515.25 -270 l 1
 351.25 -270 l 1
 351.25 29 l 1
 318.75 0.75 276.75 -10 231.75 -10 c 0
 78.75 -10 33.5 84.5 33.5 268 c 0
EndSplineSet
Substitution2: "'smcp' Lowercase to Small Capitals lookup 16-1" q.smcp
EndChar

StartChar: n
Encoding: 110 110 11
Width: 552
VWidth: 0
Flags: HW
LayerCount: 2
Fore
SplineSet
40.5 0 m 1
 40.5 531 l 1
 175 531 l 1
 204.5 476.5 l 1
 244.5 508.5 282 540 363 540 c 0
 493 540 519.5 453.5 519.5 347.5 c 2
 519.5 0 l 1
 355.5 0 l 1
 355.5 350.5 l 2
 355.5 398.5 337.5 413.5 308.25 413.5 c 0
 260.5 413.5 232.75 401 204.5 371.5 c 1
 204.5 0 l 1
 40.5 0 l 1
EndSplineSet
AlternateSubs2: "'salt' Access All Alternates in Latin lookup 4-1" n.salt
Substitution2: "'smcp' Lowercase to Small Capitals lookup 16-1" n.smcp
EndChar

StartChar: i
Encoding: 105 105 12
Width: 238
VWidth: 0
Flags: HW
LayerCount: 2
Fore
SplineSet
36.75 0 m 1
 36.75 531 l 1
 200.75 531 l 1
 200.75 0 l 1
 36.75 0 l 1
33.5 607.25 m 2
 33.5 708.5 l 2
 33.5 723.5 41.5 733.5 57.5 733.5 c 2
 182.5 733.5 l 2
 197.5 733.5 204.75 722.5 204.75 708.5 c 2
 204.75 607.25 l 2
 204.75 592.25 196.5 584.25 182.5 584.25 c 2
 57.5 584.25 l 2
 43.5 584.25 33.5 593.25 33.5 607.25 c 2
EndSplineSet
Substitution2: "'smcp' Lowercase to Small Capitals lookup 16-1" i.smcp
EndChar

StartChar: h
Encoding: 104 104 13
Width: 552
VWidth: 0
Flags: HW
LayerCount: 2
Fore
SplineSet
40.5 0 m 1
 40.5 782.5 l 1
 203.75 782.5 l 1
 203.75 476.5 l 1
 241.5 507 282 540 363 540 c 0
 493 540 519.5 453.5 519.5 347.5 c 2
 519.5 0 l 1
 355.5 0 l 1
 355.5 350.5 l 2
 355.5 398.5 337.75 413.5 308.25 413.5 c 0
 260.5 413.5 232.75 401 204.5 371.5 c 1
 204.5 0 l 1
 40.5 0 l 1
EndSplineSet
Substitution2: "'smcp' Lowercase to Small Capitals lookup 16-1" h.smcp
EndChar

StartChar: u
Encoding: 117 117 14
Width: 552
VWidth: 0
Flags: HW
LayerCount: 2
Fore
SplineSet
33.5 183.5 m 2
 33.5 531 l 1
 197.5 531 l 1
 197.5 180.5 l 2
 197.5 132.5 215.5 117.5 244.75 117.5 c 0
 292.5 117.5 320.25 130 348.5 159.5 c 1
 348.5 531 l 1
 512.5 531 l 1
 512.5 0 l 1
 378 0 l 1
 348.5 54.5 l 1
 298.75 24 271 -9 190 -9 c 0
 60 -9 33.5 77.5 33.5 183.5 c 2
EndSplineSet
AlternateSubs2: "'salt' Access All Alternates in Latin lookup 4-1" u.salt
Substitution2: "'smcp' Lowercase to Small Capitals lookup 16-1" u.smcp
EndChar

StartChar: r
Encoding: 114 114 15
Width: 414
VWidth: 0
Flags: HW
LayerCount: 2
Fore
SplineSet
40.5 0 m 1
 40.5 531 l 1
 182.5 531 l 1
 204.5 464 l 1
 232.5 499.75 280 536.25 340.25 536.25 c 0
 361 536.25 379 535.75 394 530.5 c 1
 394 372.75 l 1
 379 373.5 346.75 374.25 316.25 374.25 c 0
 266.25 374.25 223.75 369 204.5 314.75 c 1
 204.5 0 l 1
 40.5 0 l 1
EndSplineSet
AlternateSubs2: "'salt' Access All Alternates in Latin lookup 4-1" r.salt
Substitution2: "'smcp' Lowercase to Small Capitals lookup 16-1" r.smcp
EndChar

StartChar: m
Encoding: 109 109 16
Width: 867
VWidth: 0
Flags: HW
LayerCount: 2
Fore
SplineSet
40.5 0 m 1
 40.5 531 l 1
 175 531 l 1
 204.5 476 l 1
 246.75 509.5 280.75 539.25 361.25 539.25 c 0
 430 539.25 474 514.75 495.5 474 c 1
 541.5 505.75 598 539.25 678 539.25 c 0
 804.5 539.25 834.5 456 834.5 346.5 c 2
 834.5 0 l 1
 670.5 0 l 1
 670.5 349.5 l 2
 670.5 395.75 652.75 412.75 623.25 412.75 c 0
 578.75 412.75 544.25 403.5 517.25 376.25 c 1
 517.25 370.25 518 353.75 518 347 c 2
 518 0 l 1
 354 0 l 1
 354 349.5 l 2
 354 395.75 336 412.75 306.5 412.75 c 0
 259.5 412.75 232.75 400.5 204.5 371 c 1
 204.5 0 l 1
 40.5 0 l 1
EndSplineSet
AlternateSubs2: "'salt' Access All Alternates in Latin lookup 4-1" m.salt
Substitution2: "'smcp' Lowercase to Small Capitals lookup 16-1" m.smcp
EndChar

StartChar: f
Encoding: 102 102 17
Width: 405
VWidth: 0
Flags: HW
LayerCount: 2
Fore
SplineSet
13.25 412 m 1
 13.25 514 l 1
 91.5 531 l 1
 91.5 630 l 2
 91.5 734.25 140.25 786 260.25 786 c 0
 309.25 786 350.5 780.75 392 762 c 1
 392 666.5 l 1
 391 666.5 306.5 667.5 306.5 667.5 c 2
 253 668.5 255.5 643.5 255.5 585 c 2
 255.5 531 l 1
 366 531 l 1
 366 412 l 1
 255.5 412 l 1
 255.5 0 l 1
 91.5 0 l 1
 91.5 412 l 1
 13.25 412 l 1
EndSplineSet
AlternateSubs2: "'salt' Access All Alternates in Latin lookup 4-1" f.salt
Substitution2: "'smcp' Lowercase to Small Capitals lookup 16-1" f.smcp
EndChar

StartChar: l
Encoding: 108 108 18
Width: 318
VWidth: 0
Flags: HW
HStem: 0 98<245.334 305.5> 763 20G<40.5 204.5>
VStem: 40.5 164<134.908 783>
LayerCount: 2
Fore
SplineSet
40.5 189 m 2
 40.5 783 l 1
 204.5 783 l 1
 204.5 219 l 2
 204.5 145.5 221.5 130 246.5 119 c 1
 246.5 119 298.5 98 305.5 98 c 1
 305.5 0 l 1
 180 0 l 2
 89.5 0 40.5 48 40.5 189 c 2
EndSplineSet
Substitution2: "'smcp' Lowercase to Small Capitals lookup 16-1" l.smcp
EndChar

StartChar: j
Encoding: 106 106 19
Width: 252
VWidth: 0
Flags: HW
LayerCount: 2
Fore
SplineSet
44.75 -270 m 1
 44.75 531 l 1
 208.75 531 l 1
 208.75 -4 l 1
 209.75 -90 207.75 -191.5 167.75 -270 c 1
 44.75 -270 l 1
40.5 607.25 m 2
 40.5 708.5 l 2
 40.5 723.5 48.5 733.5 64.5 733.5 c 2
 189.5 733.5 l 2
 204.5 733.5 212.5 722.5 212.5 708.5 c 2
 212.5 607.25 l 2
 212.5 592.25 203.5 584.25 189.5 584.25 c 2
 64.5 584.25 l 2
 50.5 584.25 40.5 593.25 40.5 607.25 c 2
EndSplineSet
Substitution2: "'smcp' Lowercase to Small Capitals lookup 16-1" j.smcp
EndChar

StartChar: t
Encoding: 116 116 20
Width: 383
VWidth: 0
Flags: HW
LayerCount: 2
Fore
SplineSet
13.25 413 m 1
 13.25 499 l 1
 94.25 532 l 1
 119.75 680 l 1
 258.25 680 l 1
 258.25 532 l 1
 363.75 532 l 1
 363.75 413 l 1
 258.25 413 l 1
 258.25 220 l 2
 258.25 145 274.5 129.5 299.5 118.5 c 1
 299.5 118.5 351.5 97.5 358.5 97.5 c 1
 358.5 -0.5 l 1
 224 -0.5 l 2
 144.75 -0.5 94.25 49 94.25 190 c 2
 94.25 413 l 1
 13.25 413 l 1
EndSplineSet
AlternateSubs2: "'salt' Access All Alternates in Latin lookup 4-1" t.salt
Substitution2: "'smcp' Lowercase to Small Capitals lookup 16-1" t.smcp
EndChar

StartChar: s
Encoding: 115 115 21
Width: 509
VWidth: 0
Flags: HW
LayerCount: 2
Fore
SplineSet
26.5 343 m 2
 26.5 389 l 2
 26.5 471 61.5 536 164.5 536 c 0
 284.75 536 419.25 535.5 456.25 505 c 1
 456.25 405.25 l 1
 223 405.25 l 2
 197.25 405.25 190.5 399 190.5 377 c 2
 190.5 361 l 2
 190.5 335.25 204.75 334.75 223 334.75 c 2
 337.5 334.75 l 2
 444 334.75 482.5 272.5 482.5 194.5 c 2
 482.5 138 l 2
 482.5 29 416.5 -5 352.5 -5 c 0
 233 -5 85 -4.25 48.5 27.5 c 1
 48.5 126.75 l 1
 291 126.75 l 2
 303.75 126.75 318.5 130.5 318.5 153 c 2
 318.5 169 l 2
 318.5 186.75 314 196.25 291 196.25 c 2
 179.5 196.25 l 2
 85.5 196.25 26.5 240 26.5 343 c 2
EndSplineSet
Substitution2: "'smcp' Lowercase to Small Capitals lookup 16-1" s.smcp
EndChar

StartChar: k
Encoding: 107 107 22
Width: 578
VWidth: 0
Flags: HW
LayerCount: 2
Fore
SplineSet
40.5 0 m 1
 40.5 782 l 1
 204.5 782 l 1
 204.5 357 l 1
 229.5 357 l 1
 361.25 531 l 1
 565.5 531 l 1
 379.75 297.5 l 1
 565.5 0 l 1
 372.25 0 l 1
 229.5 238 l 1
 204.5 238 l 1
 204.5 0 l 1
 40.5 0 l 1
EndSplineSet
Substitution2: "'smcp' Lowercase to Small Capitals lookup 16-1" k.smcp
EndChar

StartChar: g
Encoding: 103 103 23
Width: 563
VWidth: 0
Flags: HW
LayerCount: 2
Fore
SplineSet
198.75 344 m 0
 198.75 295 213.75 275.5 253.25 275.5 c 2
 294.25 275.5 l 2
 337.5 275.5 351.25 295.5 350.75 344 c 0
 350 393.785 331.75 406.5 293.25 406.5 c 2
 252.75 406.5 l 2
 205.25 406.5 198.75 378 198.75 344 c 0
203 -92.75 m 2
 203 -138 222.5 -143.5 257.5 -143.5 c 2
 316 -143.5 l 2
 363 -143.5 365 -121.75 365 -96.5 c 2
 365 -64.75 l 2
 365 -41 351.951 -24.0698 318.75 -23.5 c 2
 244.25 -23.5 l 2
 228.963 -23.5 203 -21.5 203 -21.5 c 1
 203 -92.75 l 2
30.75 97.75 m 0
 30.75 142.75 49.5 181 93.5 196.5 c 1
 49.5 224.5 34.75 291 34.75 344 c 0
 34.75 471 98.5 533 222.75 533 c 2
 549.75 533 l 1
 549.75 439.5 l 1
 498.75 421.5 l 1
 507.5 399 514.75 381.75 514.75 321.5 c 0
 514.75 239 479.75 149 327.25 149 c 2
 216.25 149 l 2
 200.25 149 176 150.25 176 128 c 0
 176 105.75 194.131 103.75 216.25 103.75 c 2
 361 103.75 l 2
 461.9 103.75 528.25 55.5 528.25 -60.5 c 2
 528.25 -116 l 2
 528.25 -198.5 486.75 -270 355.75 -270 c 2
 205.75 -270 l 2
 111.75 -270 38.25 -221.5 38.25 -116 c 2
 38.25 -55 l 1
 87.25 -12.5 l 1
 59.25 1.5 30.75 38.5 30.75 97.75 c 0
EndSplineSet
AlternateSubs2: "'salt' Access All Alternates in Latin lookup 4-1" g.salt
Substitution2: "'smcp' Lowercase to Small Capitals lookup 16-1" g.smcp
EndChar

StartChar: v
Encoding: 118 118 24
Width: 575
VWidth: 0
Flags: HW
HStem: 0 21G<183.343 383.477> 0 21G<183.343 383.477> 511 20G<13.25 193.634 381.871 561.75>
LayerCount: 2
Fore
SplineSet
13.25 531 m 1
 188 531 l 1
 285.75 184 l 1
 387.75 531 l 1
 561.75 531 l 1
 376.5 0 l 1
 190 0 l 1
 13.25 531 l 1
EndSplineSet
Substitution2: "'smcp' Lowercase to Small Capitals lookup 16-1" v.smcp
EndChar

StartChar: w
Encoding: 119 119 25
Width: 835
VWidth: 0
Flags: HW
LayerCount: 2
Fore
SplineSet
13.25 531 m 1
 188 531 l 1
 276 184 l 1
 355.5 531 l 1
 516.5 531 l 1
 485.75 397.75 l 1
 563.5 184 l 1
 647.5 531 l 1
 823 531 l 1
 662.75 0 l 1
 476.25 0 l 1
 410.75 167.75 l 1
 360.5 0 l 1
 172.5 0 l 1
 13.25 531 l 1
EndSplineSet
Substitution2: "'smcp' Lowercase to Small Capitals lookup 16-1" w.smcp
EndChar

StartChar: y
Encoding: 121 121 26
Width: 587
VWidth: 0
Flags: HW
LayerCount: 2
Fore
SplineSet
14.25 531 m 1
 185.25 531 l 1
 263.25 175.25 l 2
 272.25 137.75 300.25 137 312 136.25 c 1
 401.75 531 l 1
 570.25 531 l 1
 404.5 -168 l 1
 332.5 -270 l 1
 213 -270 l 1
 280.75 0 l 1
 187.75 0 132.25 50 109 144.5 c 2
 14.25 531 l 1
EndSplineSet
Substitution2: "'smcp' Lowercase to Small Capitals lookup 16-1" y.smcp
EndChar

StartChar: x
Encoding: 120 120 27
Width: 590
VWidth: 0
Flags: HW
HStem: 0 21G<16.5 225.04 364.96 565.5> 0 21G<16.5 225.04 364.96 565.5> 511 20G<16.5 224.763 364.886 573.5>
LayerCount: 2
Fore
SplineSet
16.5 0 m 1
 196.5 266 l 1
 16.5 531 l 1
 213.5 531 l 1
 293.75 388.5 l 1
 376.5 531 l 1
 573.5 531 l 1
 390.75 263 l 1
 565.5 0 l 1
 376.5 0 l 1
 295 141.25 l 1
 213.5 0 l 1
 16.5 0 l 1
EndSplineSet
AlternateSubs2: "'salt' Access All Alternates in Latin lookup 4-1" x.salt
Substitution2: "'smcp' Lowercase to Small Capitals lookup 16-1" x.smcp
EndChar

StartChar: V
Encoding: 86 86 28
Width: 691
VWidth: 0
Flags: HW
LayerCount: 2
Fore
SplineSet
30 732 m 1
 203.25 732 l 1
 347.5 208 l 1
 501.75 732 l 1
 675 732 l 1
 443.5 0 l 1
 249.5 0 l 1
 30 732 l 1
EndSplineSet
Substitution2: "'c2sc' Capitals to Small Capitals in Latin lookup 17 subtable" v.smcp
EndChar

StartChar: W
Encoding: 87 87 29
Width: 1004
VWidth: 0
Flags: HW
LayerCount: 2
Fore
SplineSet
30 732 m 1
 203.25 732 l 1
 347.25 210.75 l 1
 460.75 732 l 1
 634.75 732 l 1
 590 559.5 l 1
 699.75 209.25 l 1
 814.75 732 l 1
 988 732 l 1
 796.5 0 l 1
 602.5 0 l 1
 518 272.75 l 1
 443.5 0 l 1
 249.5 0 l 1
 30 732 l 1
EndSplineSet
Substitution2: "'c2sc' Capitals to Small Capitals in Latin lookup 17 subtable" w.smcp
EndChar

StartChar: C
Encoding: 67 67 30
Width: 569
VWidth: 0
Flags: HW
LayerCount: 2
Fore
SplineSet
37 368 m 0
 37 602 88.75 740 287.75 740 c 0
 408.75 740 464.75 731 546.75 703.75 c 1
 546.75 575.75 l 1
 545.75 575.75 433 591 332.75 591 c 0
 238.5 591 201 579.75 201 366 c 0
 201 202 224.5 143 333.5 143 c 0
 438.5 143 546.75 151.5 546.75 151.5 c 1
 546.75 23.5 l 1
 482.75 0.75 411.75 -8.25 287.75 -6 c 0
 102.75 -3.75 37 129.75 37 368 c 0
EndSplineSet
Substitution2: "'c2sc' Capitals to Small Capitals in Latin lookup 17 subtable" c.smcp
EndChar

StartChar: D
Encoding: 68 68 31
Width: 664
VWidth: 0
Flags: HW
LayerCount: 2
Fore
SplineSet
217.75 142.25 m 1
 364 142.25 l 2
 439.75 142.25 466.75 219.75 466.75 364 c 0
 466.75 553.25 428.25 590.5 364 590.5 c 2
 217.75 590.5 l 1
 217.75 142.25 l 1
53.75 0 m 1
 53.75 732 l 1
 379 732 l 2
 584.5 732 630.75 555.75 630.75 363 c 0
 630.75 129.5 552.5 0 379 0 c 2
 53.75 0 l 1
EndSplineSet
Substitution2: "'c2sc' Capitals to Small Capitals in Latin lookup 17 subtable" d.smcp
EndChar

StartChar: O
Encoding: 79 79 32
Width: 669
VWidth: 0
Flags: HW
HStem: -4 149<252.656 429.658> 588 149<251.74 429.408>
VStem: 44 164<192.576 535.245> 476 164<197.984 535.643>
LayerCount: 2
Fore
SplineSet
208 361 m 0
 208 182 229.25 145 342.25 145 c 0
 445.75 145 476 182.5 476 361 c 0
 476 563.25 444.5 588 342.25 588 c 0
 243 588 208 570 208 361 c 0
44 361 m 0
 44 704 174.25 737 342.25 737 c 0
 515.25 737 640 704 640 361 c 0
 640 38 522.25 -4 342.25 -4 c 0
 162.25 -4 44 28 44 361 c 0
EndSplineSet
Substitution2: "'c2sc' Capitals to Small Capitals in Latin lookup 17 subtable" o.smcp
EndChar

StartChar: S
Encoding: 83 83 33
Width: 593
VWidth: 0
Flags: HW
LayerCount: 2
Fore
SplineSet
44 482.75 m 2
 44 545 l 2
 44 690 130 735.75 242 738 c 0
 366.25 741 472 728.75 537 707.25 c 1
 537 579 l 1
 473 585.25 344 589 294.5 589 c 0
 236.5 589.75 208 586.5 208 530 c 2
 208 505.25 l 2
 208 459.25 223 444.75 278.5 444.75 c 2
 384.5 444.75 l 2
 531.75 444.75 563.75 323.25 563.75 242.75 c 2
 563.75 201 l 2
 563.75 26 460 -8 361 -8 c 0
 208.5 -8 153.25 -3.75 66.75 23.75 c 1
 66.75 152 l 1
 106.75 148 230.5 141 323.5 141 c 0
 366 141 399.75 149.75 399.75 194.25 c 2
 399.75 223.25 l 2
 399.75 259.25 388.75 280.75 339.5 280.75 c 2
 237 280.75 l 2
 54.5 280.75 44 426.5 44 482.75 c 2
EndSplineSet
Substitution2: "'c2sc' Capitals to Small Capitals in Latin lookup 17 subtable" s.smcp
EndChar

StartChar: G
Encoding: 71 71 34
Width: 614
VWidth: 0
Flags: HW
LayerCount: 2
Fore
SplineSet
37 370 m 0
 37 587.25 78.75 740 277.75 740 c 0
 410 740 450.5 736.5 569.25 705.5 c 1
 569.25 579 l 1
 563.25 579 442.75 598.5 322.75 598.5 c 0
 220 598.5 201 540.75 201 368 c 0
 201 189.5 215.75 147.25 312.5 146.75 c 0
 378 146.5 414.5 192.75 414.5 192.75 c 1
 414.5 299 l 1
 335.75 299 l 1
 335.75 401.5 l 1
 379.5 422.25 440.75 426.5 510.5 426.5 c 0
 531.5 426.5 554.5 425.5 578.5 423.5 c 1
 578.5 0 l 1
 461.75 0 l 1
 416.5 49 l 1
 386 16 357.5 -1.25 275 -5 c 0
 68 -15.25 37 162.5 37 370 c 0
EndSplineSet
Substitution2: "'c2sc' Capitals to Small Capitals in Latin lookup 17 subtable" g.smcp
EndChar

StartChar: Q
Encoding: 81 81 35
Width: 669
VWidth: 0
Flags: HW
LayerCount: 2
Fore
SplineSet
293.75 -33 m 1
 383.25 -33 l 1
 403.25 -89.75 484.25 -78.5 543.75 -64.25 c 1
 543.75 -189.25 l 1
 432.75 -209.5 298.5 -171.25 293.75 -33 c 1
208 361 m 0
 208 182 228.75 145 341.75 145 c 0
 445.25 145 476 182.5 476 361 c 0
 476 563.25 444 588 341.75 588 c 0
 242.5 588 208 570 208 361 c 0
44 361 m 0
 44 704 172.75 737 341.75 737 c 0
 514.75 737 640 704 640 361 c 0
 640 38 521.75 -2.5 341.75 -4 c 1
 161.75 -4 44 28 44 361 c 0
EndSplineSet
Substitution2: "'c2sc' Capitals to Small Capitals in Latin lookup 17 subtable" q.smcp
EndChar

StartChar: M
Encoding: 77 77 36
Width: 864
VWidth: 0
Flags: HW
HStem: 0 21G<37 200.733 335.449 529.384 664.577 828.5> 0 21G<37 200.733 335.449 529.384 664.577 828.5> 712 20G<105.574 339.637 523.298 757.251>
DStem2: 37 0 198.75 0 0.0958679 0.995394<15.5066 466.456> 430.75 271.5 243.25 448.75 0.202553 -0.979271<-211.555 0> 430.75 271.5 618 448.75 0.205609 0.978634<0 211.963> 755.25 732 618 448.75 0.099571 -0.99503<268.176 719.55>
LayerCount: 2
Fore
SplineSet
37 0 m 1
 107.5 732 l 1
 335.5 732 l 1
 430.75 271.5 l 1
 527.5 732 l 1
 755.25 732 l 1
 828.5 0 l 1
 666.75 0 l 1
 618 448.75 l 1
 525.25 0 l 1
 339.75 0 l 1
 243.25 448.75 l 1
 198.75 0 l 1
 37 0 l 1
EndSplineSet
AlternateSubs2: "'salt' Access All Alternates in Latin lookup 4-1" M.salt
Substitution2: "'c2sc' Capitals to Small Capitals in Latin lookup 17 subtable" m.smcp
EndChar

StartChar: I
Encoding: 73 73 37
Width: 257
VWidth: 0
Flags: HW
HStem: 0 21G<53.75 217.75> 0 21G<53.75 217.75> 712 20G<53.75 217.75>
VStem: 53.75 164<0 732>
LayerCount: 2
Fore
SplineSet
53.75 0 m 1
 53.75 732 l 1
 217.75 732 l 1
 217.75 0 l 1
 53.75 0 l 1
EndSplineSet
Substitution2: "'c2sc' Capitals to Small Capitals in Latin lookup 17 subtable" i.smcp
EndChar

StartChar: J
Encoding: 74 74 38
Width: 356
VWidth: 0
Flags: HW
LayerCount: 2
Fore
SplineSet
23.75 24 m 1
 24.75 153 l 1
 122 148.5 152 155.75 152.25 248.25 c 2
 152.25 732 l 1
 316.25 732 l 1
 316.25 165 l 2
 316.25 118 312.75 50 262.75 18 c 0
 209.75 -16 75.75 -10 23.75 24 c 1
EndSplineSet
Substitution2: "'c2sc' Capitals to Small Capitals in Latin lookup 17 subtable" j.smcp
EndChar

StartChar: H
Encoding: 72 72 39
Width: 636
VWidth: 0
Flags: HW
LayerCount: 2
Fore
SplineSet
53.75 0 m 1
 53.75 732 l 1
 217.75 732 l 1
 217.75 428.5 l 1
 432.75 428.5 l 1
 432.75 732 l 1
 596.75 732 l 1
 596.75 0 l 1
 432.75 0 l 1
 432.75 279.5 l 1
 217.75 279.5 l 1
 217.75 0 l 1
 53.75 0 l 1
EndSplineSet
Substitution2: "'c2sc' Capitals to Small Capitals in Latin lookup 17 subtable" h.smcp
EndChar

StartChar: E
Encoding: 69 69 40
Width: 567
VWidth: 0
Flags: HW
LayerCount: 2
Fore
SplineSet
50 151.5 m 2
 50 572 l 2
 50 709.58 151.225 732.75 221 732 c 1
 221 732 457.5 728 545.25 716 c 1
 545.25 579.25 l 1
 266 579.25 l 2
 214 579.25 214 550.25 214 523.25 c 2
 214 440.25 l 1
 497.75 429.5 l 1
 497.75 294 l 1
 214 284.75 l 1
 214 201.75 l 2
 214.25 148.75 247 149.75 276 149.75 c 2
 545.25 149.75 l 1
 545.25 14 l 1
 468 3.5 231 -3 231 -3 c 1
 165.975 -5.5 50 8.5 50 151.5 c 2
EndSplineSet
Substitution2: "'c2sc' Capitals to Small Capitals in Latin lookup 17 subtable" e.smcp
EndChar

StartChar: L
Encoding: 76 76 41
Width: 533
VWidth: 0
Flags: HW
HStem: 0 149<223.359 510.75> 712 20G<53.75 217.75>
VStem: 53.75 164<154.547 732>
LayerCount: 2
Fore
SplineSet
53.75 148.5 m 2
 53.75 732 l 1
 217.75 732 l 1
 217.75 201 l 2
 217.75 148 250.75 149 279.75 149 c 2
 510.75 149 l 1
 510.75 0 l 1
 212.25 0 l 2
 127.5 0 53.75 35.5 53.75 148.5 c 2
EndSplineSet
Substitution2: "'c2sc' Capitals to Small Capitals in Latin lookup 17 subtable" l.smcp
EndChar

StartChar: F
Encoding: 70 70 42
Width: 567
VWidth: 0
Flags: HW
LayerCount: 2
Fore
SplineSet
50 0 m 1
 50 569 l 2
 50 696.25 140.725 733.5 221 732 c 1
 221 732 457.5 728 545.25 716 c 1
 545.25 579.25 l 1
 266 579.25 l 2
 214 579.25 214 550.25 214 523.25 c 2
 214 440.25 l 1
 497.75 429.5 l 1
 497.75 294 l 1
 214 284.75 l 1
 214 0 l 1
 50 0 l 1
EndSplineSet
Substitution2: "'c2sc' Capitals to Small Capitals in Latin lookup 17 subtable" f.smcp
EndChar

StartChar: K
Encoding: 75 75 43
Width: 642
VWidth: 0
Flags: HW
LayerCount: 2
Fore
SplineSet
53.75 0 m 1
 53.75 732 l 1
 210.25 732 l 1
 210.25 434 l 1
 260.75 434 l 1
 430 732 l 1
 619.75 732 l 1
 406 364.75 l 1
 619.75 0 l 1
 430 0 l 1
 260.75 292.5 l 1
 211.25 292.5 l 1
 211.25 0 l 1
 53.75 0 l 1
EndSplineSet
Substitution2: "'c2sc' Capitals to Small Capitals in Latin lookup 17 subtable" k.smcp
EndChar

StartChar: T
Encoding: 84 84 44
Width: 599
VWidth: 0
Flags: HW
HStem: 0 21G<217.75 381.75> 0 21G<217.75 381.75> 583 149<26.25 217.75 381.75 579.25>
VStem: 217.75 164<0 583>
LayerCount: 2
Fore
SplineSet
26.25 583 m 1
 26.25 732 l 1
 579.25 732 l 1
 579.25 583 l 1
 381.75 583 l 1
 381.75 0 l 1
 217.75 0 l 1
 217.75 583 l 1
 26.25 583 l 1
EndSplineSet
Substitution2: "'c2sc' Capitals to Small Capitals in Latin lookup 17 subtable" t.smcp
EndChar

StartChar: P
Encoding: 80 80 45
Width: 610
VWidth: 0
Flags: HW
HStem: 0 21G<48 212> 0 21G<48 212> 280.5 121.5<212 397.619> 589.5 142.5<212 395.254>
VStem: 48 164<0 280.5 402 589.5> 416 165<417 571.961>
LayerCount: 2
Fore
SplineSet
212 402 m 1
 352.75 402 l 2
 394.25 402 416 427.5 416 499 c 0
 415.5 569.25 387.75 589.5 352.75 589.5 c 2
 212 589.5 l 1
 212 402 l 1
48 0 m 1
 48 732 l 1
 367.75 732 l 2
 464 732 581 705 581 501.25 c 0
 581 272.75 455.25 255.25 367.75 260.5 c 0
 327.75 262.75 217 277.5 212 280.5 c 1
 212 0 l 1
 48 0 l 1
EndSplineSet
Substitution2: "'c2sc' Capitals to Small Capitals in Latin lookup 17 subtable" p.smcp
EndChar

StartChar: R
Encoding: 82 82 46
Width: 612
VWidth: 0
Flags: HW
HStem: 0 21G<48 212 407.896 601.75> 0 21G<48 212 407.896 601.75> 589.5 142.5<212.75 399.05>
VStem: 48 164<0 283 409 589.5> 416.5 165<420.447 576.056>
LayerCount: 2
Fore
SplineSet
212.75 409 m 1
 352.5 409 l 2
 402.25 409 416.5 428.5 416.5 500.75 c 0
 416.5 566.5 396.5 589.5 352.5 589.5 c 2
 212.75 589.5 l 1
 212.75 409 l 1
48 0 m 1
 48 732 l 1
 371.25 732 l 2
 492.5 732 581.5 678.75 581.5 500.75 c 0
 581.5 322.75 514 299.25 468.75 283.25 c 1
 601.75 0 l 1
 416 0 l 1
 307 269 l 1
 212 283 l 1
 212 0 l 1
 48 0 l 1
EndSplineSet
Substitution2: "'c2sc' Capitals to Small Capitals in Latin lookup 17 subtable" r.smcp
EndChar

StartChar: U
Encoding: 85 85 47
Width: 660
VWidth: 0
Flags: HW
LayerCount: 2
Fore
SplineSet
53.75 320 m 2
 53.75 732 l 1
 217.75 732 l 1
 217.75 320 l 2
 217.75 185.25 239.25 144 339.75 144 c 0
 431.25 144 455.75 190.25 455.75 320 c 2
 455.75 732 l 1
 620.75 732 l 1
 620.75 320 l 2
 620.75 -3 460.75 -5 339.75 -5 c 0
 203.75 -5 53.75 -13 53.75 320 c 2
EndSplineSet
Substitution2: "'c2sc' Capitals to Small Capitals in Latin lookup 17 subtable" u.smcp
EndChar

StartChar: B
Encoding: 66 66 48
Width: 607
VWidth: 0
Flags: HW
LayerCount: 2
Fore
SplineSet
218 450 m 1
 351.5 450 l 2
 392.75 450 414.25 477.25 414.25 518.75 c 0
 414.25 576 381 590.5 351.5 590.5 c 2
 218 590.5 l 1
 218 450 l 1
218 141.5 m 1
 359 141.5 l 2
 399.5 141.5 425.75 164.25 425.75 227 c 0
 425.75 273.25 409.25 316 359 316 c 2
 218 316 l 1
 218 141.5 l 1
53.75 0 m 1
 53.75 732 l 1
 362.75 732 l 2
 516.25 732 575.25 648 575.25 534.5 c 0
 575.25 469.5 543.75 390 472 380 c 1
 539.25 368.5 589.75 304.5 589.75 219 c 0
 589.75 70.5 520.5 0 366.5 0 c 2
 53.75 0 l 1
EndSplineSet
Substitution2: "'c2sc' Capitals to Small Capitals in Latin lookup 17 subtable" b.smcp
EndChar

StartChar: N
Encoding: 78 78 49
Width: 677
VWidth: 0
Flags: HW
LayerCount: 2
Fore
SplineSet
53.75 0 m 1
 53.75 732 l 1
 219.75 732 l 1
 474 303 l 1
 474 732 l 1
 638 732 l 1
 638 0 l 1
 474 0 l 1
 218.75 421.5 l 1
 218.75 0 l 1
 53.75 0 l 1
EndSplineSet
AlternateSubs2: "'salt' Access All Alternates in Latin lookup 4-1" N.salt
Substitution2: "'c2sc' Capitals to Small Capitals in Latin lookup 17 subtable" n.smcp
EndChar

StartChar: X
Encoding: 88 88 50
Width: 658
VWidth: 0
Flags: HW
HStem: 0 21G<33 225.281 444.308 636.5> 0 21G<33 225.281 444.308 636.5> 712 20G<30 222.308 449.105 641.5>
DStem2: 211.5 732 30 732 0.502107 -0.864806<0 260.176 501.457 755.301> 33 0 214.5 0 0.503871 0.863779<91.4526 91.4526 586.776 847.439>
LayerCount: 2
Fore
SplineSet
30 732 m 1
 211.5 732 l 1
 335.25 503 l 1
 460 732 l 1
 641.5 732 l 1
 420.25 365 l 1
 636.5 0 l 1
 455 0 l 1
 335.25 224 l 1
 214.5 0 l 1
 33 0 l 1
 249.5 365 l 1
 30 732 l 1
EndSplineSet
AlternateSubs2: "'salt' Access All Alternates in Latin lookup 4-1" X.salt
Substitution2: "'c2sc' Capitals to Small Capitals in Latin lookup 17 subtable" x.smcp
EndChar

StartChar: Z
Encoding: 90 90 51
Width: 554
VWidth: 0
Flags: HW
LayerCount: 2
Fore
SplineSet
23.75 0 m 1
 23.75 149 l 1
 337.25 583 l 1
 23.75 583 l 1
 23.75 732 l 1
 531.75 732 l 1
 531.75 583 l 1
 240.75 149 l 1
 531.75 149 l 1
 531.75 0 l 1
 23.75 0 l 1
EndSplineSet
Substitution2: "'c2sc' Capitals to Small Capitals in Latin lookup 17 subtable" z.smcp
EndChar

StartChar: Y
Encoding: 89 89 52
Width: 666
VWidth: 0
Flags: HW
LayerCount: 2
Fore
SplineSet
30 732 m 1
 208.5 732 l 1
 334.5 393 l 1
 471.5 732 l 1
 650 732 l 1
 413.5 215 l 1
 413.5 0 l 1
 249.5 0 l 1
 249.5 215 l 1
 30 732 l 1
EndSplineSet
Substitution2: "'c2sc' Capitals to Small Capitals in Latin lookup 17 subtable" y.smcp
EndChar

StartChar: Agrave
Encoding: 192 192 53
Width: 700
VWidth: 0
Flags: HW
LayerCount: 2
Fore
SplineSet
196.625 937.5 m 1
 329.125 937.5 l 1
 413.625 797 l 1
 314.625 797 l 1
 196.625 937.5 l 1
289.75 289.25 m 1
 435 289.25 l 1
 365.75 521.5 l 1
 289.75 289.25 l 1
30 0 m 1
 269 732 l 1
 459.25 732 l 1
 690 0 l 1
 518.75 0 l 1
 470.75 147 l 1
 250 147 l 1
 202 0 l 1
 30 0 l 1
EndSplineSet
Substitution2: "'c2sc' Capitals to Small Capitals in Latin lookup 17 subtable" agrave.smcp
EndChar

StartChar: Aacute
Encoding: 193 193 54
Width: 700
VWidth: 0
Flags: HW
LayerCount: 2
Fore
SplineSet
314.625 797 m 1
 399.125 937.5 l 1
 531.625 937.5 l 1
 413.625 797 l 1
 314.625 797 l 1
289.75 289.25 m 1
 435 289.25 l 1
 365.75 521.5 l 1
 289.75 289.25 l 1
30 0 m 1
 269 732 l 1
 459.25 732 l 1
 690 0 l 1
 518.75 0 l 1
 470.75 147 l 1
 250 147 l 1
 202 0 l 1
 30 0 l 1
EndSplineSet
Substitution2: "'c2sc' Capitals to Small Capitals in Latin lookup 17 subtable" aacute.smcp
EndChar

StartChar: Acircumflex
Encoding: 194 194 55
Width: 700
VWidth: 0
Flags: HW
LayerCount: 2
Fore
SplineSet
206.875 797 m 1
 311.125 934.5 l 1
 427.125 934.5 l 1
 521.375 797 l 1
 420.375 797 l 1
 365.875 853 l 1
 308.875 797 l 1
 206.875 797 l 1
289.75 289.25 m 1
 435 289.25 l 1
 365.75 521.5 l 1
 289.75 289.25 l 1
30 0 m 1
 269 732 l 1
 459.25 732 l 1
 690 0 l 1
 518.75 0 l 1
 470.75 147 l 1
 250 147 l 1
 202 0 l 1
 30 0 l 1
EndSplineSet
Substitution2: "'c2sc' Capitals to Small Capitals in Latin lookup 17 subtable" acircumflex.smcp
EndChar

StartChar: Atilde
Encoding: 195 195 56
Width: 700
VWidth: 0
Flags: HW
LayerCount: 2
Fore
SplineSet
191.375 857.5 m 1
 220.125 892.75 260.875 929 313.125 929 c 0
 358.625 928.25 382.375 894.25 419.375 894 c 1
 455.375 892.25 487.375 911.5 511.875 933 c 1
 536.875 867 l 1
 512.125 836 472.875 796.75 424.125 797.25 c 0
 377.875 798 348.625 832.25 310.375 832 c 0
 270.125 831.75 249.375 818.5 216.875 797 c 1
 191.375 857.5 l 1
289.75 289.25 m 1
 435 289.25 l 1
 365.75 521.5 l 1
 289.75 289.25 l 1
30 0 m 1
 269 732 l 1
 459.25 732 l 1
 690 0 l 1
 518.75 0 l 1
 470.75 147 l 1
 250 147 l 1
 202 0 l 1
 30 0 l 1
EndSplineSet
Substitution2: "'c2sc' Capitals to Small Capitals in Latin lookup 17 subtable" atilde.smcp
EndChar

StartChar: Adieresis
Encoding: 196 196 57
Width: 700
VWidth: 0
Flags: HW
LayerCount: 2
Fore
SplineSet
429.875 859.25 m 0
 429.875 893.25 458.125 920.5 492.125 920.5 c 0
 526.125 920.5 553.375 893.25 553.375 859.25 c 0
 553.375 825.25 526.125 797 492.125 797 c 0
 458.125 797 429.875 825.25 429.875 859.25 c 0
174.875 859.25 m 0
 174.875 893.25 203.125 920.5 237.125 920.5 c 0
 271.125 920.5 298.375 893.25 298.375 859.25 c 0
 298.375 825.25 271.125 797 237.125 797 c 0
 203.125 797 174.875 825.25 174.875 859.25 c 0
289.75 289.25 m 1
 435 289.25 l 1
 365.75 521.5 l 1
 289.75 289.25 l 1
30 0 m 1
 269 732 l 1
 459.25 732 l 1
 690 0 l 1
 518.75 0 l 1
 470.75 147 l 1
 250 147 l 1
 202 0 l 1
 30 0 l 1
EndSplineSet
Substitution2: "'c2sc' Capitals to Small Capitals in Latin lookup 17 subtable" adieresis.smcp
EndChar

StartChar: Aring
Encoding: 197 197 58
Width: 700
VWidth: 0
Flags: HW
LayerCount: 2
Fore
SplineSet
325.375 832.167 m 0
 325.375 810.417 342.875 793.917 364.625 793.917 c 0
 386.375 793.917 402.875 810.417 402.875 832.167 c 0
 402.875 853.917 386.375 871.417 364.625 871.417 c 0
 342.875 871.417 325.375 853.917 325.375 832.167 c 0
262.625 832.167 m 0
 262.625 889.167 308.625 935.167 364.625 935.167 c 0
 420.625 935.167 465.625 889.167 465.625 832.167 c 0
 465.625 781.907 430.638 740.977 383.973 732 c 1
 459.25 732 l 1
 690 0 l 1
 518.75 0 l 1
 470.75 147 l 1
 250 147 l 1
 202 0 l 1
 30 0 l 1
 269 732 l 1
 345.239 732 l 1
 298.39 740.977 262.625 781.907 262.625 832.167 c 0
289.75 289.25 m 1
 435 289.25 l 1
 365.75 521.5 l 1
 289.75 289.25 l 1
EndSplineSet
Substitution2: "'c2sc' Capitals to Small Capitals in Latin lookup 17 subtable" aring.smcp
EndChar

StartChar: AE
Encoding: 198 198 59
Width: 966
VWidth: 0
Flags: HW
LayerCount: 2
Fore
SplineSet
360.25 323.5 m 1
 455.25 323.5 l 1
 455.25 524.5 l 1
 360.25 323.5 l 1
20.25 0 m 1
 298 565 l 2
 376.75 724.75 500.75 737.25 625.75 732 c 1
 625.75 732 848.25 728 936 716 c 1
 936 579 l 1
 670.75 579 l 2
 619.75 579 619.75 550.75 619.25 523.75 c 2
 619.25 439 l 1
 888.5 428.25 l 1
 888.5 292.75 l 1
 619.25 283.5 l 1
 619.25 201.25 l 2
 619.25 148.25 652.25 150.5 681.25 150.5 c 2
 935.75 150.25 l 1
 935.75 13.5 l 1
 858.5 3 636.25 -3.5 636.25 -3.5 c 2
 567.25 -7.5 455.25 8 455.25 121 c 2
 455.25 182 l 1
 292.5 182 l 1
 201.75 0 l 1
 20.25 0 l 1
EndSplineSet
EndChar

StartChar: Ccedilla
Encoding: 199 199 60
Width: 569
VWidth: 0
Flags: HW
LayerCount: 2
Fore
SplineSet
75.5 -111.75 m 1
 116.5 -96.75 l 1
 144.5 -84.75 145.5 -74.75 145.5 -36.75 c 1
 250 -36.75 l 1
 250 -138.75 223 -180.25 134 -180.25 c 2
 75.5 -180.25 l 1
 75.5 -111.75 l 1
37 368 m 0
 37 602 88.75 740 287.75 740 c 0
 408.75 740 464.75 731 546.75 703.75 c 1
 546.75 575.75 l 1
 545.75 575.75 433 591 332.75 591 c 0
 238.5 591 201 579.75 201 366 c 0
 201 202 224.5 143 333.5 143 c 0
 438.5 143 546.75 151.5 546.75 151.5 c 1
 546.75 23.5 l 1
 482.75 0.75 411.75 -8.25 287.75 -6 c 0
 102.75 -3.75 37 129.75 37 368 c 0
EndSplineSet
Substitution2: "'c2sc' Capitals to Small Capitals in Latin lookup 17 subtable" ccedilla.smcp
EndChar

StartChar: Eth
Encoding: 208 208 61
Width: 664
VWidth: 0
Flags: HW
LayerCount: 2
Fore
SplineSet
217.75 142.25 m 1
 364.25 142.25 l 2
 440 142.25 466 219.75 466 364 c 0
 466 552.25 426.5 589.25 364.25 589.25 c 2
 217.75 589 l 1
 217.75 407.5 l 1
 319.25 407.5 l 1
 319.25 338.5 l 1
 217.75 338.5 l 1
 217.75 142.25 l 1
-11.25 338.5 m 1
 -11.25 407.5 l 1
 53.75 407.5 l 1
 53.75 731.75 l 2
 53.75 732 364.25 732 379.25 732 c 0
 584.75 732 630.75 555.75 630.75 363 c 0
 630.75 129.5 552.75 0 379.25 0 c 2
 53.75 0 l 1
 53.75 338.5 l 1
 -11.25 338.5 l 1
EndSplineSet
Substitution2: "'c2sc' Capitals to Small Capitals in Latin lookup 17 subtable" eth.smcp
EndChar

StartChar: Egrave
Encoding: 200 200 62
Width: 567
VWidth: 0
Flags: HW
LayerCount: 2
Fore
SplineSet
160.25 937 m 1
 292.75 937 l 1
 377.25 796.5 l 1
 278.25 796.5 l 1
 160.25 937 l 1
50 151.5 m 2
 50 572 l 2
 50 709.58 151.225 732.75 221 732 c 1
 221 732 457.5 728 545.25 716 c 1
 545.25 579.25 l 1
 266 579.25 l 2
 214 579.25 214 550.25 214 523.25 c 2
 214 440.25 l 1
 497.75 429.5 l 1
 497.75 294 l 1
 214 284.75 l 1
 214 201.75 l 2
 214.25 148.75 247 149.75 276 149.75 c 2
 545.25 149.75 l 1
 545.25 14 l 1
 468 3.5 231 -3 231 -3 c 1
 165.975 -5.5 50 8.5 50 151.5 c 2
EndSplineSet
Substitution2: "'c2sc' Capitals to Small Capitals in Latin lookup 17 subtable" egrave.smcp
EndChar

StartChar: Eacute
Encoding: 201 201 63
Width: 567
VWidth: 0
Flags: HW
LayerCount: 2
Fore
SplineSet
271.25 795.75 m 1
 355.75 936.25 l 1
 488.25 936.25 l 1
 370.25 795.75 l 1
 271.25 795.75 l 1
50 151.5 m 2
 50 572 l 2
 50 709.58 151.225 732.75 221 732 c 1
 221 732 457.5 728 545.25 716 c 1
 545.25 579.25 l 1
 266 579.25 l 2
 214 579.25 214 550.25 214 523.25 c 2
 214 440.25 l 1
 497.75 429.5 l 1
 497.75 294 l 1
 214 284.75 l 1
 214 201.75 l 2
 214.25 148.75 247 149.75 276 149.75 c 2
 545.25 149.75 l 1
 545.25 14 l 1
 468 3.5 231 -3 231 -3 c 1
 165.975 -5.5 50 8.5 50 151.5 c 2
EndSplineSet
Substitution2: "'c2sc' Capitals to Small Capitals in Latin lookup 17 subtable" eacute.smcp
EndChar

StartChar: Ecircumflex
Encoding: 202 202 64
Width: 567
VWidth: 0
Flags: HW
LayerCount: 2
Fore
SplineSet
161 797 m 1
 265.25 934.5 l 1
 381.25 934.5 l 1
 475.5 797 l 1
 374.5 797 l 1
 320 853 l 1
 263 797 l 1
 161 797 l 1
50 151.5 m 2
 50 572 l 2
 50 709.58 151.225 732.75 221 732 c 1
 221 732 457.5 728 545.25 716 c 1
 545.25 579.25 l 1
 266 579.25 l 2
 214 579.25 214 550.25 214 523.25 c 2
 214 440.25 l 1
 497.75 429.5 l 1
 497.75 294 l 1
 214 284.75 l 1
 214 201.75 l 2
 214.25 148.75 247 149.75 276 149.75 c 2
 545.25 149.75 l 1
 545.25 14 l 1
 468 3.5 231 -3 231 -3 c 1
 165.975 -5.5 50 8.5 50 151.5 c 2
EndSplineSet
Substitution2: "'c2sc' Capitals to Small Capitals in Latin lookup 17 subtable" ecircumflex.smcp
EndChar

StartChar: Edieresis
Encoding: 203 203 65
Width: 567
VWidth: 0
Flags: HW
LayerCount: 2
Fore
SplineSet
376.75 858 m 0
 376.75 892 405 919.25 439 919.25 c 0
 473 919.25 500.25 892 500.25 858 c 0
 500.25 824 473 795.75 439 795.75 c 0
 405 795.75 376.75 824 376.75 858 c 0
121.75 858 m 0
 121.75 892 150 919.25 184 919.25 c 0
 218 919.25 245.25 892 245.25 858 c 0
 245.25 824 218 795.75 184 795.75 c 0
 150 795.75 121.75 824 121.75 858 c 0
50 151.5 m 2
 50 572 l 2
 50 709.58 151.225 732.75 221 732 c 1
 221 732 457.5 728 545.25 716 c 1
 545.25 579.25 l 1
 266 579.25 l 2
 214 579.25 214 550.25 214 523.25 c 2
 214 440.25 l 1
 497.75 429.5 l 1
 497.75 294 l 1
 214 284.75 l 1
 214 201.75 l 2
 214.25 148.75 247 149.75 276 149.75 c 2
 545.25 149.75 l 1
 545.25 14 l 1
 468 3.5 231 -3 231 -3 c 1
 165.975 -5.5 50 8.5 50 151.5 c 2
EndSplineSet
Substitution2: "'c2sc' Capitals to Small Capitals in Latin lookup 17 subtable" edieresis.smcp
EndChar

StartChar: Igrave
Encoding: 204 204 66
Width: 257
VWidth: 0
Flags: HW
LayerCount: 2
Fore
SplineSet
-31.75 937.5 m 1
 100.75 937.5 l 1
 185.25 797 l 1
 86.25 797 l 1
 -31.75 937.5 l 1
53.75 0 m 1
 53.75 732 l 1
 217.75 732 l 1
 217.75 0 l 1
 53.75 0 l 1
EndSplineSet
Substitution2: "'c2sc' Capitals to Small Capitals in Latin lookup 17 subtable" igrave.smcp
EndChar

StartChar: Iacute
Encoding: 205 205 67
Width: 257
VWidth: 0
Flags: HW
LayerCount: 2
Fore
SplineSet
86.25 797 m 1
 170.75 937.5 l 1
 303.25 937.5 l 1
 185.25 797 l 1
 86.25 797 l 1
53.75 0 m 1
 53.75 732 l 1
 217.75 732 l 1
 217.75 0 l 1
 53.75 0 l 1
EndSplineSet
Substitution2: "'c2sc' Capitals to Small Capitals in Latin lookup 17 subtable" iacute.smcp
EndChar

StartChar: Icircumflex
Encoding: 206 206 68
Width: 257
VWidth: 0
Flags: HW
LayerCount: 2
Fore
SplineSet
-21.5 797 m 1
 82.75 934.5 l 1
 198.75 934.5 l 1
 293 797 l 1
 192 797 l 1
 137.5 853 l 1
 80.5 797 l 1
 -21.5 797 l 1
53.75 0 m 1
 53.75 732 l 1
 217.75 732 l 1
 217.75 0 l 1
 53.75 0 l 1
EndSplineSet
Substitution2: "'c2sc' Capitals to Small Capitals in Latin lookup 17 subtable" icircumflex.smcp
EndChar

StartChar: Idieresis
Encoding: 207 207 69
Width: 257
VWidth: 0
Flags: HW
LayerCount: 2
Fore
SplineSet
201.5 859.25 m 0
 201.5 893.25 229.75 920.5 263.75 920.5 c 0
 297.75 920.5 325 893.25 325 859.25 c 0
 325 825.25 297.75 797 263.75 797 c 0
 229.75 797 201.5 825.25 201.5 859.25 c 0
-53.5 859.25 m 0
 -53.5 893.25 -25.25 920.5 8.75 920.5 c 0
 42.75 920.5 70 893.25 70 859.25 c 0
 70 825.25 42.75 797 8.75 797 c 0
 -25.25 797 -53.5 825.25 -53.5 859.25 c 0
53.75 0 m 1
 53.75 732 l 1
 217.75 732 l 1
 217.75 0 l 1
 53.75 0 l 1
EndSplineSet
Substitution2: "'c2sc' Capitals to Small Capitals in Latin lookup 17 subtable" idieresis.smcp
EndChar

StartChar: Ntilde
Encoding: 209 209 70
Width: 677
VWidth: 0
Flags: HW
LayerCount: 2
Fore
SplineSet
173.125 857.5 m 1
 201.875 892.75 242.625 929 294.875 929 c 0
 340.375 928.25 364.125 894.25 401.125 894 c 1
 437.125 892.25 469.125 911.5 493.625 933 c 1
 518.625 867 l 1
 493.875 836 454.625 796.75 405.875 797.25 c 0
 359.625 798 330.375 832.25 292.125 832 c 0
 251.875 831.75 231.125 818.5 198.625 797 c 1
 173.125 857.5 l 1
53.75 0 m 1
 53.75 732 l 1
 219.75 732 l 1
 474 303 l 1
 474 732 l 1
 638 732 l 1
 638 0 l 1
 474 0 l 1
 218.75 421.5 l 1
 218.75 0 l 1
 53.75 0 l 1
EndSplineSet
AlternateSubs2: "'salt' Access All Alternates in Latin lookup 4-1" Ntilde.salt
Substitution2: "'c2sc' Capitals to Small Capitals in Latin lookup 17 subtable" ntilde.smcp
EndChar

StartChar: Ograve
Encoding: 210 210 71
Width: 669
VWidth: 0
Flags: HW
LayerCount: 2
Fore
SplineSet
174.75 937.5 m 1
 307.25 937.5 l 1
 391.75 797 l 1
 292.75 797 l 1
 174.75 937.5 l 1
208 361 m 0
 208 182 229.25 145 342.25 145 c 0
 445.75 145 476 182.5 476 361 c 0
 476 563.25 444.5 588 342.25 588 c 0
 243 588 208 570 208 361 c 0
44 361 m 0
 44 704 174.25 737 342.25 737 c 0
 515.25 737 640 704 640 361 c 0
 640 38 522.25 -4 342.25 -4 c 0
 162.25 -4 44 28 44 361 c 0
EndSplineSet
Substitution2: "'c2sc' Capitals to Small Capitals in Latin lookup 17 subtable" ograve.smcp
EndChar

StartChar: Oacute
Encoding: 211 211 72
Width: 669
VWidth: 0
Flags: HW
LayerCount: 2
Fore
SplineSet
292.75 797 m 1
 377.25 937.5 l 1
 509.75 937.5 l 1
 391.75 797 l 1
 292.75 797 l 1
208 361 m 0
 208 182 229.25 145 342.25 145 c 0
 445.75 145 476 182.5 476 361 c 0
 476 563.25 444.5 588 342.25 588 c 0
 243 588 208 570 208 361 c 0
44 361 m 0
 44 704 174.25 737 342.25 737 c 0
 515.25 737 640 704 640 361 c 0
 640 38 522.25 -4 342.25 -4 c 0
 162.25 -4 44 28 44 361 c 0
EndSplineSet
Substitution2: "'c2sc' Capitals to Small Capitals in Latin lookup 17 subtable" oacute.smcp
EndChar

StartChar: Ocircumflex
Encoding: 212 212 73
Width: 669
VWidth: 0
Flags: HW
LayerCount: 2
Fore
SplineSet
185 797 m 1
 289.25 934.5 l 1
 405.25 934.5 l 1
 499.5 797 l 1
 398.5 797 l 1
 344 853 l 1
 287 797 l 1
 185 797 l 1
208 361 m 0
 208 182 229.25 145 342.25 145 c 0
 445.75 145 476 182.5 476 361 c 0
 476 563.25 444.5 588 342.25 588 c 0
 243 588 208 570 208 361 c 0
44 361 m 0
 44 704 174.25 737 342.25 737 c 0
 515.25 737 640 704 640 361 c 0
 640 38 522.25 -4 342.25 -4 c 0
 162.25 -4 44 28 44 361 c 0
EndSplineSet
Substitution2: "'c2sc' Capitals to Small Capitals in Latin lookup 17 subtable" ocircumflex.smcp
EndChar

StartChar: Otilde
Encoding: 213 213 74
Width: 669
VWidth: 0
Flags: HW
LayerCount: 2
Fore
SplineSet
169.5 857.5 m 1
 198.25 892.75 239 929 291.25 929 c 0
 336.75 928.25 360.5 894.25 397.5 894 c 1
 433.5 892.25 465.5 911.5 490 933 c 1
 515 867 l 1
 490.25 836 451 796.75 402.25 797.25 c 0
 356 798 326.75 832.25 288.5 832 c 0
 248.25 831.75 227.5 818.5 195 797 c 1
 169.5 857.5 l 1
208 361 m 0
 208 182 229.25 145 342.25 145 c 0
 445.75 145 476 182.5 476 361 c 0
 476 563.25 444.5 588 342.25 588 c 0
 243 588 208 570 208 361 c 0
44 361 m 0
 44 704 174.25 737 342.25 737 c 0
 515.25 737 640 704 640 361 c 0
 640 38 522.25 -4 342.25 -4 c 0
 162.25 -4 44 28 44 361 c 0
EndSplineSet
Substitution2: "'c2sc' Capitals to Small Capitals in Latin lookup 17 subtable" otilde.smcp
EndChar

StartChar: Odieresis
Encoding: 214 214 75
Width: 669
VWidth: 0
Flags: HW
LayerCount: 2
Fore
SplineSet
408 859.25 m 0
 408 893.25 436.25 920.5 470.25 920.5 c 0
 504.25 920.5 531.5 893.25 531.5 859.25 c 0
 531.5 825.25 504.25 797 470.25 797 c 0
 436.25 797 408 825.25 408 859.25 c 0
153 859.25 m 0
 153 893.25 181.25 920.5 215.25 920.5 c 0
 249.25 920.5 276.5 893.25 276.5 859.25 c 0
 276.5 825.25 249.25 797 215.25 797 c 0
 181.25 797 153 825.25 153 859.25 c 0
208 361 m 0
 208 182 229.25 145 342.25 145 c 0
 445.75 145 476 182.5 476 361 c 0
 476 563.25 444.5 588 342.25 588 c 0
 243 588 208 570 208 361 c 0
44 361 m 0
 44 704 174.25 737 342.25 737 c 0
 515.25 737 640 704 640 361 c 0
 640 38 522.25 -4 342.25 -4 c 0
 162.25 -4 44 28 44 361 c 0
EndSplineSet
Substitution2: "'c2sc' Capitals to Small Capitals in Latin lookup 17 subtable" odieresis.smcp
EndChar

StartChar: Oslash
Encoding: 216 216 76
Width: 680
VWidth: 0
Flags: HW
LayerCount: 2
Fore
SplineSet
247.5 176.5 m 1
 267.75 152.5 298.75 145 348.75 145 c 0
 452.25 145 482.75 182.5 482.75 361 c 0
 482.75 424.5 479.25 468.75 470.5 500.75 c 1
 247.5 176.5 l 1
214.75 361 m 0
 214.75 314.5 217 281 223.25 255.25 c 1
 438.5 568.25 l 1
 418 585 388.25 588 348.75 588 c 0
 249.5 588 214.75 570 214.75 361 c 0
50.75 361 m 0
 50.75 704 179.75 737 348.75 737 c 0
 420 737 483.25 731.25 532.5 700.75 c 1
 554.25 732 l 1
 634 732 l 1
 581 656.5 l 1
 622.25 601.75 646.75 511.25 646.75 361 c 0
 646.75 38 528.75 -4 348.75 -4 c 0
 268.75 -4 200.75 2 150 38.5 c 1
 122.75 0 l 1
 43 0 l 1
 104.5 87.5 l 1
 70 141.25 50.75 226.25 50.75 361 c 0
EndSplineSet
Substitution2: "'c2sc' Capitals to Small Capitals in Latin lookup 17 subtable" oslash.smcp
EndChar

StartChar: Ugrave
Encoding: 217 217 77
Width: 660
VWidth: 0
Flags: HW
LayerCount: 2
Fore
SplineSet
169.75 937.5 m 1
 302.25 937.5 l 1
 386.75 797 l 1
 287.75 797 l 1
 169.75 937.5 l 1
53.75 320 m 2
 53.75 732 l 1
 217.75 732 l 1
 217.75 320 l 2
 217.75 185.25 239.25 144 339.75 144 c 0
 431.25 144 455.75 190.25 455.75 320 c 2
 455.75 732 l 1
 620.75 732 l 1
 620.75 320 l 2
 620.75 -3 460.75 -5 339.75 -5 c 0
 203.75 -5 53.75 -13 53.75 320 c 2
EndSplineSet
Substitution2: "'c2sc' Capitals to Small Capitals in Latin lookup 17 subtable" ugrave.smcp
EndChar

StartChar: Uacute
Encoding: 218 218 78
Width: 660
VWidth: 0
Flags: HW
LayerCount: 2
Fore
SplineSet
287.75 797 m 1
 372.25 937.5 l 1
 504.75 937.5 l 1
 386.75 797 l 1
 287.75 797 l 1
53.75 320 m 2
 53.75 732 l 1
 217.75 732 l 1
 217.75 320 l 2
 217.75 185.25 239.25 144 339.75 144 c 0
 431.25 144 455.75 190.25 455.75 320 c 2
 455.75 732 l 1
 620.75 732 l 1
 620.75 320 l 2
 620.75 -3 460.75 -5 339.75 -5 c 0
 203.75 -5 53.75 -13 53.75 320 c 2
EndSplineSet
Substitution2: "'c2sc' Capitals to Small Capitals in Latin lookup 17 subtable" uacute.smcp
EndChar

StartChar: Ucircumflex
Encoding: 219 219 79
Width: 660
VWidth: 0
Flags: HW
LayerCount: 2
Fore
SplineSet
180 797 m 1
 284.25 934.5 l 1
 400.25 934.5 l 1
 494.5 797 l 1
 393.5 797 l 1
 339 853 l 1
 282 797 l 1
 180 797 l 1
53.75 320 m 2
 53.75 732 l 1
 217.75 732 l 1
 217.75 320 l 2
 217.75 185.25 239.25 144 339.75 144 c 0
 431.25 144 455.75 190.25 455.75 320 c 2
 455.75 732 l 1
 620.75 732 l 1
 620.75 320 l 2
 620.75 -3 460.75 -5 339.75 -5 c 0
 203.75 -5 53.75 -13 53.75 320 c 2
EndSplineSet
Substitution2: "'c2sc' Capitals to Small Capitals in Latin lookup 17 subtable" ucircumflex.smcp
EndChar

StartChar: Udieresis
Encoding: 220 220 80
Width: 660
VWidth: 0
Flags: HW
LayerCount: 2
Fore
SplineSet
403 859.25 m 0
 403 893.25 431.25 920.5 465.25 920.5 c 0
 499.25 920.5 526.5 893.25 526.5 859.25 c 0
 526.5 825.25 499.25 797 465.25 797 c 0
 431.25 797 403 825.25 403 859.25 c 0
148 859.25 m 0
 148 893.25 176.25 920.5 210.25 920.5 c 0
 244.25 920.5 271.5 893.25 271.5 859.25 c 0
 271.5 825.25 244.25 797 210.25 797 c 0
 176.25 797 148 825.25 148 859.25 c 0
53.75 320 m 2
 53.75 732 l 1
 217.75 732 l 1
 217.75 320 l 2
 217.75 185.25 239.25 144 339.75 144 c 0
 431.25 144 455.75 190.25 455.75 320 c 2
 455.75 732 l 1
 620.75 732 l 1
 620.75 320 l 2
 620.75 -3 460.75 -5 339.75 -5 c 0
 203.75 -5 53.75 -13 53.75 320 c 2
EndSplineSet
Substitution2: "'c2sc' Capitals to Small Capitals in Latin lookup 17 subtable" udieresis.smcp
EndChar

StartChar: Yacute
Encoding: 221 221 81
Width: 666
VWidth: 0
Flags: HW
LayerCount: 2
Fore
SplineSet
290.5 797 m 1
 375 937.5 l 1
 507.5 937.5 l 1
 389.5 797 l 1
 290.5 797 l 1
30 732 m 1
 208.5 732 l 1
 334.5 393 l 1
 471.5 732 l 1
 650 732 l 1
 413.5 215 l 1
 413.5 0 l 1
 249.5 0 l 1
 249.5 215 l 1
 30 732 l 1
EndSplineSet
Substitution2: "'c2sc' Capitals to Small Capitals in Latin lookup 17 subtable" yacute.smcp
EndChar

StartChar: agrave
Encoding: 224 224 82
Width: 519
VWidth: 0
Flags: HW
LayerCount: 2
Fore
SplineSet
100.125 741.5 m 1
 232.625 741.5 l 1
 317.125 601 l 1
 218.125 601 l 1
 100.125 741.5 l 1
190.5 164 m 2
 190.5 121.25 214 120.5 236.75 120.5 c 0
 287.5 120.5 322.25 158 322.25 158 c 1
 322.25 238.75 l 1
 227.75 231 l 2
 193 227.75 190.5 201 190.5 181 c 2
 190.5 164 l 2
26.5 138.75 m 2
 26.5 184.75 l 2
 26.5 261 65.25 335 190.25 335 c 2
 190.25 335 322.25 334 322.25 335 c 2
 322.25 335 323.25 356 322.25 357 c 1
 322.25 412 297.75 416.5 255.25 416.5 c 0
 218.5 416.5 68.5 407 44.25 405.25 c 1
 44.25 503.5 l 1
 113.75 533.25 181 540.75 280 541 c 0
 405.75 541.25 486.25 503.75 486.25 364.5 c 2
 486.25 0 l 1
 355.5 0 l 1
 322.25 56.5 l 1
 315 40.75 260.25 -8.25 182.75 -6 c 0
 70 -2.25 26.5 75.5 26.5 138.75 c 2
EndSplineSet
AlternateSubs2: "'salt' Access All Alternates in Latin lookup 4-1" agrave.salt
Substitution2: "'smcp' Lowercase to Small Capitals lookup 16-1" agrave.smcp
EndChar

StartChar: aacute
Encoding: 225 225 83
Width: 519
VWidth: 0
Flags: HW
LayerCount: 2
Fore
SplineSet
216.875 601 m 1
 301.375 741.5 l 1
 433.875 741.5 l 1
 315.875 601 l 1
 216.875 601 l 1
190.5 164 m 2
 190.5 121.25 214 120.5 236.75 120.5 c 0
 287.5 120.5 322.25 158 322.25 158 c 1
 322.25 238.75 l 1
 227.75 231 l 2
 193 227.75 190.5 201 190.5 181 c 2
 190.5 164 l 2
26.5 138.75 m 2
 26.5 184.75 l 2
 26.5 261 65.25 335 190.25 335 c 2
 190.25 335 322.25 334 322.25 335 c 2
 322.25 335 323.25 356 322.25 357 c 1
 322.25 412 297.75 416.5 255.25 416.5 c 0
 218.5 416.5 68.5 407 44.25 405.25 c 1
 44.25 503.5 l 1
 113.75 533.25 181 540.75 280 541 c 0
 405.75 541.25 486.25 503.75 486.25 364.5 c 2
 486.25 0 l 1
 355.5 0 l 1
 322.25 56.5 l 1
 315 40.75 260.25 -8.25 182.75 -6 c 0
 70 -2.25 26.5 75.5 26.5 138.75 c 2
EndSplineSet
AlternateSubs2: "'salt' Access All Alternates in Latin lookup 4-1" aacute.salt
Substitution2: "'smcp' Lowercase to Small Capitals lookup 16-1" aacute.smcp
EndChar

StartChar: acircumflex
Encoding: 226 226 84
Width: 519
VWidth: 0
Flags: HW
LayerCount: 2
Fore
SplineSet
109.5 601 m 1
 213.75 738.5 l 1
 329.75 738.5 l 1
 424 601 l 1
 323 601 l 1
 268.5 657 l 1
 211.5 601 l 1
 109.5 601 l 1
190.5 164 m 2
 190.5 121.25 214 120.5 236.75 120.5 c 0
 287.5 120.5 322.25 158 322.25 158 c 1
 322.25 238.75 l 1
 227.75 231 l 2
 193 227.75 190.5 201 190.5 181 c 2
 190.5 164 l 2
26.5 138.75 m 2
 26.5 184.75 l 2
 26.5 261 65.25 335 190.25 335 c 2
 190.25 335 322.25 334 322.25 335 c 2
 322.25 335 323.25 356 322.25 357 c 1
 322.25 412 297.75 416.5 255.25 416.5 c 0
 218.5 416.5 68.5 407 44.25 405.25 c 1
 44.25 503.5 l 1
 113.75 533.25 181 540.75 280 541 c 0
 405.75 541.25 486.25 503.75 486.25 364.5 c 2
 486.25 0 l 1
 355.5 0 l 1
 322.25 56.5 l 1
 315 40.75 260.25 -8.25 182.75 -6 c 0
 70 -2.25 26.5 75.5 26.5 138.75 c 2
EndSplineSet
AlternateSubs2: "'salt' Access All Alternates in Latin lookup 4-1" acircumflex.salt
Substitution2: "'smcp' Lowercase to Small Capitals lookup 16-1" acircumflex.smcp
EndChar

StartChar: atilde
Encoding: 227 227 85
Width: 519
VWidth: 0
Flags: HW
LayerCount: 2
Fore
SplineSet
92.75 661.5 m 1
 121.5 696.75 162.25 733 214.5 733 c 0
 260 732.25 283.75 698.25 320.75 698 c 1
 356.75 696.25 388.75 715.5 413.25 737 c 1
 438.25 671 l 1
 413.5 640 374.25 600.75 325.5 601.25 c 0
 279.25 602 250 636.25 211.75 636 c 0
 171.5 635.75 150.75 622.5 118.25 601 c 1
 92.75 661.5 l 1
190.5 164 m 2
 190.5 121.25 214 120.5 236.75 120.5 c 0
 287.5 120.5 322.25 158 322.25 158 c 1
 322.25 238.75 l 1
 227.75 231 l 2
 193 227.75 190.5 201 190.5 181 c 2
 190.5 164 l 2
26.5 138.75 m 2
 26.5 184.75 l 2
 26.5 261 65.25 335 190.25 335 c 2
 190.25 335 322.25 334 322.25 335 c 2
 322.25 335 323.25 356 322.25 357 c 1
 322.25 412 297.75 416.5 255.25 416.5 c 0
 218.5 416.5 68.5 407 44.25 405.25 c 1
 44.25 503.5 l 1
 113.75 533.25 181 540.75 280 541 c 0
 405.75 541.25 486.25 503.75 486.25 364.5 c 2
 486.25 0 l 1
 355.5 0 l 1
 322.25 56.5 l 1
 315 40.75 260.25 -8.25 182.75 -6 c 0
 70 -2.25 26.5 75.5 26.5 138.75 c 2
EndSplineSet
AlternateSubs2: "'salt' Access All Alternates in Latin lookup 4-1" atilde.salt
Substitution2: "'smcp' Lowercase to Small Capitals lookup 16-1" atilde.smcp
EndChar

StartChar: adieresis
Encoding: 228 228 86
Width: 519
VWidth: 0
Flags: HW
LayerCount: 2
Fore
SplineSet
332.087 663.254 m 0
 332.087 697.254 360.337 724.504 394.337 724.504 c 0
 428.337 724.504 455.587 697.254 455.587 663.254 c 0
 455.587 629.254 428.337 601.004 394.337 601.004 c 0
 360.337 601.004 332.087 629.254 332.087 663.254 c 0
77.0869 663.254 m 0
 77.0869 697.254 105.337 724.504 139.337 724.504 c 0
 173.337 724.504 200.587 697.254 200.587 663.254 c 0
 200.587 629.254 173.337 601.004 139.337 601.004 c 0
 105.337 601.004 77.0869 629.254 77.0869 663.254 c 0
190.5 164 m 2
 190.5 121.25 214 120.5 236.75 120.5 c 0
 287.5 120.5 322.25 158 322.25 158 c 1
 322.25 238.75 l 1
 227.75 231 l 2
 193 227.75 190.5 201 190.5 181 c 2
 190.5 164 l 2
26.5 138.75 m 2
 26.5 184.75 l 2
 26.5 261 65.25 335 190.25 335 c 2
 190.25 335 322.25 334 322.25 335 c 2
 322.25 335 323.25 356 322.25 357 c 1
 322.25 412 297.75 416.5 255.25 416.5 c 0
 218.5 416.5 68.5 407 44.25 405.25 c 1
 44.25 503.5 l 1
 113.75 533.25 181 540.75 280 541 c 0
 405.75 541.25 486.25 503.75 486.25 364.5 c 2
 486.25 0 l 1
 355.5 0 l 1
 322.25 56.5 l 1
 315 40.75 260.25 -8.25 182.75 -6 c 0
 70 -2.25 26.5 75.5 26.5 138.75 c 2
EndSplineSet
AlternateSubs2: "'salt' Access All Alternates in Latin lookup 4-1" adieresis.salt
Substitution2: "'smcp' Lowercase to Small Capitals lookup 16-1" adieresis.smcp
EndChar

StartChar: aring
Encoding: 229 229 87
Width: 519
VWidth: 0
Flags: HW
LayerCount: 2
Fore
SplineSet
229.375 695.5 m 0
 229.375 673.75 246.875 657.25 268.625 657.25 c 0
 290.375 657.25 306.875 673.75 306.875 695.5 c 0
 306.875 717.25 290.375 734.75 268.625 734.75 c 0
 246.875 734.75 229.375 717.25 229.375 695.5 c 0
166.625 695.5 m 0
 166.625 752.5 212.625 798.5 268.625 798.5 c 0
 324.625 798.5 369.625 752.5 369.625 695.5 c 0
 369.625 638.5 324.625 593.5 268.625 593.5 c 0
 212.625 593.5 166.625 638.5 166.625 695.5 c 0
190.5 164 m 2
 190.5 121.25 214 120.5 236.75 120.5 c 0
 287.5 120.5 322.25 158 322.25 158 c 1
 322.25 238.75 l 1
 227.75 231 l 2
 193 227.75 190.5 201 190.5 181 c 2
 190.5 164 l 2
26.5 138.75 m 2
 26.5 184.75 l 2
 26.5 261 65.25 335 190.25 335 c 2
 190.25 335 322.25 334 322.25 335 c 2
 322.25 335 323.25 356 322.25 357 c 1
 322.25 412 297.75 416.5 255.25 416.5 c 0
 218.5 416.5 68.5 407 44.25 405.25 c 1
 44.25 503.5 l 1
 113.75 533.25 181 540.75 280 541 c 0
 405.75 541.25 486.25 503.75 486.25 364.5 c 2
 486.25 0 l 1
 355.5 0 l 1
 322.25 56.5 l 1
 315 40.75 260.25 -8.25 182.75 -6 c 0
 70 -2.25 26.5 75.5 26.5 138.75 c 2
EndSplineSet
AlternateSubs2: "'salt' Access All Alternates in Latin lookup 4-1" aring.salt
Substitution2: "'smcp' Lowercase to Small Capitals lookup 16-1" aring.smcp
EndChar

StartChar: ae
Encoding: 230 230 88
Width: 832
VWidth: 0
Flags: HW
LayerCount: 2
Fore
SplineSet
505.25 323.5 m 1
 604 323.5 l 2
 627.75 323.5 642.25 337.25 642.25 359.75 c 0
 642.25 413 635.75 417.5 583.25 417.5 c 0
 523.5 417.5 503.75 421 505.25 323.5 c 1
190.5 161.75 m 2
 190.5 119 214 122 236.75 122 c 0
 287.5 122 322.25 159.5 322.25 159.5 c 1
 322.25 229 l 1
 227.75 221.25 l 2
 193 218 190.5 191.25 190.5 171.25 c 2
 190.5 161.75 l 2
26.5 140.25 m 2
 26.5 173.5 l 2
 26.5 249.75 65.25 323.75 190.25 323.75 c 2
 190.25 323.75 322.25 322.75 322.25 323.75 c 2
 322.25 323.75 323.25 357.5 322.25 358.5 c 1
 322.25 413.5 297.75 418 255.25 418 c 0
 207.25 418 69.25 407.75 44.25 406 c 1
 44.25 505 l 1
 112.5 535.25 181 542.25 280 542.5 c 1
 335.25 541.25 394 530.75 424.25 505.5 c 1
 466.5 531.5 511.75 536.5 572.5 536.5 c 0
 736.5 536.5 806.25 512.5 806.25 350 c 0
 806.25 249 749.5 220.5 653.5 220.5 c 2
 505.25 220.5 l 1
 505.25 135.25 546.25 122.25 621.25 122.25 c 0
 698.25 122.25 721.25 122 796.25 133 c 1
 796.25 24.5 l 1
 723.5 -5.25 599.25 -3.5 516.25 -3.5 c 0
 443.5 -3.5 403.5 20.75 374.25 65 c 1
 360.25 34.25 253.5 -6 182.75 -4.5 c 0
 70 -0.75 26.5 77 26.5 140.25 c 2
EndSplineSet
Substitution2: "'smcp' Lowercase to Small Capitals lookup 16-1" ae.smcp
EndChar

StartChar: ccedilla
Encoding: 231 231 89
Width: 492
VWidth: 0
Flags: HW
LayerCount: 2
Fore
SplineSet
151.75 -112.75 m 1
 192.75 -97.75 l 1
 220.75 -85.75 221.75 -75.75 221.75 -37.75 c 1
 326.25 -37.75 l 1
 326.25 -139.75 299.25 -181.25 210.25 -181.25 c 2
 151.75 -181.25 l 1
 151.75 -112.75 l 1
33.5 266 m 0
 33.5 480 106.5 536.5 208.5 536.5 c 0
 260.5 536.5 365 536.5 459 502.5 c 1
 459 403.5 l 1
 459 403.5 379.25 410 290.25 410 c 0
 224.25 410 197.5 408.25 197.5 263.5 c 0
 197.5 133.75 218.25 121 290.25 121 c 0
 382.25 121 466 129.75 466 129.75 c 1
 466 30.25 l 1
 389.5 -15.25 291.5 -4.5 208.5 -5.5 c 1
 109.5 -5.5 33.5 51.75 33.5 266 c 0
EndSplineSet
Substitution2: "'smcp' Lowercase to Small Capitals lookup 16-1" ccedilla.smcp
EndChar

StartChar: egrave
Encoding: 232 232 90
Width: 525
VWidth: 0
Flags: HW
LayerCount: 2
Fore
SplineSet
103.25 736.5 m 1
 235.75 736.5 l 1
 320.25 596 l 1
 221.25 596 l 1
 103.25 736.5 l 1
197.5 313 m 1
 297 313 l 2
 320.75 313 334.5 326.75 334.5 349.25 c 0
 334.5 402.5 328.75 416 276.25 416 c 0
 216.5 416 196 410.5 197.5 313 c 1
33.5 268 m 0
 33.5 493 95.5 535 265.5 535 c 0
 429.5 535 498.5 515.5 498.5 339.5 c 0
 498.5 238.5 442.5 202.5 346.5 202.5 c 2
 197.5 202.5 l 1
 197.5 117.25 238.5 120.75 313.5 120.75 c 0
 390.5 120.75 413.5 120.5 488.5 131.5 c 1
 488.5 23 l 1
 415.75 -6.75 291.5 -5 208.5 -5 c 0
 73.5 -5 33.5 78 33.5 268 c 0
EndSplineSet
Substitution2: "'smcp' Lowercase to Small Capitals lookup 16-1" egrave.smcp
EndChar

StartChar: eacute
Encoding: 233 233 91
Width: 525
VWidth: 0
Flags: HW
LayerCount: 2
Fore
SplineSet
218.75 596 m 1
 303.25 736.5 l 1
 435.75 736.5 l 1
 317.75 596 l 1
 218.75 596 l 1
197.5 313 m 1
 297 313 l 2
 320.75 313 334.5 326.75 334.5 349.25 c 0
 334.5 402.5 328.75 416 276.25 416 c 0
 216.5 416 196 410.5 197.5 313 c 1
33.5 268 m 0
 33.5 493 95.5 535 265.5 535 c 0
 429.5 535 498.5 515.5 498.5 339.5 c 0
 498.5 238.5 442.5 202.5 346.5 202.5 c 2
 197.5 202.5 l 1
 197.5 117.25 238.5 120.75 313.5 120.75 c 0
 390.5 120.75 413.5 120.5 488.5 131.5 c 1
 488.5 23 l 1
 415.75 -6.75 291.5 -5 208.5 -5 c 0
 73.5 -5 33.5 78 33.5 268 c 0
EndSplineSet
Substitution2: "'smcp' Lowercase to Small Capitals lookup 16-1" eacute.smcp
EndChar

StartChar: ecircumflex
Encoding: 234 234 92
Width: 525
VWidth: 0
Flags: HW
LayerCount: 2
Fore
SplineSet
106.25 596 m 1
 210.5 733.5 l 1
 326.5 733.5 l 1
 420.75 596 l 1
 319.75 596 l 1
 265.25 652 l 1
 208.25 596 l 1
 106.25 596 l 1
197.5 313 m 1
 297 313 l 2
 320.75 313 334.5 326.75 334.5 349.25 c 0
 334.5 402.5 328.75 416 276.25 416 c 0
 216.5 416 196 410.5 197.5 313 c 1
33.5 268 m 0
 33.5 493 95.5 535 265.5 535 c 0
 429.5 535 498.5 515.5 498.5 339.5 c 0
 498.5 238.5 442.5 202.5 346.5 202.5 c 2
 197.5 202.5 l 1
 197.5 117.25 238.5 120.75 313.5 120.75 c 0
 390.5 120.75 413.5 120.5 488.5 131.5 c 1
 488.5 23 l 1
 415.75 -6.75 291.5 -5 208.5 -5 c 0
 73.5 -5 33.5 78 33.5 268 c 0
EndSplineSet
Substitution2: "'smcp' Lowercase to Small Capitals lookup 16-1" ecircumflex.smcp
EndChar

StartChar: edieresis
Encoding: 235 235 93
Width: 525
VWidth: 0
Flags: HW
LayerCount: 2
Fore
SplineSet
328.5 658.25 m 0
 328.5 692.25 356.75 719.5 390.75 719.5 c 0
 424.75 719.5 452 692.25 452 658.25 c 0
 452 624.25 424.75 596 390.75 596 c 0
 356.75 596 328.5 624.25 328.5 658.25 c 0
73.5 658.25 m 0
 73.5 692.25 101.75 719.5 135.75 719.5 c 0
 169.75 719.5 197 692.25 197 658.25 c 0
 197 624.25 169.75 596 135.75 596 c 0
 101.75 596 73.5 624.25 73.5 658.25 c 0
197.5 313 m 1
 297 313 l 2
 320.75 313 334.5 326.75 334.5 349.25 c 0
 334.5 402.5 328.75 416 276.25 416 c 0
 216.5 416 196 410.5 197.5 313 c 1
33.5 268 m 0
 33.5 493 95.5 535 265.5 535 c 0
 429.5 535 498.5 515.5 498.5 339.5 c 0
 498.5 238.5 442.5 202.5 346.5 202.5 c 2
 197.5 202.5 l 1
 197.5 117.25 238.5 120.75 313.5 120.75 c 0
 390.5 120.75 413.5 120.5 488.5 131.5 c 1
 488.5 23 l 1
 415.75 -6.75 291.5 -5 208.5 -5 c 0
 73.5 -5 33.5 78 33.5 268 c 0
EndSplineSet
Substitution2: "'smcp' Lowercase to Small Capitals lookup 16-1" edieresis.smcp
EndChar

StartChar: igrave
Encoding: 236 236 94
Width: 244
VWidth: 0
Flags: HW
LayerCount: 2
Fore
SplineSet
-45 736.5 m 1
 87.5 736.5 l 1
 172 596 l 1
 73 596 l 1
 -45 736.5 l 1
40.5 0 m 1
 40.5 531 l 1
 204.5 531 l 1
 204.5 0 l 1
 40.5 0 l 1
EndSplineSet
Substitution2: "'smcp' Lowercase to Small Capitals lookup 16-1" igrave.smcp
EndChar

StartChar: iacute
Encoding: 237 237 95
Width: 244
VWidth: 0
Flags: HW
LayerCount: 2
Fore
SplineSet
73 596 m 1
 157.5 736.5 l 1
 290 736.5 l 1
 172 596 l 1
 73 596 l 1
40.5 0 m 1
 40.5 531 l 1
 204.5 531 l 1
 204.5 0 l 1
 40.5 0 l 1
EndSplineSet
Substitution2: "'smcp' Lowercase to Small Capitals lookup 16-1" iacute.smcp
EndChar

StartChar: icircumflex
Encoding: 238 238 96
Width: 244
VWidth: 0
Flags: HW
LayerCount: 2
Fore
SplineSet
-34.75 596 m 1
 69.5 733.5 l 1
 185.5 733.5 l 1
 279.75 596 l 1
 178.75 596 l 1
 124.25 652 l 1
 67.25 596 l 1
 -34.75 596 l 1
40.5 0 m 1
 40.5 531 l 1
 204.5 531 l 1
 204.5 0 l 1
 40.5 0 l 1
EndSplineSet
Substitution2: "'smcp' Lowercase to Small Capitals lookup 16-1" icircumflex.smcp
EndChar

StartChar: idieresis
Encoding: 239 239 97
Width: 244
VWidth: 0
Flags: HW
LayerCount: 2
Fore
SplineSet
188.25 658.25 m 0
 188.25 692.25 216.5 719.5 250.5 719.5 c 0
 284.5 719.5 311.75 692.25 311.75 658.25 c 0
 311.75 624.25 284.5 596 250.5 596 c 0
 216.5 596 188.25 624.25 188.25 658.25 c 0
-66.75 658.25 m 0
 -66.75 692.25 -38.5 719.5 -4.5 719.5 c 0
 29.5 719.5 56.75 692.25 56.75 658.25 c 0
 56.75 624.25 29.5 596 -4.5 596 c 0
 -38.5 596 -66.75 624.25 -66.75 658.25 c 0
40.5 0 m 1
 40.5 531 l 1
 204.5 531 l 1
 204.5 0 l 1
 40.5 0 l 1
EndSplineSet
Substitution2: "'smcp' Lowercase to Small Capitals lookup 16-1" idieresis.smcp
EndChar

StartChar: eth
Encoding: 240 240 98
Width: 541
VWidth: 0
Flags: HW
LayerCount: 2
Fore
SplineSet
190.5 264 m 0
 190.5 165.25 202 151 248 151 c 2
 294 151 l 2
 345.25 151 350.5 174.5 350.5 264 c 0
 350.5 367.5 345 382 294 382 c 2
 248 382 l 2
 206 382 190.5 363.5 190.5 264 c 0
26.5 264 m 0
 26.5 434 81.5 531 216.5 531 c 2
 256.5 531 l 2
 262.5 531 315.5 531 334 523.5 c 1
 323.75 558.25 306.75 586.25 282.5 607.5 c 1
 180.25 555.5 l 1
 150.25 612.5 l 1
 209 641.5 l 1
 173.5 651 130.25 651.75 85 650.5 c 1
 85 783 l 1
 208.5 783 294.5 762.5 357.75 722.5 c 1
 441.25 764.25 l 1
 471.5 707.25 l 1
 412.75 678 l 1
 499.25 583.5 514.5 431.25 514.5 264 c 0
 514.5 65 431 0 324 0 c 2
 216.5 0 l 2
 79.5 0 26.5 85 26.5 264 c 0
EndSplineSet
Substitution2: "'smcp' Lowercase to Small Capitals lookup 16-1" eth.smcp
EndChar

StartChar: ograve
Encoding: 242 242 99
Width: 557
VWidth: 0
Flags: HW
LayerCount: 2
Fore
SplineSet
113.75 736.5 m 1
 246.25 736.5 l 1
 330.75 596 l 1
 231.75 596 l 1
 113.75 736.5 l 1
197.5 258 m 0
 197.5 135 214.75 121.5 278.75 121.5 c 0
 347 121.5 360 131 360 258 c 0
 360 391.75 350 409.5 278.75 409.5 c 0
 206.5 409.5 197.5 391.25 197.5 258 c 0
33.5 258 m 0
 33.5 475 97.25 536 278.75 536 c 0
 463 536 524 469 524 258 c 0
 524 61 466.75 -5 278.75 -5 c 0
 93.75 -5 33.5 68 33.5 258 c 0
EndSplineSet
Substitution2: "'smcp' Lowercase to Small Capitals lookup 16-1" ograve.smcp
EndChar

StartChar: oacute
Encoding: 243 243 100
Width: 557
VWidth: 0
Flags: HW
LayerCount: 2
Fore
SplineSet
229.25 596 m 1
 313.75 736.5 l 1
 446.25 736.5 l 1
 328.25 596 l 1
 229.25 596 l 1
197.5 258 m 0
 197.5 135 214.75 121.5 278.75 121.5 c 0
 347 121.5 360 131 360 258 c 0
 360 391.75 350 409.5 278.75 409.5 c 0
 206.5 409.5 197.5 391.25 197.5 258 c 0
33.5 258 m 0
 33.5 475 97.25 536 278.75 536 c 0
 463 536 524 469 524 258 c 0
 524 61 466.75 -5 278.75 -5 c 0
 93.75 -5 33.5 68 33.5 258 c 0
EndSplineSet
Substitution2: "'smcp' Lowercase to Small Capitals lookup 16-1" oacute.smcp
EndChar

StartChar: ocircumflex
Encoding: 244 244 101
Width: 557
VWidth: 0
Flags: HW
LayerCount: 2
Fore
SplineSet
122.75 596 m 1
 227 733.5 l 1
 343 733.5 l 1
 437.25 596 l 1
 336.25 596 l 1
 281.75 652 l 1
 224.75 596 l 1
 122.75 596 l 1
197.5 258 m 0
 197.5 135 214.75 121.5 278.75 121.5 c 0
 347 121.5 360 131 360 258 c 0
 360 391.75 350 409.5 278.75 409.5 c 0
 206.5 409.5 197.5 391.25 197.5 258 c 0
33.5 258 m 0
 33.5 475 97.25 536 278.75 536 c 0
 463 536 524 469 524 258 c 0
 524 61 466.75 -5 278.75 -5 c 0
 93.75 -5 33.5 68 33.5 258 c 0
EndSplineSet
Substitution2: "'smcp' Lowercase to Small Capitals lookup 16-1" ocircumflex.smcp
EndChar

StartChar: otilde
Encoding: 245 245 102
Width: 557
VWidth: 0
Flags: HW
LayerCount: 2
Fore
SplineSet
108.25 656.5 m 1
 137 691.75 177.75 728 230 728 c 0
 275.5 727.25 299.25 693.25 336.25 693 c 1
 372.25 691.25 404.25 710.5 428.75 732 c 1
 453.75 666 l 1
 429 635 389.75 595.75 341 596.25 c 0
 294.75 597 265.5 631.25 227.25 631 c 0
 187 630.75 166.25 617.5 133.75 596 c 1
 108.25 656.5 l 1
197.5 258 m 0
 197.5 135 214.75 121.5 278.75 121.5 c 0
 347 121.5 360 131 360 258 c 0
 360 391.75 350 409.5 278.75 409.5 c 0
 206.5 409.5 197.5 391.25 197.5 258 c 0
33.5 258 m 0
 33.5 475 97.25 536 278.75 536 c 0
 463 536 524 469 524 258 c 0
 524 61 466.75 -5 278.75 -5 c 0
 93.75 -5 33.5 68 33.5 258 c 0
EndSplineSet
Substitution2: "'smcp' Lowercase to Small Capitals lookup 16-1" otilde.smcp
EndChar

StartChar: odieresis
Encoding: 246 246 103
Width: 557
VWidth: 0
Flags: HW
LayerCount: 2
Fore
SplineSet
344.75 658.25 m 0
 344.75 692.25 373 719.5 407 719.5 c 0
 441 719.5 468.25 692.25 468.25 658.25 c 0
 468.25 624.25 441 596 407 596 c 0
 373 596 344.75 624.25 344.75 658.25 c 0
89.75 658.25 m 0
 89.75 692.25 118 719.5 152 719.5 c 0
 186 719.5 213.25 692.25 213.25 658.25 c 0
 213.25 624.25 186 596 152 596 c 0
 118 596 89.75 624.25 89.75 658.25 c 0
197.5 258 m 0
 197.5 135 214.75 121.5 278.75 121.5 c 0
 347 121.5 360 131 360 258 c 0
 360 391.75 350 409.5 278.75 409.5 c 0
 206.5 409.5 197.5 391.25 197.5 258 c 0
33.5 258 m 0
 33.5 475 97.25 536 278.75 536 c 0
 463 536 524 469 524 258 c 0
 524 61 466.75 -5 278.75 -5 c 0
 93.75 -5 33.5 68 33.5 258 c 0
EndSplineSet
Substitution2: "'smcp' Lowercase to Small Capitals lookup 16-1" odieresis.smcp
EndChar

StartChar: ntilde
Encoding: 241 241 104
Width: 552
VWidth: 0
Flags: HW
LayerCount: 2
Fore
SplineSet
107.25 660.5 m 1
 136 695.75 176.75 732 229 732 c 0
 274.5 731.25 298.25 697.25 335.25 697 c 1
 371.25 695.25 403.25 714.5 427.75 736 c 1
 452.75 670 l 1
 428 639 388.75 599.75 340 600.25 c 0
 293.75 601 264.5 635.25 226.25 635 c 0
 186 634.75 165.25 621.5 132.75 600 c 1
 107.25 660.5 l 1
40.5 0 m 1
 40.5 531 l 1
 175 531 l 1
 204.5 476.5 l 1
 244.5 508.5 282 540 363 540 c 0
 493 540 519.5 453.5 519.5 347.5 c 2
 519.5 0 l 1
 355.5 0 l 1
 355.5 350.5 l 2
 355.5 398.5 337.5 413.5 308.25 413.5 c 0
 260.5 413.5 232.75 401 204.5 371.5 c 1
 204.5 0 l 1
 40.5 0 l 1
EndSplineSet
AlternateSubs2: "'salt' Access All Alternates in Latin lookup 4-1" ntilde.salt
Substitution2: "'smcp' Lowercase to Small Capitals lookup 16-1" ntilde.smcp
EndChar

StartChar: oslash
Encoding: 248 248 105
Width: 586
VWidth: 0
Flags: HW
LayerCount: 2
Fore
SplineSet
231.75 142 m 1
 243.5 124.25 263.25 121.5 293.75 121.5 c 0
 362 121.5 375 131 375 258 c 0
 375 283.75 373.25 301.75 369 314.5 c 1
 231.75 142 l 1
212.5 258 m 0
 212.5 241.25 214.25 229.25 217.5 220.75 c 1
 353.25 391.5 l 1
 342 406 323.5 409.5 293.75 409.5 c 0
 221.5 409.5 212.5 391.25 212.5 258 c 0
48.5 258 m 0
 48.5 475 112.25 536 293.75 536 c 0
 360.5 536 411 527.5 448.25 506.5 c 1
 468.5 531 l 1
 549.5 531 l 1
 494.75 464.5 l 1
 526.5 420.75 539 354.5 539 258 c 0
 539 61 481.75 -5 293.75 -5 c 0
 225.25 -5 173.25 5 135.75 27 c 1
 113.5 0 l 1
 33.75 0 l 1
 90.5 69.25 l 1
 60.5 111.25 48.5 173 48.5 258 c 0
EndSplineSet
Substitution2: "'smcp' Lowercase to Small Capitals lookup 16-1" oslash.smcp
EndChar

StartChar: thorn
Encoding: 254 254 106
Width: 557
VWidth: 0
Flags: HW
LayerCount: 2
Fore
SplineSet
210.75 126.5 m 1
 238.75 112.5 276.25 109.75 308.25 109 c 0
 344.5 109 366.5 129.5 366.5 255.5 c 0
 366.5 368.5 345.5 396.25 308.25 396.25 c 0
 268.75 395.25 233.75 386 210.75 367.25 c 1
 210.75 126.5 l 1
46.75 -270 m 1
 46.75 782 l 1
 210.75 782 l 1
 210.75 474 l 1
 246.5 503.5 296.5 532.5 357.75 532.5 c 0
 481 532.5 530.5 439 530.5 262.5 c 0
 530.5 103 504.25 -13.75 357.75 -13.75 c 0
 312.75 -13.75 253 -2.25 210.75 21.5 c 1
 210.75 -270 l 1
 46.75 -270 l 1
EndSplineSet
Substitution2: "'smcp' Lowercase to Small Capitals lookup 16-1" thorn.smcp
EndChar

StartChar: ugrave
Encoding: 249 249 107
Width: 552
VWidth: 0
Flags: HW
LayerCount: 2
Fore
SplineSet
108 736.5 m 1
 240.5 736.5 l 1
 325 596 l 1
 226 596 l 1
 108 736.5 l 1
33.5 183.5 m 2
 33.5 531 l 1
 197.5 531 l 1
 197.5 180.5 l 2
 197.5 132.5 215.5 117.5 244.75 117.5 c 0
 292.5 117.5 320.25 130 348.5 159.5 c 1
 348.5 531 l 1
 512.5 531 l 1
 512.5 0 l 1
 378 0 l 1
 348.5 54.5 l 1
 298.75 24 271 -9 190 -9 c 0
 60 -9 33.5 77.5 33.5 183.5 c 2
EndSplineSet
AlternateSubs2: "'salt' Access All Alternates in Latin lookup 4-1" ugrave.salt
Substitution2: "'smcp' Lowercase to Small Capitals lookup 16-1" ugrave.smcp
EndChar

StartChar: uacute
Encoding: 250 250 108
Width: 552
VWidth: 0
Flags: HW
LayerCount: 2
Fore
SplineSet
223.5 596 m 1
 308 736.5 l 1
 440.5 736.5 l 1
 322.5 596 l 1
 223.5 596 l 1
33.5 183.5 m 2
 33.5 531 l 1
 197.5 531 l 1
 197.5 180.5 l 2
 197.5 132.5 215.5 117.5 244.75 117.5 c 0
 292.5 117.5 320.25 130 348.5 159.5 c 1
 348.5 531 l 1
 512.5 531 l 1
 512.5 0 l 1
 378 0 l 1
 348.5 54.5 l 1
 298.75 24 271 -9 190 -9 c 0
 60 -9 33.5 77.5 33.5 183.5 c 2
EndSplineSet
AlternateSubs2: "'salt' Access All Alternates in Latin lookup 4-1" uacute.salt
Substitution2: "'smcp' Lowercase to Small Capitals lookup 16-1" uacute.smcp
EndChar

StartChar: ucircumflex
Encoding: 251 251 109
Width: 552
VWidth: 0
Flags: HW
LayerCount: 2
Fore
SplineSet
115.75 596 m 1
 220 733.5 l 1
 336 733.5 l 1
 430.25 596 l 1
 329.25 596 l 1
 274.75 652 l 1
 217.75 596 l 1
 115.75 596 l 1
33.5 183.5 m 2
 33.5 531 l 1
 197.5 531 l 1
 197.5 180.5 l 2
 197.5 132.5 215.5 117.5 244.75 117.5 c 0
 292.5 117.5 320.25 130 348.5 159.5 c 1
 348.5 531 l 1
 512.5 531 l 1
 512.5 0 l 1
 378 0 l 1
 348.5 54.5 l 1
 298.75 24 271 -9 190 -9 c 0
 60 -9 33.5 77.5 33.5 183.5 c 2
EndSplineSet
AlternateSubs2: "'salt' Access All Alternates in Latin lookup 4-1" ucircumflex.salt
Substitution2: "'smcp' Lowercase to Small Capitals lookup 16-1" ucircumflex.smcp
EndChar

StartChar: udieresis
Encoding: 252 252 110
Width: 552
VWidth: 0
Flags: HW
LayerCount: 2
Fore
SplineSet
338.75 658.25 m 0
 338.75 692.25 367 719.5 401 719.5 c 0
 435 719.5 462.25 692.25 462.25 658.25 c 0
 462.25 624.25 435 596 401 596 c 0
 367 596 338.75 624.25 338.75 658.25 c 0
83.75 658.25 m 0
 83.75 692.25 112 719.5 146 719.5 c 0
 180 719.5 207.25 692.25 207.25 658.25 c 0
 207.25 624.25 180 596 146 596 c 0
 112 596 83.75 624.25 83.75 658.25 c 0
33.5 183.5 m 2
 33.5 531 l 1
 197.5 531 l 1
 197.5 180.5 l 2
 197.5 132.5 215.5 117.5 244.75 117.5 c 0
 292.5 117.5 320.25 130 348.5 159.5 c 1
 348.5 531 l 1
 512.5 531 l 1
 512.5 0 l 1
 378 0 l 1
 348.5 54.5 l 1
 298.75 24 271 -9 190 -9 c 0
 60 -9 33.5 77.5 33.5 183.5 c 2
EndSplineSet
AlternateSubs2: "'salt' Access All Alternates in Latin lookup 4-1" udieresis.salt
Substitution2: "'smcp' Lowercase to Small Capitals lookup 16-1" udieresis.smcp
EndChar

StartChar: yacute
Encoding: 253 253 111
Width: 587
VWidth: 0
Flags: HW
LayerCount: 2
Fore
SplineSet
242.75 596 m 1
 327.25 736.5 l 1
 459.75 736.5 l 1
 341.75 596 l 1
 242.75 596 l 1
14.25 531 m 1
 185.25 531 l 1
 263.25 175.25 l 2
 272.25 137.75 300.25 137 312 136.25 c 1
 401.75 531 l 1
 570.25 531 l 1
 404.5 -168 l 1
 332.5 -270 l 1
 213 -270 l 1
 280.75 0 l 1
 187.75 0 132.25 50 109 144.5 c 2
 14.25 531 l 1
EndSplineSet
Substitution2: "'smcp' Lowercase to Small Capitals lookup 16-1" yacute.smcp
EndChar

StartChar: ydieresis
Encoding: 255 255 112
Width: 587
VWidth: 0
Flags: HW
LayerCount: 2
Fore
SplineSet
358 658.25 m 0
 358 692.25 386.25 719.5 420.25 719.5 c 0
 454.25 719.5 481.5 692.25 481.5 658.25 c 0
 481.5 624.25 454.25 596 420.25 596 c 0
 386.25 596 358 624.25 358 658.25 c 0
103 658.25 m 0
 103 692.25 131.25 719.5 165.25 719.5 c 0
 199.25 719.5 226.5 692.25 226.5 658.25 c 0
 226.5 624.25 199.25 596 165.25 596 c 0
 131.25 596 103 624.25 103 658.25 c 0
14.25 531 m 1
 185.25 531 l 1
 263.25 175.25 l 2
 272.25 137.75 300.25 137 312 136.25 c 1
 401.75 531 l 1
 570.25 531 l 1
 404.5 -168 l 1
 332.5 -270 l 1
 213 -270 l 1
 280.75 0 l 1
 187.75 0 132.25 50 109 144.5 c 2
 14.25 531 l 1
EndSplineSet
Substitution2: "'smcp' Lowercase to Small Capitals lookup 16-1" ydieresis.smcp
EndChar

StartChar: Thorn
Encoding: 222 222 113
Width: 542
VWidth: 0
Flags: HW
LayerCount: 2
Fore
SplineSet
204.5 290.5 m 1
 274 290.5 l 2
 326 290.25 345 298.75 345 373.25 c 0
 344.5 444.25 312.75 446.25 274 446.25 c 2
 204.5 446.25 l 1
 204.5 290.5 l 1
40.5 0 m 1
 40.5 243 40.5 486 40.5 729 c 1
 204.5 729 l 1
 204.5 588 l 1
 334 588 l 2
 413 587.75 510 554 510 375 c 0
 510 171 408 151.25 334 149 c 0
 286.25 147.5 268.75 146.25 204.5 168 c 1
 204.5 0 l 1
 40.5 0 l 1
EndSplineSet
Substitution2: "'c2sc' Capitals to Small Capitals in Latin lookup 17 subtable" thorn.smcp
EndChar

StartChar: uni00B5
Encoding: 181 181 114
Width: 586
VWidth: 0
Flags: HW
LayerCount: 2
Fore
SplineSet
60.75 183.5 m 1
 60.75 531 l 1
 224.75 531 l 1
 224.75 180.5 l 2
 224.75 132.5 242.75 117.5 272 117.5 c 0
 319.75 117.5 347.5 130 375.75 159.5 c 1
 375.75 531 l 1
 539.75 531 l 1
 539.75 0 l 1
 405.25 0 l 1
 375.75 54.5 l 1
 341 33 313.25 11.25 274.25 2.25 c 0
 257.75 -1.5 241.25 -2.25 224.75 -0.5 c 1
 224.75 -270 l 1
 60.75 -270 l 1
 60.75 183.5 l 1
EndSplineSet
EndChar

StartChar: germandbls
Encoding: 223 223 115
Width: 573
VWidth: 0
Flags: HW
LayerCount: 2
Fore
SplineSet
40.5 0 m 1
 40.5 566 l 2
 40.5 682 120 782.25 286 782.25 c 0
 570.5 782.25 583.25 562.5 484 437.75 c 1
 450.25 397.5 419 382 419 348 c 0
 419 299 560.5 291.5 560.5 171.5 c 2
 560.5 147 l 2
 560.75 22.25 474.5 -8 387.5 -8 c 0
 319.5 -8 282.5 1.75 248.25 11 c 1
 248.25 124.25 l 1
 282.25 121.25 312 118.5 339 118.5 c 0
 366.25 118.5 396 131 396.5 171 c 2
 396.5 187.25 l 2
 396.5 250.75 262.5 239.75 262.5 350.25 c 0
 262.5 414.25 288.75 441 339.25 485 c 1
 368.25 512 377.25 535.75 377.25 562.5 c 0
 377.25 623.5 339.5 635.5 293.5 635.5 c 0
 227.25 635.5 204.5 599.5 204.5 498.5 c 2
 204.5 0 l 1
 40.5 0 l 1
EndSplineSet
Substitution2: "'smcp' Lowercase to Small Capitals lookup 16-1" germandbls.smcp
EndChar

StartChar: asciitilde
Encoding: 126 126 116
Width: 412
VWidth: 0
Flags: HW
LayerCount: 2
Fore
SplineSet
33.5 591.5 m 1
 62.25 626.75 99.75 664 155 664 c 0
 199 664 221 629 261 629 c 1
 300.75 627.5 331 647.75 354 669 c 1
 379 603 l 1
 355.75 572 317.75 531 266.25 531 c 0
 222.75 531 191 566 152 566 c 0
 113 566 91.25 552.5 59 531 c 1
 33.5 591.5 l 1
EndSplineSet
EndChar

StartChar: asciicircum
Encoding: 94 94 117
Width: 381
VWidth: 0
Flags: HW
LayerCount: 2
Fore
SplineSet
33.5 531 m 1
 137.75 668.5 l 1
 253.75 668.5 l 1
 348 531 l 1
 247 531 l 1
 192.75 587 l 1
 135.5 531 l 1
 33.5 531 l 1
EndSplineSet
EndChar

StartChar: grave
Encoding: 96 96 118
Width: 243
VWidth: 0
Flags: HW
LayerCount: 2
Fore
SplineSet
13.25 671.5 m 1
 145.75 671.5 l 1
 230.25 531 l 1
 131.25 531 l 1
 13.25 671.5 l 1
EndSplineSet
Substitution2: "'smcp' Lowercase to Small Capitals lookup 16-1" grave.smcp
EndChar

StartChar: dieresis
Encoding: 168 168 119
Width: 445
VWidth: 0
Flags: HW
LayerCount: 2
Fore
SplineSet
288.5 582 m 0
 288.5 616 316.75 643.25 350.75 643.25 c 0
 384.75 643.25 412 616 412 582 c 0
 412 548 384.75 519.75 350.75 519.75 c 0
 316.75 519.75 288.5 548 288.5 582 c 0
33.5 582 m 0
 33.5 616 61.75 643.25 95.75 643.25 c 0
 129.75 643.25 157 616 157 582 c 0
 157 548 129.75 519.75 95.75 519.75 c 0
 61.75 519.75 33.5 548 33.5 582 c 0
EndSplineSet
Substitution2: "'smcp' Lowercase to Small Capitals lookup 16-1" dieresis.smcp
EndChar

StartChar: acute
Encoding: 180 180 120
Width: 243
VWidth: 0
Flags: HW
LayerCount: 2
Fore
SplineSet
13.25 531 m 1
 97.75 671.5 l 1
 230.25 671.5 l 1
 112.25 531 l 1
 13.25 531 l 1
EndSplineSet
Substitution2: "'smcp' Lowercase to Small Capitals lookup 16-1" acute.smcp
EndChar

StartChar: cedilla
Encoding: 184 184 121
Width: 241
VWidth: 0
Flags: HW
LayerCount: 2
Fore
SplineSet
33.5 -112 m 1
 74.5 -97 l 1
 102.5 -85 103.5 -75 103.5 -37 c 1
 208 -37 l 1
 208 -139 181 -180.5 92 -180.5 c 2
 33.5 -180.5 l 1
 33.5 -112 l 1
EndSplineSet
EndChar

StartChar: exclam
Encoding: 33 33 122
Width: 275
VWidth: 0
Flags: HW
LayerCount: 2
Fore
SplineSet
56.5 731 m 1
 216.75 731 l 1
 199.25 196 l 1
 71 196 l 1
 56.5 731 l 1
61 23 m 2
 61 125 l 2
 61 140 69 150 85 150 c 2
 185 150 l 2
 200 150 208 139 208 125 c 2
 208 23 l 2
 208 8 199 0 185 0 c 2
 85 0 l 2
 71 0 61 9 61 23 c 2
EndSplineSet
Substitution2: "'smcp' Lowercase to Small Capitals lookup 16-1" exclam.smcp
EndChar

StartChar: degree
Encoding: 176 176 123
Width: 270
VWidth: 0
Flags: HW
LayerCount: 2
Fore
SplineSet
94.75 632 m 0
 94.75 609.5 113 592.25 135.5 592.25 c 0
 158 592.25 175.25 609.5 175.25 632 c 0
 175.25 654.5 158 672.75 135.5 672.75 c 0
 113 672.75 94.75 654.5 94.75 632 c 0
33.5 632 m 0
 33.5 689 79.5 735 135.5 735 c 0
 191.5 735 236.5 689 236.5 632 c 0
 236.5 575 191.5 530 135.5 530 c 0
 79.5 530 33.5 575 33.5 632 c 0
EndSplineSet
Substitution2: "'smcp' Lowercase to Small Capitals lookup 16-1" degree.smcp
EndChar

StartChar: period
Encoding: 46 46 124
Width: 260
VWidth: 0
Flags: HW
HStem: 0 150<57.3965 204.12>
VStem: 57.25 147<0.104492 149.884>
LayerCount: 2
Fore
SplineSet
57.25 23 m 2
 57.25 125 l 2
 57.25 140 65.25 150 81.25 150 c 2
 179.25 150 l 2
 197.25 150 204.25 141 204.25 125 c 2
 204.25 23 l 2
 204.25 5 193.25 0 179.25 0 c 2
 81.25 0 l 2
 67.25 0 57.25 9 57.25 23 c 2
EndSplineSet
EndChar

StartChar: periodcentered
Encoding: 183 183 125
Width: 260
VWidth: 0
Flags: HW
LayerCount: 2
Fore
SplineSet
57.25 334.5 m 2
 57.25 436.5 l 2
 57.25 451.5 65.25 461.5 81.25 461.5 c 2
 179.25 461.5 l 2
 197.25 461.5 204.25 452.5 204.25 436.5 c 2
 204.25 334.5 l 2
 204.25 316.5 193.25 311.5 179.25 311.5 c 2
 81.25 311.5 l 2
 67.25 311.5 57.25 320.5 57.25 334.5 c 2
EndSplineSet
Substitution2: "'smcp' Lowercase to Small Capitals lookup 16-1" periodcentered.smcp
EndChar

StartChar: comma
Encoding: 44 44 126
Width: 258
VWidth: 0
Flags: HW
LayerCount: 2
Fore
SplineSet
57.25 25 m 2
 57.25 124 l 2
 57.25 142 66.25 151 82.25 151 c 2
 178.25 151 l 2
 196.25 151 202.25 139 202.25 124 c 2
 202.25 -11 l 2
 202.25 -127.75 62.25 -88 62.25 -88 c 1
 62.25 -33.5 l 1
 92.25 -34.5 93.25 -20.25 93.25 -10 c 2
 93.25 0 l 1
 82.25 0 l 2
 68.25 0 57.25 8 57.25 25 c 2
EndSplineSet
EndChar

StartChar: bullet
Encoding: 256 8226 127
Width: 308
VWidth: 0
Flags: HW
LayerCount: 2
Fore
SplineSet
57.25 314.75 m 2
 57.25 447.25 l 2
 57.25 468.25 68.25 482.25 90.25 482.25 c 2
 216.75 482.25 l 2
 241.75 482.25 251.75 469.25 251.75 447.25 c 2
 251.75 314.75 l 2
 251.75 290.75 236.75 282.75 216.75 282.75 c 2
 90.25 282.75 l 2
 70.25 282.75 57.25 294.75 57.25 314.75 c 2
EndSplineSet
Substitution2: "'smcp' Lowercase to Small Capitals lookup 16-1" bullet.smcp
EndChar

StartChar: quoteleft
Encoding: 257 8216 128
Width: 255
VWidth: 0
Flags: HW
LayerCount: 2
Fore
SplineSet
53.75 501.5 m 2
 53.75 646.25 l 2
 53.75 771.25 196 740 196 740 c 1
 196 677.25 l 1
 165.25 677.5 164.25 656 164.25 645.5 c 2
 164.25 627.25 l 1
 175.5 627.25 l 2
 189.75 627.25 201.25 619.25 201.25 601.75 c 2
 201.25 501.5 l 2
 201.25 483 192 473.75 175.5 473.75 c 2
 78.25 473.75 l 2
 59.75 473.75 53.75 486.25 53.75 501.5 c 2
EndSplineSet
Substitution2: "'smcp' Lowercase to Small Capitals lookup 16-1" quoteleft.smcp
EndChar

StartChar: quoteright
Encoding: 258 8217 129
Width: 255
VWidth: 0
Flags: HW
LayerCount: 2
Fore
SplineSet
53.75 615.5 m 2
 53.75 715.75 l 2
 53.75 734.25 63 743.5 79.5 743.5 c 2
 176.75 743.5 l 2
 195.25 743.5 201.25 731 201.25 715.75 c 2
 201.25 571 l 2
 201.25 446 59 477 59 477 c 1
 59 539.75 l 1
 89.75 539.5 90.75 561.25 90.75 571.75 c 2
 90.75 589.75 l 1
 79.5 589.75 l 2
 65.25 589.75 53.75 598 53.75 615.5 c 2
EndSplineSet
Substitution2: "'smcp' Lowercase to Small Capitals lookup 16-1" quoteright.smcp
EndChar

StartChar: quotesinglbase
Encoding: 259 8218 130
Width: 255
VWidth: 0
Flags: HW
LayerCount: 2
Fore
SplineSet
53.75 25.5 m 2
 53.75 125.75 l 2
 53.75 144.25 63 153.5 79.5 153.5 c 2
 176.75 153.5 l 2
 195.25 153.5 201.25 141 201.25 125.75 c 2
 201.25 -19 l 2
 201.25 -144.25 59 -113 59 -113 c 1
 59 -50.25 l 1
 89.75 -50.5 90.75 -28.75 90.75 -18.25 c 2
 90.75 -0.25 l 1
 79.5 -0.25 l 2
 65.25 -0.25 53.75 8 53.75 25.5 c 2
EndSplineSet
Substitution2: "'smcp' Lowercase to Small Capitals lookup 16-1" quotesinglbase.smcp
EndChar

StartChar: quotedblleft
Encoding: 260 8220 131
Width: 428
VWidth: 0
Flags: HW
LayerCount: 2
Fore
SplineSet
49 500 m 2
 49 644.75 l 2
 49 769.75 191.25 738.5 191.25 738.5 c 1
 191.25 675.75 l 1
 160.5 676 159.5 654.5 159.5 644 c 2
 159.5 626 l 1
 170.75 626 l 2
 185 626 196.5 617.75 196.5 600.25 c 2
 196.5 500 l 2
 196.5 481.5 187.25 472.25 170.75 472.25 c 2
 73.5 472.25 l 2
 55 472.25 49 484.75 49 500 c 2
232.75 500 m 2
 232.75 644.75 l 2
 232.75 769.75 375.25 738.5 375.25 738.5 c 1
 375.25 675.75 l 1
 344.5 676 343.25 654.5 343.25 644 c 2
 343.25 626 l 1
 354.75 626 l 2
 369 626 380.25 617.75 380.25 600.25 c 2
 380.25 500 l 2
 380.25 481.5 371.25 472.25 354.75 472.25 c 2
 257.5 472.25 l 2
 239 472.25 232.75 484.75 232.75 500 c 2
EndSplineSet
Substitution2: "'smcp' Lowercase to Small Capitals lookup 16-1" quotedblleft.smcp
EndChar

StartChar: quotedblright
Encoding: 261 8221 132
Width: 428
VWidth: 0
Flags: HW
LayerCount: 2
Fore
SplineSet
232.75 614 m 2
 232.75 714.25 l 2
 232.75 732.75 242 742 258.5 742 c 2
 355.75 742 l 2
 374.25 742 380.25 729.5 380.25 714.25 c 2
 380.25 569.5 l 2
 380.25 444.5 238 475.5 238 475.5 c 1
 238 538.25 l 1
 268.75 538 269.75 559.75 269.75 570.25 c 2
 269.75 588.25 l 1
 258.5 588.25 l 2
 244.25 588.25 232.75 596.5 232.75 614 c 2
49 614 m 2
 49 714.25 l 2
 49 732.75 58 742 74.5 742 c 2
 171.75 742 l 2
 190.25 742 196.5 729.5 196.5 714.25 c 2
 196.5 569.5 l 2
 196.5 444.5 54 475.5 54 475.5 c 1
 54 538.25 l 1
 84.75 538 85.75 559.75 85.75 570.25 c 2
 85.75 588.25 l 1
 74.5 588.25 l 2
 60.25 588.25 49 596.5 49 614 c 2
EndSplineSet
Substitution2: "'smcp' Lowercase to Small Capitals lookup 16-1" quotedblright.smcp
EndChar

StartChar: quotedblbase
Encoding: 262 8222 133
Width: 428
VWidth: 0
Flags: HW
LayerCount: 2
Fore
SplineSet
232.75 25.5 m 2
 232.75 125.75 l 2
 232.75 144.25 242 153.5 258.5 153.5 c 2
 355.75 153.5 l 2
 374.25 153.5 380.25 141 380.25 125.75 c 2
 380.25 -19 l 2
 380.25 -144.25 238 -113 238 -113 c 1
 238 -50.25 l 1
 268.75 -50.5 269.75 -28.75 269.75 -18.25 c 2
 269.75 -0.25 l 1
 258.5 -0.25 l 2
 244.25 -0.25 232.75 8 232.75 25.5 c 2
49 25.5 m 2
 49 125.75 l 2
 49 144.25 58 153.5 74.5 153.5 c 2
 171.75 153.5 l 2
 190.25 153.5 196.5 141 196.5 125.75 c 2
 196.5 -19 l 2
 196.5 -144.25 54 -113 54 -113 c 1
 54 -50.25 l 1
 84.75 -50.5 85.75 -28.75 85.75 -18.25 c 2
 85.75 -0.25 l 1
 74.5 -0.25 l 2
 60.25 -0.25 49 8 49 25.5 c 2
EndSplineSet
Substitution2: "'smcp' Lowercase to Small Capitals lookup 16-1" quotedblbase.smcp
EndChar

StartChar: colon
Encoding: 58 58 134
Width: 260
VWidth: 0
Flags: HW
HStem: 0 150<57.3965 204.12> 381.25 150<57.3965 204.12>
VStem: 57.25 147<0.104492 149.884 381.354 531.134>
LayerCount: 2
Fore
SplineSet
57.25 404.25 m 2
 57.25 506.25 l 2
 57.25 521.25 65.25 531.25 81.25 531.25 c 2
 179.25 531.25 l 2
 197.25 531.25 204.25 522.25 204.25 506.25 c 2
 204.25 404.25 l 2
 204.25 386.25 193.25 381.25 179.25 381.25 c 2
 81.25 381.25 l 2
 67.25 381.25 57.25 390.25 57.25 404.25 c 2
57.25 23 m 2
 57.25 125 l 2
 57.25 140 65.25 150 81.25 150 c 2
 179.25 150 l 2
 197.25 150 204.25 141 204.25 125 c 2
 204.25 23 l 2
 204.25 5 193.25 0 179.25 0 c 2
 81.25 0 l 2
 67.25 0 57.25 9 57.25 23 c 2
EndSplineSet
EndChar

StartChar: semicolon
Encoding: 59 59 135
Width: 261
VWidth: 0
Flags: HW
LayerCount: 2
Fore
SplineSet
57.75 404.5 m 2
 57.75 506.5 l 2
 57.75 521.5 65.75 531.5 81.75 531.5 c 2
 179.75 531.5 l 2
 197.75 531.5 204.75 522.5 204.75 506.5 c 2
 204.75 404.5 l 2
 204.75 386.5 193.75 381.5 179.75 381.5 c 2
 81.75 381.5 l 2
 67.75 381.5 57.75 390.5 57.75 404.5 c 2
57.25 25 m 2
 57.25 124 l 2
 57.25 141 66.5 151 82.25 151 c 2
 178.25 151 l 2
 195.5 151 202.25 139 202.25 124 c 2
 202.25 -11 l 2
 202.25 -127.75 62.25 -88 62.25 -88 c 1
 62.25 -33.5 l 1
 92.25 -34.5 93.25 -20.25 93.25 -10 c 2
 93.25 0 l 1
 82.25 0 l 2
 68.25 0 57.25 9.25 57.25 25 c 2
EndSplineSet
EndChar

StartChar: quotedbl
Encoding: 34 34 136
Width: 467
VWidth: 0
Flags: HW
LayerCount: 2
Fore
SplineSet
254.5 665 m 1
 254.5 732 l 1
 411.25 732 l 1
 411.25 665 l 1
 401.25 531 l 1
 264.75 531 l 1
 254.5 665 l 1
57.25 665 m 1
 57.25 732 l 1
 214 732 l 1
 214 665 l 1
 204 531 l 1
 69 531 l 1
 57.25 665 l 1
EndSplineSet
Substitution2: "'smcp' Lowercase to Small Capitals lookup 16-1" quotedbl.smcp
EndChar

StartChar: exclamdown.alt
Encoding: 263 -1 137
Width: 275
VWidth: 0
Flags: HW
LayerCount: 2
Fore
SplineSet
56.75 0 m 1
 74.25 535 l 1
 202.5 535 l 1
 217 0 l 1
 56.75 0 l 1
65.5 606 m 2
 65.5 708 l 2
 65.5 723 74.5 731 88.5 731 c 2
 188.5 731 l 2
 202.5 731 212.5 722 212.5 708 c 2
 212.5 606 l 2
 212.5 591 204.5 581 188.5 581 c 2
 88.5 581 l 2
 73.5 581 65.5 592 65.5 606 c 2
EndSplineSet
EndChar

StartChar: zero
Encoding: 48 48 138
Width: 626
VWidth: 0
Flags: HW
HStem: 0 149<223.489 403.844> 583 149<224.371 404.973>
VStem: 46.75 164<162.653 568.131> 415.75 164<162.817 570.521>
LayerCount: 2
Fore
SplineSet
210.75 215.25 m 2
 210.75 156.5 249.5 149 278 149 c 2
 350.5 149 l 2
 391.25 149 415.75 160.5 415.75 214.5 c 2
 415.75 517.5 l 2
 415.75 563.5 395.25 583 356.5 583 c 2
 272.75 583 l 2
 216.25 583 210.75 539.25 210.75 517.5 c 2
 210.75 215.25 l 2
46.75 184.5 m 2
 46.75 540 l 2
 46.75 664.5 117.75 732 235.25 732 c 2
 399.25 732 l 2
 538.5 732 579.75 647 579.75 547.5 c 2
 579.75 184.5 l 2
 579.75 65.5 513.25 0 398.5 0 c 2
 234.5 0 l 2
 114.25 0 46.75 64.5 46.75 184.5 c 2
EndSplineSet
Substitution2: "'dnom' Denominators lookup 0 subtable" zero.denominator
Substitution2: "'sups' Superscript lookup 2 subtable" zerosuperior
Substitution2: "'onum' Oldstyle Figures in Latin lookup 5-1" zero.oldstyle
Substitution2: "'tnum' Tabular Numbers in Latin lookup 7-1" zero.tnum
Substitution2: "'numr' Numerators lookup 9 subtable" zero.numerator
Substitution2: "'zero' Slashed Zero lookup 20-1" uni0338
Substitution2: "'sinf' Scientific Inferiors lookup 3-1" zeroinferior
Substitution2: "'frac' Diagonal Fractions lookup 13-1" zero.numerator
Substitution2: "'smcp' Lowercase to Small Capitals lookup 16-1" zero.smcp
EndChar

StartChar: one
Encoding: 49 49 139
Width: 374
VWidth: 0
Flags: HW
HStem: 0 21G<157 321> 0 21G<157 321> 712 20G<126.305 321>
VStem: 157 164<0 573>
LayerCount: 2
Fore
SplineSet
26.5 544.5 m 1
 26.5 650 l 1
 158.5 732 l 1
 321 732 l 1
 321 0 l 1
 157 0 l 1
 157 573 l 1
 26.5 544.5 l 1
EndSplineSet
Substitution2: "'dnom' Denominators lookup 0 subtable" one.denominator
Substitution2: "'sups' Superscript lookup 2 subtable" onesuperior
Substitution2: "'onum' Oldstyle Figures in Latin lookup 5-1" one.oldstyle
Substitution2: "'tnum' Tabular Numbers in Latin lookup 7-1" one.tnum
Substitution2: "'numr' Numerators lookup 9 subtable" one.numerator
Substitution2: "'sinf' Scientific Inferiors lookup 3-1" oneinferior
Substitution2: "'frac' Diagonal Fractions lookup 13-1" one.numerator
Substitution2: "'smcp' Lowercase to Small Capitals lookup 16-1" one.smcp
EndChar

StartChar: two
Encoding: 50 50 140
Width: 585
VWidth: 0
Flags: HW
HStem: 0 149<305.5 552.25> 592 150<58.9731 363.966> 592 122.5<26.5 178.578>
VStem: 388 164.25<450.672 568.45>
LayerCount: 2
Fore
SplineSet
26.5 592 m 1
 26.5 714.5 l 1
 113.5 731.25 194.75 742 330.5 742 c 0
 483.75 742 552.25 640 552.25 509.5 c 0
 552.25 357 370 203.25 305.5 149 c 1
 552.25 149 l 1
 552.25 0 l 1
 34.25 0 l 1
 34.25 143 l 1
 122.25 202 388 410 388 507.75 c 0
 388 571.75 354 592 270.25 592 c 2
 26.5 592 l 1
EndSplineSet
Substitution2: "'dnom' Denominators lookup 0 subtable" two.denominator
Substitution2: "'sups' Superscript lookup 2 subtable" twosuperior
Substitution2: "'onum' Oldstyle Figures in Latin lookup 5-1" two.oldstyle
Substitution2: "'tnum' Tabular Numbers in Latin lookup 7-1" two.tnum
Substitution2: "'numr' Numerators lookup 9 subtable" two.numerator
Substitution2: "'sinf' Scientific Inferiors lookup 3-1" twoinferior
Substitution2: "'frac' Diagonal Fractions lookup 13-1" two.numerator
Substitution2: "'smcp' Lowercase to Small Capitals lookup 16-1" two.smcp
EndChar

StartChar: three
Encoding: 51 51 141
Width: 579
VWidth: 0
Flags: HW
HStem: -7 150<47.2779 355.558> 21 122<27.25 128.961> 288.5 150<143.15 352.016> 585 149<41.4529 350.88> 585 121<20.25 121.059>
VStem: 367.75 162.5<154.499 271.171 454.318 569.477>
LayerCount: 2
Fore
SplineSet
20.25 585 m 1
 20.25 706 l 1
 108.25 737 228.75 736 345.75 734 c 0
 455.75 732 530.25 666.25 530.25 554 c 2
 530.25 507.5 l 2
 530.25 434.5 506.5 384.5 450.75 364 c 1
 508.25 342.5 530.25 288.5 530.25 212.5 c 2
 530.25 176 l 2
 530.25 58 460.75 -7 338.75 -7 c 0
 224.75 -7 114.25 -10 26.25 21 c 1
 27.25 143 l 1
 265.25 143 l 2
 337 143 365.75 146 365.75 202.25 c 2
 365.75 223.75 l 2
 365.75 277.75 332.75 285.75 271.25 288.5 c 2
 88.25 295.5 l 1
 88.25 428.5 l 1
 271.25 438.5 l 2
 340.25 441.5 367.75 450.25 367.75 500 c 2
 367.75 524 l 2
 367.75 578.5 323.25 585 271.25 585 c 2
 20.25 585 l 1
EndSplineSet
Substitution2: "'dnom' Denominators lookup 0 subtable" three.denominator
Substitution2: "'sups' Superscript lookup 2 subtable" threesuperior
Substitution2: "'onum' Oldstyle Figures in Latin lookup 5-1" three.oldstyle
Substitution2: "'tnum' Tabular Numbers in Latin lookup 7-1" three.tnum
Substitution2: "'numr' Numerators lookup 9 subtable" three.numerator
Substitution2: "'sinf' Scientific Inferiors lookup 3-1" threeinferior
Substitution2: "'frac' Diagonal Fractions lookup 13-1" three.numerator
Substitution2: "'smcp' Lowercase to Small Capitals lookup 16-1" three.smcp
EndChar

StartChar: four
Encoding: 52 52 142
Width: 627
VWidth: 0
Flags: HW
HStem: 149.5 153<238.5 382.25> 512 20G<404.112 546.25> 712 20G<242.36 429.75>
VStem: 382.25 164<2 149.5 302.5 454.75>
LayerCount: 2
Fore
SplineSet
13.25 224 m 1
 251.75 732 l 1
 429.75 732 l 1
 238.5 302.5 l 1
 382.25 302.5 l 1
 382.25 454.75 l 1
 411.75 532 l 1
 546.25 532 l 1
 546.25 302.5 l 1
 613.75 302.5 l 1
 613.75 176 l 1
 546.25 149.5 l 1
 546.25 2 l 1
 382.25 2 l 1
 382.25 149.5 l 1
 47.25 149.5 l 1
 13.25 224 l 1
EndSplineSet
Substitution2: "'dnom' Denominators lookup 0 subtable" four.denominator
Substitution2: "'sups' Superscript lookup 2 subtable" foursuperior
Substitution2: "'onum' Oldstyle Figures in Latin lookup 5-1" four.oldstyle
Substitution2: "'tnum' Tabular Numbers in Latin lookup 7-1" four.tnum
Substitution2: "'numr' Numerators lookup 9 subtable" four.numerator
Substitution2: "'sinf' Scientific Inferiors lookup 3-1" fourinferior
Substitution2: "'frac' Diagonal Fractions lookup 13-1" four.numerator
Substitution2: "'smcp' Lowercase to Small Capitals lookup 16-1" four.smcp
EndChar

StartChar: five
Encoding: 53 53 143
Width: 594
VWidth: 0
Flags: HW
HStem: -4 154<63.5813 379.587> 20 130<51.25 232.117> 327 141.5<228.331 383.261> 583 149<233.25 527.25>
VStem: 392 164<162.317 317.58>
LayerCount: 2
Fore
SplineSet
51.25 20 m 1
 51.25 150 l 1
 325.25 150 l 2
 389 150 392 187 392 213 c 2
 392 263.75 l 2
 392 296.75 384.25 327 333.5 327 c 2
 262 327 l 2
 228.25 327 208.5 311.25 208.5 274.5 c 1
 52.5 274.5 l 1
 74.5 732 l 1
 527.25 732 l 1
 527.25 583 l 1
 233.25 583 l 1
 227.25 446 l 1
 250.25 462.25 276.75 466.75 294.5 468.5 c 0
 327.5 471.75 371.5 469.25 389 468.5 c 0
 505.5 461 556 383.75 556 280 c 2
 556 181 l 2
 556 44 451.75 -4 362.75 -4 c 0
 238.75 -4 185.25 -3 51.25 20 c 1
EndSplineSet
Substitution2: "'dnom' Denominators lookup 0 subtable" five.denominator
Substitution2: "'sups' Superscript lookup 2 subtable" fivesuperior
Substitution2: "'onum' Oldstyle Figures in Latin lookup 5-1" five.oldstyle
Substitution2: "'tnum' Tabular Numbers in Latin lookup 7-1" five.tnum
Substitution2: "'numr' Numerators lookup 9 subtable" five.numerator
Substitution2: "'sinf' Scientific Inferiors lookup 3-1" fiveinferior
Substitution2: "'frac' Diagonal Fractions lookup 13-1" five.numerator
Substitution2: "'smcp' Lowercase to Small Capitals lookup 16-1" five.smcp
EndChar

StartChar: six
Encoding: 54 54 144
Width: 603
VWidth: 0
Flags: HW
HStem: -1 149<236.688 391.248> 309 141.5<210.298 395.146> 589 124.75<375.444 540.5>
VStem: 44 164<181.603 309 429.5 549.047> 400.75 163.75<153.372 303.808>
LayerCount: 2
Fore
SplineSet
208 309 m 1
 208 206 220.25 148 296.5 148 c 2
 346.5 148 l 2
 384 148 400.75 157.25 400.75 202.75 c 2
 400.75 249 l 2
 400.75 296.5 389.5 309 350.25 309 c 2
 208 309 l 1
44 384 m 0
 44 649 128.5 723.75 216 734.25 c 0
 316.25 746.25 447 732 540.5 713.75 c 1
 540.5 589 l 1
 304 589 l 2
 213 589 208.5 505.25 208 429.5 c 1
 257 446.25 307 450.5 388.5 450.5 c 0
 532 450.5 564.5 372.75 564.5 271.5 c 2
 564.5 170.5 l 2
 564.5 45 491.5 -1 381 -1 c 2
 240.25 -1 l 2
 121.5 -0.75 44 69 44 384 c 0
EndSplineSet
Substitution2: "'dnom' Denominators lookup 0 subtable" six.denominator
Substitution2: "'sups' Superscript lookup 2 subtable" sixsuperior
Substitution2: "'onum' Oldstyle Figures in Latin lookup 5-1" six.oldstyle
Substitution2: "'tnum' Tabular Numbers in Latin lookup 7-1" six.tnum
Substitution2: "'numr' Numerators lookup 9 subtable" six.numerator
Substitution2: "'sinf' Scientific Inferiors lookup 3-1" sixinferior
Substitution2: "'frac' Diagonal Fractions lookup 13-1" six.numerator
Substitution2: "'smcp' Lowercase to Small Capitals lookup 16-1" six.smcp
EndChar

StartChar: seven
Encoding: 55 55 145
Width: 557
VWidth: 0
Flags: HW
HStem: 0 21G<123.25 306.946> 0 21G<123.25 306.946> 583 149<20.25 336.25>
DStem2: 123.25 0 299.75 0 0.338543 0.940951<59.7529 620.684>
LayerCount: 2
Fore
SplineSet
20.25 583 m 1
 20.25 732 l 1
 495.75 732 l 1
 537.75 661.5 l 1
 299.75 0 l 1
 123.25 0 l 1
 336.25 583 l 1
 20.25 583 l 1
EndSplineSet
Substitution2: "'dnom' Denominators lookup 0 subtable" seven.denominator
Substitution2: "'sups' Superscript lookup 2 subtable" sevensuperior
Substitution2: "'onum' Oldstyle Figures in Latin lookup 5-1" seven.oldstyle
Substitution2: "'tnum' Tabular Numbers in Latin lookup 7-1" seven.tnum
Substitution2: "'numr' Numerators lookup 9 subtable" seven.numerator
Substitution2: "'sinf' Scientific Inferiors lookup 3-1" seveninferior
Substitution2: "'frac' Diagonal Fractions lookup 13-1" seven.numerator
Substitution2: "'smcp' Lowercase to Small Capitals lookup 16-1" seven.smcp
EndChar

StartChar: percent
Encoding: 37 37 146
Width: 964
VWidth: 0
Flags: HW
LayerCount: 2
Fore
SplineSet
675 157.75 m 2
 675 129 681.75 112.75 718.25 112.75 c 2
 781 112.75 l 2
 821 112.75 827 130 827 157.75 c 2
 827 230.75 l 2
 827 267.75 813.5 275.75 783 275.75 c 2
 720.25 275.75 l 2
 689.25 275.75 675 267.5 675 230.75 c 2
 675 157.75 l 2
565 135.25 m 2
 565 253.25 l 2
 565 338.25 599.75 385.75 700.75 385.75 c 2
 802.5 385.75 l 2
 900.5 385.75 937 338.25 937 253.25 c 2
 937 135.25 l 2
 937 50.25 901.5 2.75 800.5 2.75 c 2
 698.75 2.75 l 2
 600.75 2.75 565 50.25 565 135.25 c 2
200.75 0 m 1
 650.75 732 l 1
 761.5 732 l 1
 316.75 0 l 1
 200.75 0 l 1
138.5 504 m 2
 138.5 475.25 145.25 459 181.75 459 c 2
 245.25 459 l 2
 285.25 459 290.5 476.25 290.5 504 c 2
 290.5 577 l 2
 290.5 614 277.75 622 247.25 622 c 2
 183.75 622 l 2
 152.75 622 138.5 613.75 138.5 577 c 2
 138.5 504 l 2
28.5 481.5 m 2
 28.5 599.5 l 2
 28.5 684.5 64 732 165 732 c 2
 266 732 l 2
 364 732 400.5 684.5 400.5 599.5 c 2
 400.5 481.5 l 2
 400.5 396.5 365 349 264 349 c 2
 163 349 l 2
 65 349 28.5 396.5 28.5 481.5 c 2
EndSplineSet
Substitution2: "'smcp' Lowercase to Small Capitals lookup 16-1" percent.smcp
EndChar

StartChar: nine
Encoding: 57 57 147
Width: 603
VWidth: 0
Flags: HW
HStem: 19.5 124.75<64.5 218.114> 282.75 141.5<209.854 394.702> 585.25 149<213.752 368.312>
VStem: 40.5 163.75<429.442 579.878> 397 164<184.203 303.75 424.25 551.647>
LayerCount: 2
Fore
SplineSet
204.25 484.25 m 2
 204.25 436.75 215.5 424.25 254.75 424.25 c 2
 397 424.25 l 1
 397 527.25 384.75 585.25 308.5 585.25 c 2
 258.5 585.25 l 2
 221 585.25 204.25 576 204.25 530.5 c 2
 204.25 484.25 l 2
40.5 461.75 m 2
 40.5 562.75 l 2
 40.5 688.25 113.5 734.25 224 734.25 c 2
 364.75 734.25 l 2
 483.5 734 561 664.25 561 349.25 c 0
 561 84.25 476.5 9.5 389 -1 c 0
 288.75 -13 156 0 64.5 19.5 c 1
 64.5 144.25 l 1
 301 144.25 l 2
 392 144.25 396.5 228 397 303.75 c 1
 348 287 298 282.75 216.5 282.75 c 0
 73 282.75 40.5 360.5 40.5 461.75 c 2
EndSplineSet
Substitution2: "'dnom' Denominators lookup 0 subtable" nine.denominator
Substitution2: "'sups' Superscript lookup 2 subtable" ninesuperior
Substitution2: "'onum' Oldstyle Figures in Latin lookup 5-1" nine.oldstyle
Substitution2: "'tnum' Tabular Numbers in Latin lookup 7-1" nine.tnum
Substitution2: "'numr' Numerators lookup 9 subtable" nine.numerator
Substitution2: "'sinf' Scientific Inferiors lookup 3-1" nineinferior
Substitution2: "'frac' Diagonal Fractions lookup 13-1" nine.numerator
Substitution2: "'smcp' Lowercase to Small Capitals lookup 16-1" nine.smcp
EndChar

StartChar: eight
Encoding: 56 56 148
Width: 621
VWidth: 0
Flags: HW
HStem: 0 141.5<224.381 397.91> 307 133<221.891 399.636> 595.5 141.5<222.131 399.725>
VStem: 50.25 164<148.603 299.458 447.922 588.767> 407.75 164<149.757 296.926 446.18 586.089>
LayerCount: 2
Fore
SplineSet
214.25 494 m 2
 214.25 448 238.25 440 272.25 440 c 2
 351 440 l 2
 402.25 440 407.75 462.5 407.75 494 c 2
 407.75 533.5 l 2
 407.75 588 383.25 595.5 350.5 595.5 c 2
 275 595.5 l 2
 236.5 595.5 214.25 590.5 214.25 533.5 c 2
 214.25 494 l 2
214.25 195.25 m 2
 214.25 156.75 230.5 141.5 275 141.5 c 2
 350.25 141.5 l 2
 394 141.5 407.75 161 407.75 195.25 c 2
 407.75 251.5 l 2
 407.75 285.25 392.75 307 352.5 307 c 2
 272.25 307 l 2
 229.25 307 214.25 287.25 214.25 251.5 c 2
 214.25 195.25 l 2
50.25 172.75 m 2
 50.25 237 l 2
 50.25 293 75 341.5 127 351.5 c 1
 55.5 384.75 50.25 440 50.25 499 c 2
 50.25 564 l 2
 50.25 702.5 138.25 737 241.25 737 c 2
 394.75 737 l 2
 510 737 571.75 690 571.75 563.25 c 2
 571.75 514 l 2
 572 488.25 563.5 408.5 496.75 398 c 1
 562 385.75 572 301.75 571.75 258.75 c 2
 571.75 177.25 l 2
 571.75 22.5 482.5 0 393.75 0 c 2
 241.25 0 l 2
 55.75 0 50.25 114.5 50.25 172.75 c 2
EndSplineSet
Substitution2: "'dnom' Denominators lookup 0 subtable" eight.denominator
Substitution2: "'sups' Superscript lookup 2 subtable" eightsuperior
Substitution2: "'onum' Oldstyle Figures in Latin lookup 5-1" eight.oldstyle
Substitution2: "'tnum' Tabular Numbers in Latin lookup 7-1" eight.tnum
Substitution2: "'numr' Numerators lookup 9 subtable" eight.numerator
Substitution2: "'sinf' Scientific Inferiors lookup 3-1" eightinferior
Substitution2: "'frac' Diagonal Fractions lookup 13-1" eight.numerator
Substitution2: "'smcp' Lowercase to Small Capitals lookup 16-1" eight.smcp
EndChar

StartChar: quotesingle
Encoding: 39 39 149
Width: 238
VWidth: 0
Flags: HW
LayerCount: 2
Fore
SplineSet
37 665 m 1
 37 732 l 1
 202 732 l 1
 202 665 l 1
 192 531 l 1
 48 531 l 1
 37 665 l 1
EndSplineSet
Substitution2: "'smcp' Lowercase to Small Capitals lookup 16-1" quotesingle.smcp
EndChar

StartChar: onesuperior
Encoding: 185 185 150
Width: 270
VWidth: 112
Flags: HW
LayerCount: 2
Fore
SplineSet
10.75 724.75 m 1
 10.75 797 l 1
 103.5 852 l 1
 227 852 l 1
 227 367.75 l 1
 102 367.75 l 1
 102 743.25 l 1
 10.75 724.75 l 1
EndSplineSet
EndChar

StartChar: twosuperior
Encoding: 178 178 151
Width: 405
VWidth: 112
Flags: HW
LayerCount: 2
Fore
SplineSet
20.75 745 m 2
 20.25 745 20.75 838.5 20.75 838.5 c 1
 80 850.25 132.5 858.75 225.5 858.75 c 0
 331.75 858.75 377.25 796.25 377.25 710 c 0
 377.25 612.75 259 517.25 214 481.5 c 1
 377 481.5 l 1
 377 367.75 l 1
 24.5 367.75 l 1
 24.5 476.75 l 1
 81.75 514.25 251.5 634.5 251.5 695.75 c 0
 251.5 736 229.75 745 174.75 745 c 2
 20.75 745 l 2
EndSplineSet
EndChar

StartChar: threesuperior
Encoding: 179 179 152
Width: 409
VWidth: 112
Flags: HW
LayerCount: 2
Fore
SplineSet
20.25 740.25 m 1
 20.25 832.75 l 1
 80.25 855 160.25 855.25 240.75 853.75 c 0
 320.25 853 370 805.75 370 731.5 c 2
 370 703.25 l 2
 370 654.75 351.5 622.25 310.5 608.5 c 1
 352.5 594.5 370 558.25 370 507.75 c 2
 370 486.5 l 2
 370 408 324.25 363 235.75 363 c 0
 157.25 363 84.25 361 24.25 383.25 c 1
 25.25 476.5 l 1
 33.25 476.5 178.25 476.75 178.25 476.75 c 2
 230.75 476.75 245 481 245 508.5 c 2
 245 517.25 l 2
 245 545.75 223.25 551.5 182.25 552.5 c 2
 65.75 557.5 l 1
 65.75 658.5 l 1
 182.25 665.5 l 1
 228 666.75 246.75 672.25 246.75 698.75 c 2
 246.75 707.25 l 2
 246.75 735.75 219.75 740.25 182.25 740.25 c 2
 20.25 740.25 l 1
EndSplineSet
EndChar

StartChar: ordmasculine
Encoding: 186 186 153
Width: 396
VWidth: 0
Flags: HW
LayerCount: 2
Fore
SplineSet
145.25 550.75 m 0
 145.25 477.75 158.5 471 198.25 471 c 0
 240.5 471 251 475 251.5 550.75 c 0
 252 630.25 242.75 639 198.25 639 c 0
 153.75 639 145.25 628.5 145.25 550.75 c 0
34.25 261.25 m 1
 34.25 334.25 l 1
 362.25 334.25 l 1
 362.25 261.25 l 1
 34.25 261.25 l 1
20.25 550 m 0
 20.25 693.5 65.25 735.5 198.25 735.5 c 0
 332 735.5 376.5 690.5 376.5 550 c 0
 376.5 419.75 335 374.5 198.25 374.5 c 0
 63.75 374.5 20.25 423.5 20.25 550 c 0
EndSplineSet
Ligature2: "'ordn' Ordinals lookup 21-1" o
Substitution2: "'smcp' Lowercase to Small Capitals lookup 16-1" ordmasculine.smcp
EndChar

StartChar: ordfeminine
Encoding: 170 170 154
Width: 367
VWidth: 0
Flags: HW
LayerCount: 2
Fore
SplineSet
136.25 488 m 2
 136.25 462.5 152 461.5 168.25 461.5 c 0
 205.75 461.5 222 484.5 222 484.5 c 1
 222 533 l 1
 161.5 528.25 l 2
 137 526 136.25 510.25 136.25 497.75 c 2
 136.25 488 l 2
20.25 467.5 m 2
 20.25 498.5 l 2
 20.25 548 47.75 595.25 135.25 595.25 c 2
 135.25 595.25 222 594.25 222 595.25 c 2
 222 595.25 223 605.25 222 606.25 c 1
 222 641 205 643.5 174.5 643.5 c 0
 100.25 643.5 50.5 635.75 32.25 635 c 1
 32.25 710 l 1
 81.5 730.75 124 738 193 738.25 c 0
 287.25 738.5 347 713.5 347 621 c 2
 347 378 l 1
 250 378 l 1
 222.25 421 l 1
 217.25 409 181.5 372.5 130 374 c 0
 51.75 376.25 20.25 426 20.25 467.5 c 2
20.25 260.5 m 1
 20.25 333.5 l 1
 347.5 333.5 l 1
 347.5 260.5 l 1
 20.25 260.5 l 1
EndSplineSet
Ligature2: "'ordn' Ordinals lookup 21-1" a
Substitution2: "'smcp' Lowercase to Small Capitals lookup 16-1" ordfeminine.smcp
EndChar

StartChar: slash
Encoding: 47 47 155
Width: 476
VWidth: 0
Flags: HW
LayerCount: 2
Fore
SplineSet
13.25 -72 m 1
 294.25 770 l 1
 463.25 770 l 1
 182.25 -72 l 1
 13.25 -72 l 1
EndSplineSet
Substitution2: "'numr' Numerators lookup 9 subtable" fraction
Substitution2: "'frac' Diagonal Fractions lookup 12-1" fraction
EndChar

StartChar: backslash
Encoding: 92 92 156
Width: 476
VWidth: 0
Flags: HW
LayerCount: 2
Fore
SplineSet
13.25 770 m 1
 182.25 770 l 1
 463.25 -72 l 1
 294.25 -72 l 1
 13.25 770 l 1
EndSplineSet
EndChar

StartChar: bar
Encoding: 124 124 157
Width: 248
VWidth: 0
Flags: HW
LayerCount: 2
Fore
SplineSet
57.5 -72 m 1
 57.5 770 l 1
 191.5 770 l 1
 191.5 -72 l 1
 57.5 -72 l 1
EndSplineSet
EndChar

StartChar: underscore
Encoding: 95 95 158
Width: 674
VWidth: 0
Flags: HW
LayerCount: 2
Fore
SplineSet
20 -1 m 1
 20 133 l 1
 654 133 l 1
 654 -1 l 1
 20 -1 l 1
EndSplineSet
EndChar

StartChar: hyphen
Encoding: 45 45 159
Width: 354
VWidth: 0
Flags: HW
LayerCount: 2
Fore
SplineSet
20 223 m 1
 20 357 l 1
 334 357 l 1
 334 223 l 1
 20 223 l 1
EndSplineSet
Substitution2: "'case' Case-Sensitive Forms lookup 1-1" hyphen.alt
Substitution2: "'c2sc' Capitals to Small Capitals in Latin lookup 17 subtable" hyphen.smcp
Substitution2: "'smcp' Lowercase to Small Capitals lookup 16-1" hyphen.smcp
EndChar

StartChar: numbersign
Encoding: 35 35 160
Width: 733
VWidth: 0
Flags: HW
LayerCount: 2
Fore
SplineSet
292.25 314 m 1
 404 313 l 1
 422.5 419 l 1
 310.75 419 l 1
 292.25 314 l 1
13.25 202 m 1
 30.25 314 l 1
 180.25 314 l 1
 198.75 419 l 1
 47.25 419 l 1
 65.25 531 l 1
 220.25 531 l 1
 257.25 732 l 1
 369.25 732 l 1
 332.25 531 l 1
 439.75 531 l 1
 475.75 732 l 1
 587.75 732 l 1
 551.75 531 l 1
 721.25 531 l 1
 704.75 419 l 1
 534.5 419 l 1
 516 313 l 1
 686.25 313 l 1
 670.75 201 l 1
 491.5 201 l 1
 454.5 0 l 1
 342.5 0 l 1
 379.5 201 l 1
 271.25 202 l 1
 234.25 0 l 1
 122.25 0 l 1
 159.25 202 l 1
 13.25 202 l 1
EndSplineSet
Substitution2: "'smcp' Lowercase to Small Capitals lookup 16-1" numbersign.smcp
EndChar

StartChar: dollar
Encoding: 36 36 161
Width: 568
VWidth: 0
Flags: HW
LayerCount: 2
Fore
SplineSet
37 482.75 m 2
 37 545 l 2
 37.5 688.25 125.75 734.5 235.75 738 c 1
 235.75 824 l 1
 331.25 824 l 1
 331.25 737.25 l 1
 401.75 733.75 455.25 722.5 505 707.25 c 1
 505 579.5 l 1
 444.5 584.75 337 589.25 287.5 589.25 c 0
 229.5 590 201 585.25 201 530 c 2
 201 505.25 l 2
 201 462 219 444.75 272 444.75 c 2
 352.5 444.75 l 2
 501 444.75 532 323.25 532 242.75 c 2
 532 201 l 2
 532 30.75 430.75 -8 331.25 -8 c 1
 331.25 -90 l 1
 235.75 -90 l 1
 235.75 -6.75 l 1
 154 -4.25 125 3.5 60 23.75 c 1
 60 150.75 l 1
 100 147.75 198.5 141 291.5 141 c 0
 334 141 368 151 368 194.25 c 2
 368 223.25 l 2
 368 259.25 356.75 280.75 307.5 280.75 c 2
 230 280.75 l 2
 50.75 280.75 37 427.75 37 482.75 c 2
EndSplineSet
Substitution2: "'smcp' Lowercase to Small Capitals lookup 16-1" dollar.smcp
EndChar

StartChar: zerosuperior
Encoding: 264 8304 162
Width: 463
VWidth: 112
Flags: HW
LayerCount: 2
Fore
SplineSet
165.75 520.5 m 2
 165.75 485.75 186 481.25 208.75 481.25 c 2
 257 481.25 l 2
 286.25 481.25 298.75 487 298.75 519.75 c 2
 298.75 699.25 l 2
 298.75 728.25 286.25 737.75 260.75 737.75 c 2
 205 737.75 l 2
 163 737.75 165.75 713 165.75 699.25 c 2
 165.75 520.5 l 2
40.5 491 m 2
 40.5 723.5 l 2
 40.5 809 89.5 851.5 175.5 851.5 c 2
 294 851.5 l 2
 393.5 851.5 423.5 796.5 423.5 728 c 2
 423.5 491 l 2
 423.5 407.75 375.25 367.5 294 367.5 c 2
 174.75 367.5 l 2
 88.75 367.5 40.5 406 40.5 491 c 2
EndSplineSet
EndChar

StartChar: foursuperior
Encoding: 265 8308 163
Width: 435
VWidth: 112
Flags: HW
LayerCount: 2
Fore
SplineSet
10.75 512.5 m 1
 168.5 851.5 l 1
 293.5 851.5 l 1
 166.5 574.5 l 1
 256.25 574.5 l 1
 256.25 670 l 1
 279 720.25 l 1
 381.25 720.25 l 1
 381.25 574.5 l 1
 426 574.5 l 1
 426 477.5 l 1
 381.25 471.25 l 1
 381.25 369.25 l 1
 256.25 369.25 l 1
 256.25 457.75 l 1
 33.5 457.75 l 1
 10.75 512.5 l 1
EndSplineSet
EndChar

StartChar: fivesuperior
Encoding: 266 8309 164
Width: 415
VWidth: 112
Flags: HW
LayerCount: 2
Fore
SplineSet
37 381.25 m 1
 37 480.5 l 1
 221.75 480.5 l 2
 265 480.5 263.75 498.75 263.75 514.5 c 2
 263.75 539.75 l 2
 263.75 558 259.75 575.5 227 575.5 c 2
 176.5 575.5 l 2
 154.5 575.5 143.75 566.75 143.75 546 c 1
 37.75 546 l 1
 52.75 851.5 l 1
 368 851.5 l 1
 368 737.75 l 1
 161 737.75 l 1
 157.5 667.25 l 1
 187.5 688.75 235.75 686.25 270.75 683.25 c 0
 353 678 388.75 625.25 388.75 553.5 c 2
 388.75 489.5 l 2
 388.75 399.25 322.5 364.25 255.75 364.25 c 0
 170.25 364.25 129.25 364.75 37 381.25 c 1
EndSplineSet
EndChar

StartChar: sixsuperior
Encoding: 267 8310 165
Width: 438
VWidth: 111
Flags: HW
HStem: 367.75 113.75<174.047 284.183> 564.5 107.75<162.775 285.699> 745.25 95.75<174.43 393.5>
VStem: 36.25 125<493.574 564.5 656.75 728.578> 286 125<482.271 562.867>
LayerCount: 2
Fore
SplineSet
161.25 564.5 m 1
 161.25 517.25 169.25 481.5 217.75 481.5 c 2
 252.5 481.5 l 2
 277.25 481.5 286 488.25 286 510.75 c 2
 286 533.5 l 2
 286 558.25 281.75 564.5 255.5 564.5 c 2
 161.25 564.5 l 1
36.25 622.25 m 0
 36.75 804.25 96.25 846.75 160.75 854.5 c 1
 232.25 864.75 328.25 852.75 393.5 841 c 1
 393.5 745.25 l 1
 226 745.25 l 2
 162.5 745.25 161.5 699 161.25 656.75 c 1
 193.75 668.75 228.75 672.25 282.75 672.25 c 0
 387.25 672.25 411 618.5 411 550.25 c 2
 411 485.5 l 2
 411 400.75 359.5 367.75 280.5 367.75 c 2
 178 367.75 l 2
 93.25 367.75 35.75 411.5 36.25 622.25 c 0
EndSplineSet
EndChar

StartChar: sevensuperior
Encoding: 268 8311 166
Width: 409
VWidth: 112
Flags: HW
LayerCount: 2
Fore
SplineSet
9.75 738.25 m 1
 9.75 852 l 1
 367 852 l 1
 398.25 800 l 1
 214.75 367.75 l 1
 78.75 367.75 l 1
 236.25 738.25 l 1
 9.75 738.25 l 1
EndSplineSet
EndChar

StartChar: eightsuperior
Encoding: 269 8312 167
Width: 463
VWidth: 112
Flags: HW
LayerCount: 2
Fore
SplineSet
169.25 696 m 2
 169.25 670.75 182 665.75 204.75 665.75 c 2
 258.75 665.75 l 2
 292.25 665.75 294.5 679 294.5 696 c 2
 294.5 715.25 l 2
 294.5 745.25 279 748 257.5 748 c 2
 207 748 l 2
 180.75 748 169.25 744 169.25 715.25 c 2
 169.25 696 l 2
169.25 504.5 m 2
 169.25 483 177.75 475.25 205.25 475.25 c 2
 259.5 475.25 l 2
 288.25 475.25 294.5 485.5 294.5 504.5 c 2
 294.5 532.75 l 2
 294.5 552.5 287.25 563.75 260.5 563.75 c 2
 204.75 563.75 l 2
 176.25 563.75 169.25 553.25 169.25 532.75 c 2
 169.25 504.5 l 2
44.25 482.5 m 2
 44.25 523.25 l 2
 44.25 560 62 592.5 100 599 c 1
 47.5 621.25 44.25 658 44.25 697.25 c 2
 44.25 739.5 l 2
 44.25 833 107.5 855.75 180.5 855.75 c 2
 292.75 855.75 l 2
 374.75 855.75 419.5 825.5 419.5 741 c 2
 419.5 709.25 l 2
 419.75 692.25 414 640.5 365.5 633.5 c 1
 413.25 625.25 419.5 568.5 419.5 539.75 c 2
 419.5 487 l 2
 419.5 383.5 359.75 367.25 293.5 367.25 c 2
 178.75 367.25 l 2
 51.5 367.25 44.25 437.5 44.25 482.5 c 2
EndSplineSet
EndChar

StartChar: ninesuperior
Encoding: 270 8313 168
Width: 438
VWidth: 112
Flags: HW
LayerCount: 2
Fore
SplineSet
155 691 m 2
 155 664.75 160 657.75 186.25 657.75 c 2
 279.75 657.75 l 1
 279.75 708.75 272.5 745.25 224 745.25 c 2
 188.5 745.25 l 2
 163.75 745.25 155 737.75 155 713.75 c 2
 155 691 l 2
30 673.5 m 2
 30 739 l 2
 30 825.25 82.25 859 161.25 859 c 2
 263 859 l 2
 347.75 859 405.25 813.75 404.75 598.5 c 0
 404.25 412.75 345.75 370.5 280.5 361.75 c 0
 209.25 351.5 115.75 362 47.5 375.25 c 1
 47.5 471.75 l 1
 214.75 471.75 l 2
 278.25 471.75 279.5 519.5 279.75 564.75 c 1
 247.25 552.75 213 549.25 159 549.25 c 0
 54.5 549.25 30 603.75 30 673.5 c 2
EndSplineSet
EndChar

StartChar: zeroinferior
Encoding: 271 8320 169
Width: 463
VWidth: 0
Flags: HW
LayerCount: 2
Fore
SplineSet
165.75 -47 m 2
 165.75 -81.75 186 -86.25 208.75 -86.25 c 2
 257 -86.25 l 2
 286.25 -86.25 298.75 -80.5 298.75 -47.75 c 2
 298.75 131.75 l 2
 298.75 160.75 286.25 170.25 260.75 170.25 c 2
 205 170.25 l 2
 163 170.25 165.75 145.5 165.75 131.75 c 2
 165.75 -47 l 2
40.5 -76.5 m 2
 40.5 156 l 2
 40.5 241.5 89.5 284 175.5 284 c 2
 294 284 l 2
 393.5 284 423.5 229 423.5 160.5 c 2
 423.5 -76.5 l 2
 423.5 -159.75 375.25 -200 294 -200 c 2
 174.75 -200 l 2
 88.75 -200 40.5 -161.5 40.5 -76.5 c 2
EndSplineSet
EndChar

StartChar: oneinferior
Encoding: 272 8321 170
Width: 270
VWidth: 0
Flags: HW
LayerCount: 2
Fore
SplineSet
10.75 157.25 m 1
 10.75 229.5 l 1
 103.5 284.5 l 1
 227 284.5 l 1
 227 -199.75 l 1
 102 -199.75 l 1
 102 175.75 l 1
 10.75 157.25 l 1
EndSplineSet
EndChar

StartChar: twoinferior
Encoding: 273 8322 171
Width: 409
VWidth: 0
Flags: HW
LayerCount: 2
Fore
SplineSet
20.75 177.5 m 2
 20.25 177.5 20.75 271 20.75 271 c 1
 80.75 282.75 133.25 291.25 227.75 291.25 c 0
 335.5 291.25 381.75 228.75 381.75 142.5 c 0
 381.75 45.25 260.5 -50.25 214.75 -86 c 1
 381.5 -86 l 1
 381.5 -199.75 l 1
 24.5 -199.75 l 1
 24.5 -90.75 l 1
 82.5 -53.25 256 67 256 129 c 0
 256 168.5 234.25 177.5 177.75 177.5 c 2
 20.75 177.5 l 2
EndSplineSet
EndChar

StartChar: threeinferior
Encoding: 274 8323 172
Width: 414
VWidth: 0
Flags: HW
LayerCount: 2
Fore
SplineSet
20.25 172.75 m 1
 20.25 265.25 l 1
 81 287.5 162.5 287.75 243.75 286.25 c 0
 324 285.5 374.5 239 374.5 164 c 2
 374.5 135.75 l 2
 374.5 87.25 356 54.75 315 41 c 1
 357 27 374.5 -9.25 374.5 -59.75 c 2
 374.5 -81 l 2
 374.5 -158.75 328.75 -204.5 238.75 -204.5 c 0
 159.5 -204.5 85.75 -206.5 24.25 -184.25 c 1
 25.25 -91 l 1
 33.25 -91 181.25 -90.75 181.25 -90.75 c 2
 234.5 -90.75 249.5 -86.5 249.5 -59 c 2
 249.5 -50.25 l 2
 249.5 -21.75 227 -16 185.25 -15 c 2
 65.75 -10 l 1
 65.75 90.25 l 1
 185.25 98 l 1
 232.5 99.25 251.25 104.75 251.25 131.25 c 2
 251.25 139.75 l 2
 251.25 168.25 223.5 172.75 185.25 172.75 c 2
 20.25 172.75 l 1
EndSplineSet
EndChar

StartChar: fourinferior
Encoding: 275 8324 173
Width: 440
VWidth: 0
Flags: HW
LayerCount: 2
Fore
SplineSet
10.75 -55 m 1
 168.5 284 l 1
 298 284 l 1
 174 7 l 1
 260.75 7 l 1
 260.75 102.5 l 1
 283.5 152.75 l 1
 385.75 152.75 l 1
 385.75 7 l 1
 430.5 7 l 1
 430.5 -90 l 1
 385.75 -96.25 l 1
 385.75 -198.25 l 1
 260.75 -198.25 l 1
 260.75 -109.75 l 1
 33.5 -109.75 l 1
 10.75 -55 l 1
EndSplineSet
EndChar

StartChar: fiveinferior
Encoding: 276 8325 174
Width: 418
VWidth: 0
Flags: HW
LayerCount: 2
Fore
SplineSet
37.75 -12.5 m 1
 52.75 284 l 1
 371 284 l 1
 371 170.25 l 1
 162.5 170.25 l 1
 158.25 99.75 l 1
 188.25 121.25 237.25 118.75 273 115.75 c 0
 356 110.5 391.75 57.75 391.75 -14 c 2
 391.75 -78 l 2
 391.75 -168.25 324.75 -203.25 257.25 -203.25 c 0
 171 -203.25 130 -202.75 37 -186.25 c 1
 37 -87 l 1
 224 -87 l 2
 267.25 -87 266.75 -68.75 266.75 -53 c 2
 266.75 -27.75 l 2
 266.75 -9.5 262.75 8 230 8 c 2
 178.75 8 l 2
 156.75 8 145.25 2.25 145.25 -12.5 c 1
 37.75 -12.5 l 1
EndSplineSet
EndChar

StartChar: sixinferior
Encoding: 277 8326 175
Width: 438
VWidth: 0
Flags: HW
LayerCount: 2
Fore
SplineSet
161.25 -3 m 1
 161.25 -50.25 169.25 -86 217.75 -86 c 2
 252.5 -86 l 2
 277.25 -86 286 -79.25 286 -56.75 c 2
 286 -34 l 2
 286 -9.25 281.75 -3 255.5 -3 c 2
 161.25 -3 l 1
36.25 54.75 m 0
 36.75 236.75 96.25 279.25 160.75 287 c 1
 232 297 326.75 286.25 393.5 273.5 c 1
 393.5 177.75 l 1
 226 177.75 l 2
 162.5 177.75 161.5 131.5 161.25 89.25 c 1
 193.75 101.25 228 104.75 282.75 104.75 c 0
 387.25 104.75 411 51 411 -17.25 c 2
 411 -82 l 2
 411 -166.75 359.5 -199.75 280.5 -199.75 c 2
 178 -199.75 l 2
 93.25 -199.75 35.75 -156 36.25 54.75 c 0
EndSplineSet
EndChar

StartChar: seveninferior
Encoding: 278 8327 176
Width: 409
VWidth: 0
Flags: HW
LayerCount: 2
Fore
SplineSet
9.75 170.75 m 1
 9.75 284.5 l 1
 367 284.5 l 1
 398.25 232.5 l 1
 214.75 -199.75 l 1
 78.75 -199.75 l 1
 236.25 170.75 l 1
 9.75 170.75 l 1
EndSplineSet
EndChar

StartChar: eightinferior
Encoding: 279 8328 177
Width: 463
VWidth: 0
Flags: HW
LayerCount: 2
Fore
SplineSet
169.25 128.5 m 2
 169.25 103.25 182 98.25 204.75 98.25 c 2
 258.75 98.25 l 2
 292.25 98.25 294.5 111.5 294.5 128.5 c 2
 294.5 147.75 l 2
 294.5 177.75 279 180.5 257.5 180.5 c 2
 207 180.5 l 2
 180.75 180.5 169.25 176.5 169.25 147.75 c 2
 169.25 128.5 l 2
169.25 -34.75 m 2
 169.25 -63 l 2
 169.25 -84.5 177.75 -92.25 205.25 -92.25 c 2
 259.5 -92.25 l 2
 288.25 -92.25 294.5 -82 294.5 -63 c 2
 294.5 -34.75 l 2
 294.5 -15 287.25 -3.75 260.5 -3.75 c 2
 204.75 -3.75 l 2
 176.25 -3.75 169.25 -14.25 169.25 -34.75 c 2
44.25 -44.25 m 2
 44.25 -7.5 61.25 25 100 31.5 c 1
 47.5 53.75 44.25 90.5 44.25 129.75 c 2
 44.25 172 l 2
 44.25 265.5 107.5 288.25 180.5 288.25 c 2
 292.75 288.25 l 2
 374.75 288.25 419.5 258 419.5 173.5 c 2
 419.5 141.75 l 2
 419.75 124.75 413.25 73 365.5 66 c 1
 412.5 57.75 419.5 1 419.5 -27.75 c 2
 419.5 -80.5 l 2
 419.5 -184 359.75 -200.25 293.5 -200.25 c 2
 178.75 -200.25 l 2
 51.5 -200.25 44.25 -130 44.25 -85 c 2
 44.25 -44.25 l 2
EndSplineSet
EndChar

StartChar: nineinferior
Encoding: 280 8329 178
Width: 438
VWidth: 0
Flags: HW
LayerCount: 2
Fore
SplineSet
155 123.5 m 2
 155 97.25 160 90.25 186.25 90.25 c 2
 279.75 90.25 l 1
 279.75 141.25 272.5 177.75 224 177.75 c 2
 188.5 177.75 l 2
 163.75 177.75 155 170.25 155 146.25 c 2
 155 123.5 l 2
30 106 m 2
 30 171.5 l 2
 30 257.75 82.25 291.5 161.25 291.5 c 2
 263 291.5 l 2
 347.75 291.5 405.25 247 404.75 32.5 c 0
 404.25 -151.75 345.75 -194.75 280.5 -203.5 c 0
 209.25 -213.75 115 -203 47.5 -192.25 c 1
 47.5 -95.75 l 1
 214.75 -95.75 l 2
 278.25 -95.75 279.5 -48 279.75 -2.75 c 1
 247.25 -14.75 213 -18.25 159 -18.25 c 0
 54.5 -18.25 30 36.25 30 106 c 2
EndSplineSet
EndChar

StartChar: zero.oldstyle
Encoding: 281 -1 179
Width: 626
VWidth: 0
Flags: HW
HStem: 0 149<223.489 403.844> 483.5 149<224.371 404.973>
VStem: 46.75 164<162.653 468.631> 415.75 164<162.817 471.27>
LayerCount: 2
Fore
SplineSet
210.75 215.25 m 2
 210.75 156.5 249.5 149 278 149 c 2
 350.5 149 l 2
 391.25 149 415.75 160.5 415.75 214.5 c 2
 415.75 418 l 2
 415.75 464 395.25 483.5 356.5 483.5 c 2
 272.75 483.5 l 2
 216.25 483.5 210.75 439.75 210.75 418 c 2
 210.75 215.25 l 2
46.75 184.5 m 2
 46.75 440.5 l 2
 46.75 565 117.75 632.5 235.25 632.5 c 2
 399.25 632.5 l 2
 538.5 632.5 579.75 548.75 579.75 448 c 2
 579.75 184.5 l 2
 579.75 65.5 513.25 0 398.5 0 c 2
 234.5 0 l 2
 114.25 0 46.75 64.5 46.75 184.5 c 2
EndSplineSet
Substitution2: "'tnum' Tabular Numbers in Latin lookup 7-1" zero.tosf
Substitution2: "'lnum' Lining Figures lookup 19-1" zero
EndChar

StartChar: one.oldstyle
Encoding: 282 -1 180
Width: 371
VWidth: 0
Flags: HW
HStem: 0 21G<150.75 314.75> 0 21G<150.75 314.75>
VStem: 150.75 164<0 472.25>
LayerCount: 2
Fore
SplineSet
20.25 443.75 m 1
 20.25 549.25 l 1
 152.25 632 l 1
 314.75 632 l 1
 314.75 0 l 1
 150.75 0 l 1
 150.75 472.25 l 1
 20.25 443.75 l 1
EndSplineSet
Substitution2: "'tnum' Tabular Numbers in Latin lookup 7-1" one.tosf
Substitution2: "'lnum' Lining Figures lookup 19-1" one
EndChar

StartChar: two.oldstyle
Encoding: 283 -1 181
Width: 586
VWidth: 0
Flags: HW
HStem: 0 149<317.75 551.75> 491.25 149.75<59.6343 371.842> 491.25 122.25<27.5 174.044>
VStem: 388.75 163<377.173 475.048>
LayerCount: 2
Fore
SplineSet
27.5 491.25 m 1
 27.5 613.5 l 1
 113.5 630.5 194.5 642.25 331.25 641 c 1
 483.25 641 553 577.5 553 444.25 c 0
 553 298 374.25 182 317.75 149 c 1
 551.75 149 l 1
 551.75 0 l 1
 34.25 0 l 1
 34.25 143 l 1
 131.25 196.75 388.75 334.5 388.75 427.5 c 0
 388.75 481 354 492 270.25 491.25 c 2
 27.5 491.25 l 1
EndSplineSet
Substitution2: "'tnum' Tabular Numbers in Latin lookup 7-1" two.tosf
Substitution2: "'lnum' Lining Figures lookup 19-1" two
EndChar

StartChar: three.oldstyle
Encoding: 284 -1 182
Width: 593
VWidth: 0
Flags: HW
HStem: -102 150<60.5279 368.808> -74 122<40.5 142.211> 193.5 150<156.4 365.266> 490 149<54.7029 364.13> 490 121<33.5 134.309>
VStem: 381 162.5<59.499 176.171 359.318 474.477>
LayerCount: 2
Fore
SplineSet
33.5 490 m 1
 33.5 611 l 1
 121.5 642 242 641 359 639 c 0
 469 637 543.5 571.25 543.5 459 c 2
 543.5 412.5 l 2
 543.5 339.5 519.75 289.5 464 269 c 1
 521.5 247.5 543.5 193.5 543.5 117.5 c 2
 543.5 81 l 2
 543.5 -37 474 -102 352 -102 c 0
 238 -102 127.5 -105 39.5 -74 c 1
 40.5 48 l 1
 278.5 48 l 2
 350.25 48 379 52.25 379 107.25 c 2
 379 128.75 l 2
 379 182.75 346 190.75 284.5 193.5 c 2
 101.5 200.5 l 1
 101.5 333.5 l 1
 284.5 343.5 l 2
 353.5 346.5 381 355.25 381 405 c 2
 381 429 l 2
 381 483.5 336.5 490 284.5 490 c 2
 33.5 490 l 1
EndSplineSet
Substitution2: "'tnum' Tabular Numbers in Latin lookup 7-1" three.tosf
Substitution2: "'lnum' Lining Figures lookup 19-1" three
EndChar

StartChar: four.oldstyle
Encoding: 285 -1 183
Width: 627
VWidth: 0
Flags: HW
HStem: 49.5 153<238.5 382.25>
VStem: 382.25 164<-98 49.5 202.5 354.75>
LayerCount: 2
Fore
SplineSet
13.25 124 m 1
 251.75 632 l 1
 429.75 632 l 1
 238.5 202.5 l 1
 382.25 202.5 l 1
 382.25 354.75 l 1
 411.75 432 l 1
 546.25 432 l 1
 546.25 202.5 l 1
 613.75 202.5 l 1
 613.75 76 l 1
 546.25 49.5 l 1
 546.25 -98 l 1
 382.25 -98 l 1
 382.25 49.5 l 1
 47.25 49.5 l 1
 13.25 124 l 1
EndSplineSet
Substitution2: "'tnum' Tabular Numbers in Latin lookup 7-1" four.tosf
Substitution2: "'lnum' Lining Figures lookup 19-1" four
EndChar

StartChar: five.oldstyle
Encoding: 286 -1 184
Width: 606
VWidth: 0
Flags: HW
HStem: -104 154<63.5813 379.587> -80 130<51.25 232.117> 227 141.5<228.331 383.261> 483 149<233.25 527.25>
VStem: 392 164<62.3168 217.58>
LayerCount: 2
Fore
SplineSet
51.25 50 m 1
 325.25 50 l 2
 389 50 392 87 392 113 c 2
 392 163.75 l 2
 392 196.75 384.25 227 333.5 227 c 2
 262 227 l 2
 228.25 227 208.5 211.25 208.5 174.5 c 1
 52.5 174.5 l 1
 74.5 632 l 1
 527.25 632 l 1
 527.25 483 l 1
 233.25 483 l 1
 227.25 346 l 1
 250.25 362.25 276.75 366.75 294.5 368.5 c 0
 327.5 371.75 371.5 369.25 389 368.5 c 0
 505.5 361 556 283.75 556 180 c 2
 556 81 l 2
 556 -56 451.75 -104 362.75 -104 c 0
 238.75 -104 185.25 -103 51.25 -80 c 1
 51.25 50 l 1
EndSplineSet
Substitution2: "'tnum' Tabular Numbers in Latin lookup 7-1" five.tosf
Substitution2: "'lnum' Lining Figures lookup 19-1" five
EndChar

StartChar: six.oldstyle
Encoding: 287 -1 185
Width: 603
VWidth: 0
Flags: HW
HStem: -1 149<236.688 391.248> 309 141.5<210.298 395.146> 589 124.75<375.444 540.5>
VStem: 44 164<181.603 309 429.5 549.047> 400.75 163.75<153.372 303.808>
LayerCount: 2
Fore
SplineSet
208 309 m 1
 208 206 220.25 148 296.5 148 c 2
 346.5 148 l 2
 384 148 400.75 157.25 400.75 202.75 c 2
 400.75 249 l 2
 400.75 296.5 389.5 309 350.25 309 c 2
 208 309 l 1
44 384 m 0
 44 649 128.5 723.75 216 734.25 c 0
 316.25 746.25 447 732 540.5 713.75 c 1
 540.5 589 l 1
 304 589 l 2
 213 589 208.5 505.25 208 429.5 c 1
 257 446.25 307 450.5 388.5 450.5 c 0
 532 450.5 564.5 372.75 564.5 271.5 c 2
 564.5 170.5 l 2
 564.5 45 491.5 -1 381 -1 c 2
 240.25 -1 l 2
 121.5 -0.75 44 69 44 384 c 0
EndSplineSet
Substitution2: "'tnum' Tabular Numbers in Latin lookup 7-1" six.tosf
Substitution2: "'lnum' Lining Figures lookup 19-1" six
EndChar

StartChar: seven.oldstyle
Encoding: 288 -1 186
Width: 557
VWidth: 0
Flags: HW
HStem: 483 149<20.25 336.25>
DStem2: 123.25 -100 299.75 -100 0.338543 0.940951<59.7529 620.684>
LayerCount: 2
Fore
SplineSet
20.25 483 m 1
 20.25 632 l 1
 495.75 632 l 1
 537.75 561.5 l 1
 299.75 -100 l 1
 123.25 -100 l 1
 336.25 483 l 1
 20.25 483 l 1
EndSplineSet
Substitution2: "'tnum' Tabular Numbers in Latin lookup 7-1" seven.tosf
Substitution2: "'lnum' Lining Figures lookup 19-1" seven
EndChar

StartChar: eight.oldstyle
Encoding: 289 -1 187
Width: 621
VWidth: 0
Flags: HW
HStem: 0 141.5<224.381 397.91> 307 133<221.891 399.636> 595.5 141.5<222.131 399.725>
VStem: 50.25 164<148.603 299.458 447.922 588.767> 407.75 164<149.757 296.926 446.18 586.089>
LayerCount: 2
Fore
SplineSet
214.25 494 m 2
 214.25 448 238.25 440 272.25 440 c 2
 351 440 l 2
 402.25 440 407.75 462.5 407.75 494 c 2
 407.75 533.5 l 2
 407.75 588 383.25 595.5 350.5 595.5 c 2
 275 595.5 l 2
 236.5 595.5 214.25 590.5 214.25 533.5 c 2
 214.25 494 l 2
214.25 195.25 m 2
 214.25 156.75 230.5 141.5 275 141.5 c 2
 350.25 141.5 l 2
 394 141.5 407.75 161 407.75 195.25 c 2
 407.75 251.5 l 2
 407.75 285.25 392.75 307 352.5 307 c 2
 272.25 307 l 2
 229.25 307 214.25 287.25 214.25 251.5 c 2
 214.25 195.25 l 2
50.25 172.75 m 2
 50.25 237 l 2
 50.25 293 75 341.5 127 351.5 c 1
 55.5 384.75 50.25 440 50.25 499 c 2
 50.25 564 l 2
 50.25 702.5 138.25 737 241.25 737 c 2
 394.75 737 l 2
 510 737 571.75 690 571.75 563.25 c 2
 571.75 514 l 2
 572 488.25 563.5 408.5 496.75 398 c 1
 562 385.75 572 301.75 571.75 258.75 c 2
 571.75 177.25 l 2
 571.75 22.5 482.5 0 393.75 0 c 2
 241.25 0 l 2
 55.75 0 50.25 114.5 50.25 172.75 c 2
EndSplineSet
Substitution2: "'tnum' Tabular Numbers in Latin lookup 7-1" eight.tosf
Substitution2: "'lnum' Lining Figures lookup 19-1" eight
EndChar

StartChar: nine.oldstyle
Encoding: 290 -1 188
Width: 603
VWidth: 0
Flags: HW
HStem: -82 124.75<64.5 219.08> 181.25 141.5<209.854 394.702> 483.75 149<213.752 368.312>
VStem: 40.5 163.75<327.942 478.378> 397 164<82.7031 202.25 322.75 450.147>
LayerCount: 2
Fore
SplineSet
204.25 382.75 m 2
 204.25 335.25 215.5 322.75 254.75 322.75 c 2
 397 322.75 l 1
 397 425.75 384.75 483.75 308.5 483.75 c 2
 258.5 483.75 l 2
 221 483.75 204.25 474.5 204.25 429 c 2
 204.25 382.75 l 2
40.5 360.25 m 2
 40.5 461.25 l 2
 40.5 586.75 113.5 632.75 224 632.75 c 2
 364.75 632.75 l 2
 483.5 632.5 561 562.75 561 247.75 c 0
 561 -17.25 476.5 -92 389 -102.5 c 0
 288.75 -114.5 158.5 -101.5 64.5 -82 c 1
 64.5 42.75 l 1
 301 42.75 l 2
 392 42.75 396.5 126.5 397 202.25 c 1
 348 185.5 298 181.25 216.5 181.25 c 0
 73 181.25 40.5 259 40.5 360.25 c 2
EndSplineSet
Substitution2: "'tnum' Tabular Numbers in Latin lookup 7-1" nine.tosf
Substitution2: "'lnum' Lining Figures lookup 19-1" nine
EndChar

StartChar: ampersand
Encoding: 38 38 189
Width: 695
VWidth: 0
Flags: HW
LayerCount: 2
Fore
SplineSet
194.25 176 m 0
 216.25 149 254.25 128 292.5 166.25 c 2
 332 205.25 l 1
 251 312 l 1
 209 274 l 2
 165 235 173.75 202 194.25 176 c 0
60.75 82 m 1
 -9 183 22.5 295 108 370.5 c 2
 171.5 426.25 l 1
 124.25 496.25 l 1
 45.25 603.25 124.25 717 207 730 c 0
 327.5 749.25 416 727 488 710 c 1
 488 589.5 l 1
 337.5 589.5 l 2
 265 589.5 266.25 559.75 309 500.5 c 2
 453.25 301 l 1
 577.75 413.25 l 1
 636 341.25 l 1
 573 233.5 l 1
 536.5 190 l 1
 680.5 0 l 1
 487.5 0 l 1
 421.25 90.75 l 1
 358.25 35.75 l 2
 294.5 -19.75 136.25 -31 60.75 82 c 1
EndSplineSet
AlternateSubs2: "'salt' Access All Alternates in Latin lookup 4-1" ampersand.salt
Substitution2: "'smcp' Lowercase to Small Capitals lookup 16-1" ampersand.smcp
EndChar

StartChar: asterisk
Encoding: 42 42 190
Width: 423
VWidth: 0
Flags: HW
LayerCount: 2
Fore
SplineSet
235.25 571 m 1
 354.5 650.75 l 1
 390 599.25 l 1
 291.5 502.25 l 1
 235.25 571 l 1
184 463.25 m 1
 232.5 538 l 1
 345.5 448.5 l 1
 308.75 398.5 l 1
 184 463.25 l 1
161.75 720.75 m 1
 221.75 741.25 l 1
 286.25 617.25 l 1
 203.25 584 l 1
 161.75 720.75 l 1
86.5 417 m 1
 111.25 554.25 l 1
 197.5 532 l 1
 146 398.25 l 1
 86.5 417 l 1
33.5 566 m 1
 33.5 628.5 l 1
 172.5 650 l 1
 177.5 561 l 1
 33.5 566 l 1
EndSplineSet
Substitution2: "'smcp' Lowercase to Small Capitals lookup 16-1" asterisk.smcp
EndChar

StartChar: Euro
Encoding: 291 8364 191
Width: 620
VWidth: 0
Flags: HW
LayerCount: 2
Fore
SplineSet
13.25 247.5 m 1
 13.25 324.5 l 1
 86.25 331.5 l 1
 86.25 387.5 l 1
 13.25 395.5 l 1
 13.25 468.5 l 1
 86.25 477.5 l 1
 86.25 549.5 91.25 740 335.25 740 c 0
 387.25 740 520.75 729.75 602.75 702.5 c 1
 602.75 583.5 l 1
 602.75 583.5 462.25 598.5 380.25 598.5 c 0
 252.25 598.5 250.25 557 250.25 477.5 c 1
 484.25 470.5 l 1
 484.25 394.5 l 1
 250.25 387.5 l 1
 250.25 331.5 l 1
 484.25 324.5 l 1
 484.25 247.5 l 1
 484.25 247.5 247.25 242.5 250.25 240.5 c 1
 250.25 138.75 313.25 128 380.25 128 c 0
 469 128 606.75 152.5 606.75 152.5 c 1
 606.75 36.5 l 1
 535.5 1.5 448.25 -6 335.25 -6 c 0
 258.25 -6 86.25 14.5 86.25 240.5 c 1
 13.25 247.5 l 1
EndSplineSet
Substitution2: "'smcp' Lowercase to Small Capitals lookup 16-1" Euro.smcp
EndChar

StartChar: parenleft
Encoding: 40 40 192
Width: 393
VWidth: 60
Flags: HW
LayerCount: 2
Fore
SplineSet
50.25 326 m 0
 50.25 669 231.75 860 231.75 860 c 1
 380.25 860 l 1
 380.25 860 214.25 611.5 214.25 326 c 0
 214.25 14 380.25 -210 380.25 -210 c 1
 231.75 -210 l 1
 231.75 -210 50.25 -50.75 50.25 326 c 0
EndSplineSet
Substitution2: "'case' Case-Sensitive Forms lookup 1-1" parenleft.alt
Substitution2: "'c2sc' Capitals to Small Capitals in Latin lookup 17 subtable" parenleft.smcp
Substitution2: "'smcp' Lowercase to Small Capitals lookup 16-1" parenleft.smcp
EndChar

StartChar: parenright
Encoding: 41 41 193
Width: 393
VWidth: 60
Flags: HW
LayerCount: 2
Fore
SplineSet
13.25 -210 m 1
 13.25 -210 179.25 14 179.25 326 c 0
 179.25 611.5 13.25 860 13.25 860 c 1
 161.75 860 l 1
 161.75 860 343.25 669 343.25 326 c 0
 343.25 -50.75 161.75 -210 161.75 -210 c 1
 13.25 -210 l 1
EndSplineSet
Substitution2: "'case' Case-Sensitive Forms lookup 1-1" parenright.alt
Substitution2: "'c2sc' Capitals to Small Capitals in Latin lookup 17 subtable" parenright.smcp
Substitution2: "'smcp' Lowercase to Small Capitals lookup 16-1" parenright.smcp
EndChar

StartChar: plus
Encoding: 43 43 194
Width: 471
VWidth: 0
Flags: HW
LayerCount: 2
Fore
SplineSet
27.5 289 m 1
 27.5 423 l 1
 167.5 423 l 1
 167.5 564 l 1
 301.5 564 l 1
 301.5 423 l 1
 443.5 423 l 1
 443.5 289 l 1
 301.5 289 l 1
 301.5 148 l 1
 167.5 148 l 1
 167.5 289 l 1
 27.5 289 l 1
EndSplineSet
EndChar

StartChar: endash
Encoding: 292 8211 195
Width: 513
VWidth: 0
Flags: HW
LayerCount: 2
Fore
SplineSet
20 220 m 1
 20 355 l 1
 493 355 l 1
 493 220 l 1
 20 220 l 1
EndSplineSet
Substitution2: "'case' Case-Sensitive Forms lookup 1-1" endash.alt
Substitution2: "'c2sc' Capitals to Small Capitals in Latin lookup 17 subtable" endash.smcp
Substitution2: "'smcp' Lowercase to Small Capitals lookup 16-1" endash.smcp
EndChar

StartChar: emdash
Encoding: 293 8212 196
Width: 736
VWidth: 0
Flags: HW
LayerCount: 2
Fore
SplineSet
20 222 m 1
 20 357 l 1
 716 357 l 1
 716 222 l 1
 20 222 l 1
EndSplineSet
Substitution2: "'case' Case-Sensitive Forms lookup 1-1" emdash.alt
Substitution2: "'c2sc' Capitals to Small Capitals in Latin lookup 17 subtable" emdash.smcp
Substitution2: "'smcp' Lowercase to Small Capitals lookup 16-1" emdash.smcp
EndChar

StartChar: less
Encoding: 60 60 197
Width: 442
VWidth: 0
Flags: HW
LayerCount: 2
Fore
SplineSet
33.5 278 m 1
 33.5 425.5 l 1
 408.5 563.5 l 1
 408.5 416 l 1
 200.75 353.25 l 1
 408.5 280.5 l 1
 408.5 132.5 l 1
 33.5 278 l 1
EndSplineSet
EndChar

StartChar: equal
Encoding: 61 61 198
Width: 467
VWidth: 0
Flags: HW
LayerCount: 2
Fore
SplineSet
20 391 m 1
 20 525 l 1
 447 525 l 1
 447 391 l 1
 20 391 l 1
20 174.5 m 1
 20 308.5 l 1
 447 308.5 l 1
 447 174.5 l 1
 20 174.5 l 1
EndSplineSet
EndChar

StartChar: greater
Encoding: 62 62 199
Width: 442
VWidth: 0
Flags: HW
LayerCount: 2
Fore
SplineSet
33.5 132.5 m 1
 33.5 280.5 l 1
 241.25 353.25 l 1
 33.5 416 l 1
 33.5 563.5 l 1
 408.5 425.5 l 1
 408.5 278 l 1
 33.5 132.5 l 1
EndSplineSet
EndChar

StartChar: multiply
Encoding: 215 215 200
Width: 463
VWidth: 0
Flags: HW
LayerCount: 2
Fore
SplineSet
38 256 m 1
 137.25 355 l 1
 38 455 l 1
 132 550 l 1
 232 450 l 1
 332.25 550.75 l 1
 427 456 l 1
 326.75 355 l 1
 426.75 256 l 1
 332 161 l 1
 232 260.25 l 1
 133 161.25 l 1
 38 256 l 1
EndSplineSet
EndChar

StartChar: divide
Encoding: 247 247 201
Width: 491
VWidth: 0
Flags: HW
LayerCount: 2
Fore
SplineSet
176.75 480.25 m 2
 176.75 551.5 l 2
 176.75 566.5 184.75 576.5 200.75 576.5 c 2
 283 576.5 l 2
 300.25 576.5 307.5 567 307.5 551.5 c 2
 307.5 480.25 l 2
 307.5 463 297 457.25 283 457.25 c 2
 200.75 457.25 l 2
 186.75 457.25 176.75 466.25 176.75 480.25 c 2
176.75 148.25 m 2
 176.75 219.5 l 2
 176.75 234.5 184.75 244.5 200.75 244.5 c 2
 283 244.5 l 2
 300.25 244.5 307.5 235 307.5 219.5 c 2
 307.5 148.25 l 2
 307.5 131 297 125.25 283 125.25 c 2
 200.75 125.25 l 2
 186.75 125.25 176.75 134.25 176.75 148.25 c 2
33.5 286 m 1
 33.5 420 l 1
 457.75 420 l 1
 457.75 286 l 1
 33.5 286 l 1
EndSplineSet
EndChar

StartChar: question
Encoding: 63 63 202
Width: 543
VWidth: 0
Flags: HW
LayerCount: 2
Fore
SplineSet
158.75 23 m 2
 158.75 125 l 2
 158.75 140 166.75 150 182.75 150 c 2
 281.25 150 l 2
 298.5 150 305.75 140.5 305.75 125 c 2
 305.75 23 l 2
 305.75 5.75 295.25 0 281.25 0 c 2
 182.75 0 l 2
 168.75 0 158.75 9 158.75 23 c 2
13.25 589 m 1
 13.25 711.5 l 1
 103.25 732 180.25 744 295.25 739 c 1
 447.25 739 516.75 637 516.75 539 c 2
 516.75 475.5 l 2
 516.75 340.5 454.5 271.25 296.25 281 c 1
 296.25 195 l 1
 168.75 195 l 1
 168.75 402 l 1
 273.25 402 l 1
 322.25 404 353.75 422 353.75 478.5 c 2
 353.75 515 l 2
 353.75 567.5 321.25 589 254.25 589 c 2
 13.25 589 l 1
EndSplineSet
Substitution2: "'smcp' Lowercase to Small Capitals lookup 16-1" question.smcp
EndChar

StartChar: bracketleft
Encoding: 91 91 203
Width: 338
VWidth: 60
Flags: HW
LayerCount: 2
Fore
SplineSet
57.25 -0.5 m 2
 57.25 647.5 l 2
 57.25 761.5 103.75 842 238.25 842 c 2
 325.75 842 l 1
 325.75 708 l 1
 283.25 708 l 2
 245.25 708 221.25 685 221.25 625 c 2
 221.25 7 l 2
 221.25 -53 245.25 -76 283.25 -76 c 2
 325.75 -76 l 1
 325.75 -210 l 1
 238.25 -210 l 2
 81.25 -210 57.25 -89 57.25 -0.5 c 2
EndSplineSet
EndChar

StartChar: bracketright
Encoding: 93 93 204
Width: 338
VWidth: 60
Flags: HW
LayerCount: 2
Fore
SplineSet
13.25 -76 m 1
 55.75 -76 l 2
 93.75 -76 117.75 -53 117.75 7 c 2
 117.75 625 l 2
 117.75 685 93.75 708 55.75 708 c 2
 13.25 708 l 1
 13.25 842 l 1
 100.75 842 l 2
 235.25 842 281.75 761.5 281.75 647.5 c 2
 281.75 -0.5 l 2
 281.75 -89 257.75 -210 100.75 -210 c 2
 13.25 -210 l 1
 13.25 -76 l 1
EndSplineSet
EndChar

StartChar: braceleft
Encoding: 123 123 205
Width: 321
VWidth: 60
Flags: HW
LayerCount: 2
Fore
SplineSet
13.25 273.75 m 1
 13.25 393.25 l 1
 46.25 396.25 80.75 405 80.75 446.25 c 2
 80.75 656 l 2
 80.75 770 152 842 308.25 842 c 1
 308.25 708 l 1
 261 708 244.75 687 244.75 596 c 2
 244.75 435 l 2
 244.75 367.5 205.5 340 144.75 334 c 1
 205.5 322.5 243.75 289.25 243.75 236 c 2
 243.75 14.5 l 2
 243.75 -50.5 256.25 -84.5 308.25 -83.5 c 1
 308.25 -210 l 1
 139 -210 79.75 -150.5 79.75 -38 c 2
 79.75 220.75 l 2
 79.75 256.75 53.25 276.75 13.25 273.75 c 1
EndSplineSet
EndChar

StartChar: braceright
Encoding: 125 125 206
Width: 321
VWidth: 60
Flags: HW
LayerCount: 2
Fore
SplineSet
13.25 -83.5 m 1
 65.25 -84.5 77.75 -50.5 77.75 14.5 c 2
 77.75 236 l 2
 77.75 289.25 116 322.5 176.75 334 c 1
 116 340 76.75 367.5 76.75 435 c 2
 76.75 596 l 2
 76.75 687 60.5 708 13.25 708 c 1
 13.25 842 l 1
 169.5 842 240.75 770 240.75 656 c 2
 240.75 446.25 l 2
 240.75 405 275.25 396.25 308.25 393.25 c 1
 308.25 273.75 l 1
 268.25 276.75 241.75 256.75 241.75 220.75 c 2
 241.75 -38 l 2
 241.75 -150.5 182.5 -210 13.25 -210 c 1
 13.25 -83.5 l 1
EndSplineSet
EndChar

StartChar: at
Encoding: 64 64 207
Width: 877
VWidth: 0
Flags: HW
LayerCount: 2
Fore
SplineSet
366.5 152.25 m 0
 366.5 131.25 379.5 117.25 408 117.5 c 0
 444.5 117.25 482.75 128 505 156.5 c 1
 505 219.5 l 1
 404 211 l 2
 378.25 208.5 366.25 199.25 366.5 172.5 c 0
 365.75 171.5 365.75 153.25 366.5 152.25 c 0
44 15 m 2
 44 303 l 2
 44 406.5 91 512 264.5 512 c 2
 448 512 l 2
 537.75 512 631 495.5 631 349.5 c 2
 631 0 l 1
 528.5 0 l 1
 507 56.5 l 1
 505 56.5 451.5 -9 360.5 -9 c 0
 271.5 -9.5 232.25 62.5 232.5 130.5 c 2
 232.5 168.5 l 2
 232.5 262 288.25 309 384 309 c 0
 428.75 309 505 308 505 309 c 2
 505 309 506 339.25 505 340 c 1
 505 378.75 487.75 385.5 451 385.5 c 2
 264.5 385.5 l 2
 216.5 385.5 170.5 375.5 170.5 295.5 c 2
 170.5 30 l 2
 170.5 -60 224.5 -80.5 264.5 -80.5 c 2
 591 -80.5 l 2
 673 -80.5 694 -38 694 30 c 2
 694 467 l 2
 694 544 652 584.75 591 584.75 c 2
 187 584.75 l 1
 187 684.25 l 1
 235 694.25 371.5 712.25 497.5 711.25 c 1
 591 711.25 l 2
 703.75 710.75 820.5 651.25 820.5 467 c 2
 820.5 30 l 2
 820.5 -135.5 743.25 -208 598.5 -208 c 2
 264.5 -208 l 2
 147.5 -208 44 -149.75 44 15 c 2
EndSplineSet
Substitution2: "'case' Case-Sensitive Forms lookup 1-1" at.alt
Substitution2: "'smcp' Lowercase to Small Capitals lookup 16-1" at.smcp
EndChar

StartChar: breve
Encoding: 294 728 208
Width: 296
VWidth: 0
Flags: HW
LayerCount: 2
Fore
SplineSet
33.5 644 m 1
 95.5 644 l 1
 95.5 611.75 115.25 592 147.5 592 c 0
 185.5 592 201.5 612.5 201.5 644 c 1
 263.5 644 l 1
 263.5 574 214.5 530 147.5 530 c 0
 82 530 33.5 575 33.5 644 c 1
EndSplineSet
EndChar

StartChar: ogonek
Encoding: 295 731 209
Width: 203
VWidth: 0
Flags: HW
LayerCount: 2
Fore
SplineSet
99 0 m 1
 160.5 0 l 1
 82 -56.75 124.25 -110 171 -106 c 1
 171 -188.5 l 1
 68 -218 -40.5 -74.5 99 0 c 1
EndSplineSet
EndChar

StartChar: caron
Encoding: 296 711 210
Width: 381
VWidth: 0
Flags: HW
LayerCount: 2
Fore
SplineSet
33.5 668.5 m 1
 134.75 668.5 l 1
 191.5 612.5 l 1
 246.25 668.5 l 1
 348 668.5 l 1
 247 531 l 1
 131 531 l 1
 33.5 668.5 l 1
EndSplineSet
Substitution2: "'smcp' Lowercase to Small Capitals lookup 16-1" caron.smcp
EndChar

StartChar: hungarumlaut
Encoding: 297 733 211
Width: 409
VWidth: 0
Flags: HW
LayerCount: 2
Fore
SplineSet
176.75 531 m 1
 261.25 671.5 l 1
 393.75 671.5 l 1
 275.75 531 l 1
 176.75 531 l 1
13.25 531 m 1
 97.75 671.5 l 1
 230.25 671.5 l 1
 112.25 531 l 1
 13.25 531 l 1
EndSplineSet
EndChar

StartChar: dotaccent
Encoding: 298 729 212
Width: 194
VWidth: 0
Flags: HW
LayerCount: 2
Fore
SplineSet
33.5 541 m 2
 33.5 625 l 2
 33.5 640 41.5 650 57.5 650 c 2
 137.5 650 l 2
 152.5 650 160.5 639 160.5 625 c 2
 160.5 541 l 2
 160.5 526 151.5 518 137.5 518 c 2
 57.5 518 l 2
 43.5 518 33.5 527 33.5 541 c 2
EndSplineSet
EndChar

StartChar: Aogonek
Encoding: 299 260 213
Width: 700
VWidth: 0
Flags: HW
LayerCount: 2
Fore
SplineSet
289.75 289.25 m 1
 435 289.25 l 1
 365.75 521.5 l 1
 289.75 289.25 l 1
30 0 m 1
 269 732 l 1
 459.25 732 l 1
 690 0 l 1
 637.258 0 l 1
 560.904 -56.3169 602.899 -108.823 649.333 -104.85 c 1
 649.333 -187.35 l 1
 546.861 -216.698 438.945 -74.8154 575.209 8.25774e-07 c 1
 518.75 0 l 1
 470.75 147 l 1
 250 147 l 1
 202 0 l 1
 30 0 l 1
EndSplineSet
Substitution2: "'c2sc' Capitals to Small Capitals in Latin lookup 17 subtable" aogonek.smcp
EndChar

StartChar: Lcaron
Encoding: 300 317 214
Width: 533
VWidth: 0
Flags: HW
LayerCount: 2
Fore
SplineSet
274.5 705 m 1
 274.5 772 l 1
 378.5 772 l 1
 378.5 705 l 1
 368.5 571 l 1
 285.5 571 l 1
 274.5 705 l 1
53.75 148.5 m 2
 53.75 732 l 1
 217.75 732 l 1
 217.75 201 l 2
 217.75 148 250.75 149 279.75 149 c 2
 510.75 149 l 1
 510.75 0 l 1
 212.25 0 l 2
 127.498 0 53.75 35.5 53.75 148.5 c 2
EndSplineSet
Substitution2: "'c2sc' Capitals to Small Capitals in Latin lookup 17 subtable" lcaron.smcp
EndChar

StartChar: Sacute
Encoding: 301 346 215
Width: 593
VWidth: 0
Flags: HW
LayerCount: 2
Fore
SplineSet
257.008 798.637 m 1
 341.508 939.137 l 1
 474.008 939.137 l 1
 356.008 798.637 l 1
 257.008 798.637 l 1
44 482.75 m 2
 44 545 l 2
 44 690 130 735.75 242 738 c 0
 366.25 741 472 728.75 537 707.25 c 1
 537 579 l 1
 473 585.25 344 589 294.5 589 c 0
 236.5 589.75 208 586.5 208 530 c 2
 208 505.25 l 2
 208 459.25 223 444.75 278.5 444.75 c 2
 384.5 444.75 l 2
 531.75 444.75 563.75 323.25 563.75 242.75 c 2
 563.75 201 l 2
 563.75 26 460 -8 361 -8 c 0
 208.5 -8 153.25 -3.75 66.75 23.75 c 1
 66.75 152 l 1
 106.75 148 230.5 141 323.5 141 c 0
 366 141 399.75 149.75 399.75 194.25 c 2
 399.75 223.25 l 2
 399.75 259.25 388.75 280.75 339.5 280.75 c 2
 237 280.75 l 2
 54.5 280.75 44 426.5 44 482.75 c 2
EndSplineSet
Substitution2: "'c2sc' Capitals to Small Capitals in Latin lookup 17 subtable" sacute.smcp
EndChar

StartChar: Scaron
Encoding: 302 352 216
Width: 593
VWidth: 0
Flags: HW
LayerCount: 2
Fore
SplineSet
154.133 936.137 m 1
 255.383 936.137 l 1
 312.133 880.137 l 1
 366.883 936.137 l 1
 468.633 936.137 l 1
 367.633 798.637 l 1
 251.633 798.637 l 1
 154.133 936.137 l 1
44 482.75 m 2
 44 545 l 2
 44 690 130 735.75 242 738 c 0
 366.25 741 472 728.75 537 707.25 c 1
 537 579 l 1
 473 585.25 344 589 294.5 589 c 0
 236.5 589.75 208 586.5 208 530 c 2
 208 505.25 l 2
 208 459.25 223 444.75 278.5 444.75 c 2
 384.5 444.75 l 2
 531.75 444.75 563.75 323.25 563.75 242.75 c 2
 563.75 201 l 2
 563.75 26 460 -8 361 -8 c 0
 208.5 -8 153.25 -3.75 66.75 23.75 c 1
 66.75 152 l 1
 106.75 148 230.5 141 323.5 141 c 0
 366 141 399.75 149.75 399.75 194.25 c 2
 399.75 223.25 l 2
 399.75 259.25 388.75 280.75 339.5 280.75 c 2
 237 280.75 l 2
 54.5 280.75 44 426.5 44 482.75 c 2
EndSplineSet
Substitution2: "'c2sc' Capitals to Small Capitals in Latin lookup 17 subtable" scaron.smcp
EndChar

StartChar: Scedilla
Encoding: 303 350 217
Width: 593
VWidth: 0
Flags: HW
LayerCount: 2
Fore
SplineSet
196 -118.5 m 1
 237 -103.5 l 1
 265 -91.5 266 -81.5 266 -43.5 c 1
 370.5 -43.5 l 1
 370.5 -145.5 343.5 -187 254.5 -187 c 2
 196 -187 l 1
 196 -118.5 l 1
44 482.75 m 2
 44 545 l 2
 44 690 130 735.75 242 738 c 0
 366.25 741 472 728.75 537 707.25 c 1
 537 579 l 1
 473 585.25 344 589 294.5 589 c 0
 236.5 589.75 208 586.5 208 530 c 2
 208 505.25 l 2
 208 459.25 223 444.75 278.5 444.75 c 2
 384.5 444.75 l 2
 531.75 444.75 563.75 323.25 563.75 242.75 c 2
 563.75 201 l 2
 563.75 26 460 -8 361 -8 c 0
 208.5 -8 153.25 -3.75 66.75 23.75 c 1
 66.75 152 l 1
 106.75 148 230.5 141 323.5 141 c 0
 366 141 399.75 149.75 399.75 194.25 c 2
 399.75 223.25 l 2
 399.75 259.25 388.75 280.75 339.5 280.75 c 2
 237 280.75 l 2
 54.5 280.75 44 426.5 44 482.75 c 2
EndSplineSet
Substitution2: "'c2sc' Capitals to Small Capitals in Latin lookup 17 subtable" scedilla.smcp
EndChar

StartChar: Tcaron
Encoding: 304 356 218
Width: 599
VWidth: 0
Flags: HW
LayerCount: 2
Fore
SplineSet
143 934.5 m 1
 244.25 934.5 l 1
 301 878.5 l 1
 355.75 934.5 l 1
 457.5 934.5 l 1
 356.5 797 l 1
 240.5 797 l 1
 143 934.5 l 1
26.25 583 m 1
 26.25 732 l 1
 579.25 732 l 1
 579.25 583 l 1
 381.75 583 l 1
 381.75 0 l 1
 217.75 0 l 1
 217.75 583 l 1
 26.25 583 l 1
EndSplineSet
Substitution2: "'c2sc' Capitals to Small Capitals in Latin lookup 17 subtable" tcaron.smcp
EndChar

StartChar: Zacute
Encoding: 305 377 219
Width: 554
VWidth: 0
Flags: HW
LayerCount: 2
Fore
SplineSet
228.25 797 m 1
 312.75 937.5 l 1
 445.25 937.5 l 1
 327.25 797 l 1
 228.25 797 l 1
23.75 0 m 1
 23.75 149 l 1
 337.25 583 l 1
 23.75 583 l 1
 23.75 732 l 1
 531.75 732 l 1
 531.75 583 l 1
 240.75 149 l 1
 531.75 149 l 1
 531.75 0 l 1
 23.75 0 l 1
EndSplineSet
Substitution2: "'c2sc' Capitals to Small Capitals in Latin lookup 17 subtable" zacute.smcp
EndChar

StartChar: Zcaron
Encoding: 306 381 220
Width: 554
VWidth: 0
Flags: HW
LayerCount: 2
Fore
SplineSet
120.5 934.5 m 1
 221.75 934.5 l 1
 278.5 878.5 l 1
 333.25 934.5 l 1
 435 934.5 l 1
 334 797 l 1
 218 797 l 1
 120.5 934.5 l 1
23.75 0 m 1
 23.75 149 l 1
 337.25 583 l 1
 23.75 583 l 1
 23.75 732 l 1
 531.75 732 l 1
 531.75 583 l 1
 240.75 149 l 1
 531.75 149 l 1
 531.75 0 l 1
 23.75 0 l 1
EndSplineSet
Substitution2: "'c2sc' Capitals to Small Capitals in Latin lookup 17 subtable" zcaron.smcp
EndChar

StartChar: Zdotaccent
Encoding: 307 379 221
Width: 554
VWidth: 0
Flags: HW
LayerCount: 2
Fore
SplineSet
214.25 820 m 2
 214.25 904 l 2
 214.25 919 222.25 929 238.25 929 c 2
 318.25 929 l 2
 333.25 929 341.25 918 341.25 904 c 2
 341.25 820 l 2
 341.25 805 332.25 797 318.25 797 c 2
 238.25 797 l 2
 224.25 797 214.25 806 214.25 820 c 2
23.75 0 m 1
 23.75 149 l 1
 337.25 583 l 1
 23.75 583 l 1
 23.75 732 l 1
 531.75 732 l 1
 531.75 583 l 1
 240.75 149 l 1
 531.75 149 l 1
 531.75 0 l 1
 23.75 0 l 1
EndSplineSet
Substitution2: "'c2sc' Capitals to Small Capitals in Latin lookup 17 subtable" zdotaccent.smcp
EndChar

StartChar: aogonek
Encoding: 308 261 222
Width: 519
VWidth: 0
Flags: HW
LayerCount: 2
Fore
SplineSet
190.5 164 m 2
 190.5 121.25 214 120.5 236.75 120.5 c 0
 287.5 120.5 322.25 158 322.25 158 c 1
 322.25 238.75 l 1
 227.75 231 l 2
 193 227.75 190.5 201 190.5 181 c 2
 190.5 164 l 2
26.5 138.75 m 2
 26.5 184.75 l 2
 26.5 261 65.25 335 190.25 335 c 2
 190.25 335 322.25 334 322.25 335 c 2
 322.25 335 323.25 356 322.25 357 c 1
 322.25 412 297.75 416.5 255.25 416.5 c 0
 218.5 416.5 68.5 407 44.25 405.25 c 1
 44.25 503.5 l 1
 113.75 533.25 181 540.75 280 541 c 0
 405.75 541.25 486.25 503.75 486.25 364.5 c 2
 486.25 0 l 1
 454.805 -2.77556e-17 l 1
 376.842 -56.6427 419.029 -109.707 465.7 -105.714 c 1
 465.7 -188.214 l 1
 362.832 -217.676 254.478 -74.5806 393.166 -5.82592e-07 c 1
 355.5 0 l 1
 322.25 56.5 l 1
 315 40.75 260.25 -8.25 182.75 -6 c 0
 70 -2.25 26.5 75.5 26.5 138.75 c 2
EndSplineSet
AlternateSubs2: "'salt' Access All Alternates in Latin lookup 4-1" aogonek.salt
Substitution2: "'smcp' Lowercase to Small Capitals lookup 16-1" aogonek.smcp
EndChar

StartChar: lcaron
Encoding: 309 318 223
Width: 379
VWidth: 0
Flags: HW
LayerCount: 2
Fore
SplineSet
265.5 714.75 m 1
 265.5 781.75 l 1
 369.5 781.75 l 1
 369.5 714.75 l 1
 359.5 580.75 l 1
 276.5 580.75 l 1
 265.5 714.75 l 1
40.5 189 m 2
 40.5 783 l 1
 204.5 783 l 1
 204.5 219 l 2
 204.5 145.5 219.25 131 246.5 119 c 1
 246.5 119 298.5 98 305.5 98 c 1
 305.5 0 l 1
 180 0 l 2
 85.25 0 40.5 48 40.5 189 c 2
EndSplineSet
Substitution2: "'smcp' Lowercase to Small Capitals lookup 16-1" lcaron.smcp
EndChar

StartChar: sacute
Encoding: 310 347 224
Width: 509
VWidth: 0
Flags: HW
LayerCount: 2
Fore
SplineSet
209 597.25 m 1
 293.5 737.75 l 1
 426 737.75 l 1
 308 597.25 l 1
 209 597.25 l 1
26.5 343 m 2
 26.5 389 l 2
 26.5 471 61.5 536 164.5 536 c 0
 284.75 536 419.25 535.5 456.25 505 c 1
 456.25 405.25 l 1
 223 405.25 l 2
 197.25 405.25 190.5 399 190.5 377 c 2
 190.5 361 l 2
 190.5 335.25 204.75 334.75 223 334.75 c 2
 337.5 334.75 l 2
 444 334.75 482.5 272.5 482.5 194.5 c 2
 482.5 138 l 2
 482.5 29 416.5 -5 352.5 -5 c 0
 233 -5 85 -4.25 48.5 27.5 c 1
 48.5 126.75 l 1
 291 126.75 l 2
 303.75 126.75 318.5 130.5 318.5 153 c 2
 318.5 169 l 2
 318.5 186.75 314 196.25 291 196.25 c 2
 179.5 196.25 l 2
 85.5 196.25 26.5 240 26.5 343 c 2
EndSplineSet
Substitution2: "'smcp' Lowercase to Small Capitals lookup 16-1" sacute.smcp
EndChar

StartChar: scaron
Encoding: 311 353 225
Width: 509
VWidth: 0
Flags: HW
LayerCount: 2
Fore
SplineSet
104 734.75 m 1
 205.25 734.75 l 1
 262 678.75 l 1
 316.75 734.75 l 1
 418.5 734.75 l 1
 317.5 597.25 l 1
 201.5 597.25 l 1
 104 734.75 l 1
26.5 343 m 2
 26.5 389 l 2
 26.5 471 61.5 536 164.5 536 c 0
 284.75 536 419.25 535.5 456.25 505 c 1
 456.25 405.25 l 1
 223 405.25 l 2
 197.25 405.25 190.5 399 190.5 377 c 2
 190.5 361 l 2
 190.5 335.25 204.75 334.75 223 334.75 c 2
 337.5 334.75 l 2
 444 334.75 482.5 272.5 482.5 194.5 c 2
 482.5 138 l 2
 482.5 29 416.5 -5 352.5 -5 c 0
 233 -5 85 -4.25 48.5 27.5 c 1
 48.5 126.75 l 1
 291 126.75 l 2
 303.75 126.75 318.5 130.5 318.5 153 c 2
 318.5 169 l 2
 318.5 186.75 314 196.25 291 196.25 c 2
 179.5 196.25 l 2
 85.5 196.25 26.5 240 26.5 343 c 2
EndSplineSet
Substitution2: "'smcp' Lowercase to Small Capitals lookup 16-1" scaron.smcp
EndChar

StartChar: scedilla
Encoding: 312 351 226
Width: 509
VWidth: 0
Flags: HW
LayerCount: 2
Fore
SplineSet
58.25 -112.5 m 1
 99.25 -97.5 l 1
 127.25 -85.5 128.25 -75.5 128.25 -37.5 c 1
 232.75 -37.5 l 1
 232.75 -139.5 205.75 -181 116.75 -181 c 2
 58.25 -181 l 1
 58.25 -112.5 l 1
26.5 343 m 2
 26.5 389 l 2
 26.5 471 61.5 536 164.5 536 c 0
 284.75 536 419.25 535.5 456.25 505 c 1
 456.25 405.25 l 1
 223 405.25 l 2
 197.25 405.25 190.5 399 190.5 377 c 2
 190.5 361 l 2
 190.5 335.25 204.75 334.75 223 334.75 c 2
 337.5 334.75 l 2
 444 334.75 482.5 272.5 482.5 194.5 c 2
 482.5 138 l 2
 482.5 29 416.5 -5 352.5 -5 c 0
 233 -5 85 -4.25 48.5 27.5 c 1
 48.5 126.75 l 1
 291 126.75 l 2
 303.75 126.75 318.5 130.5 318.5 153 c 2
 318.5 169 l 2
 318.5 186.75 314 196.25 291 196.25 c 2
 179.5 196.25 l 2
 85.5 196.25 26.5 240 26.5 343 c 2
EndSplineSet
Substitution2: "'smcp' Lowercase to Small Capitals lookup 16-1" scedilla.smcp
EndChar

StartChar: tcaron
Encoding: 313 357 227
Width: 430
VWidth: 0
Flags: HW
LayerCount: 2
Fore
SplineSet
308.5 800.75 m 1
 412.75 800.75 l 1
 412.75 733.75 l 1
 402.5 599.75 l 1
 319.5 599.75 l 1
 308.75 733.75 l 1
 308.5 800.75 l 1
13.25 413 m 1
 13.25 499 l 1
 94.25 532 l 1
 119.75 680 l 1
 258.25 680 l 1
 258.25 532 l 1
 363.75 532 l 1
 363.75 413 l 1
 258.25 413 l 1
 258.25 220 l 2
 258.25 145 274.5 129.5 299.5 118.5 c 1
 299.5 118.5 351.5 97.5 358.5 97.5 c 1
 358.5 -0.5 l 1
 224 -0.5 l 2
 144.75 -0.5 94.25 49 94.25 190 c 2
 94.25 413 l 1
 13.25 413 l 1
EndSplineSet
AlternateSubs2: "'salt' Access All Alternates in Latin lookup 4-1" tcaron.salt
Substitution2: "'smcp' Lowercase to Small Capitals lookup 16-1" tcaron.smcp
EndChar

StartChar: zacute
Encoding: 314 378 228
Width: 480
VWidth: 0
Flags: HW
LayerCount: 2
Fore
SplineSet
191.25 596 m 1
 275.75 736.5 l 1
 408.25 736.5 l 1
 290.25 596 l 1
 191.25 596 l 1
20.25 397 m 1
 20.25 531 l 1
 461.25 531 l 1
 461.25 397 l 1
 254.5 135 l 1
 461.25 135 l 1
 462.25 134 461.25 1 461.25 1 c 1
 35.25 1 l 1
 35.25 133.5 l 1
 255.25 397 l 1
 20.25 397 l 1
EndSplineSet
Substitution2: "'smcp' Lowercase to Small Capitals lookup 16-1" zacute.smcp
EndChar

StartChar: zcaron
Encoding: 315 382 229
Width: 480
VWidth: 0
Flags: HW
LayerCount: 2
Fore
SplineSet
83.5 733.5 m 1
 184.75 733.5 l 1
 241.5 677.5 l 1
 296.25 733.5 l 1
 398 733.5 l 1
 297 596 l 1
 181 596 l 1
 83.5 733.5 l 1
20.25 397 m 1
 20.25 531 l 1
 461.25 531 l 1
 461.25 397 l 1
 254.5 135 l 1
 461.25 135 l 1
 462.25 134 461.25 1 461.25 1 c 1
 35.25 1 l 1
 35.25 133.5 l 1
 255.25 397 l 1
 20.25 397 l 1
EndSplineSet
Substitution2: "'smcp' Lowercase to Small Capitals lookup 16-1" zcaron.smcp
EndChar

StartChar: zdotaccent
Encoding: 316 380 230
Width: 480
VWidth: 0
Flags: HW
LayerCount: 2
Fore
SplineSet
177.25 619 m 2
 177.25 703 l 2
 177.25 718 185.25 728 201.25 728 c 2
 281.25 728 l 2
 296.25 728 304.25 717 304.25 703 c 2
 304.25 619 l 2
 304.25 604 295.25 596 281.25 596 c 2
 201.25 596 l 2
 187.25 596 177.25 605 177.25 619 c 2
20.25 397 m 1
 20.25 531 l 1
 461.25 531 l 1
 461.25 397 l 1
 254.5 135 l 1
 461.25 135 l 1
 462.25 134 461.25 1 461.25 1 c 1
 35.25 1 l 1
 35.25 133.5 l 1
 255.25 397 l 1
 20.25 397 l 1
EndSplineSet
Substitution2: "'smcp' Lowercase to Small Capitals lookup 16-1" zdotaccent.smcp
EndChar

StartChar: Racute
Encoding: 317 340 231
Width: 612
VWidth: 0
Flags: HW
LayerCount: 2
Fore
SplineSet
259.75 795.75 m 1
 344.25 936.25 l 1
 476.75 936.25 l 1
 358.75 795.75 l 1
 259.75 795.75 l 1
212.75 409 m 1
 352.5 409 l 2
 402.25 409 416.5 428.5 416.5 500.75 c 0
 416.5 566.5 396.5 589.5 352.5 589.5 c 2
 212.75 589.5 l 1
 212.75 409 l 1
48 0 m 1
 48 732 l 1
 371.25 732 l 2
 492.5 732 581.5 678.75 581.5 500.75 c 0
 581.5 322.75 514 299.25 468.75 283.25 c 1
 601.75 0 l 1
 416 0 l 1
 307 269 l 1
 212 283 l 1
 212 0 l 1
 48 0 l 1
EndSplineSet
Substitution2: "'c2sc' Capitals to Small Capitals in Latin lookup 17 subtable" racute.smcp
EndChar

StartChar: Abreve
Encoding: 318 258 232
Width: 700
VWidth: 0
Flags: HW
LayerCount: 2
Fore
SplineSet
249.125 911 m 1
 311.125 911 l 1
 311.125 878.75 330.875 859 363.125 859 c 0
 401.125 859 417.125 879.5 417.125 911 c 1
 479.125 911 l 1
 479.125 841 430.125 797 363.125 797 c 0
 297.625 797 249.125 842 249.125 911 c 1
289.75 289.25 m 1
 435 289.25 l 1
 365.75 521.5 l 1
 289.75 289.25 l 1
30 0 m 1
 269 732 l 1
 459.25 732 l 1
 690 0 l 1
 518.75 0 l 1
 470.75 147 l 1
 250 147 l 1
 202 0 l 1
 30 0 l 1
EndSplineSet
Substitution2: "'c2sc' Capitals to Small Capitals in Latin lookup 17 subtable" abreve.smcp
EndChar

StartChar: Lacute
Encoding: 319 313 233
Width: 533
VWidth: 0
Flags: HW
LayerCount: 2
Fore
SplineSet
86.25 797 m 1
 170.75 937.5 l 1
 303.25 937.5 l 1
 185.25 797 l 1
 86.25 797 l 1
53.75 148.5 m 2
 53.75 732 l 1
 217.75 732 l 1
 217.75 201 l 2
 217.75 148 250.75 149 279.75 149 c 2
 510.75 149 l 1
 510.75 0 l 1
 212.25 0 l 2
 127.5 0 53.75 35.5 53.75 148.5 c 2
EndSplineSet
Substitution2: "'c2sc' Capitals to Small Capitals in Latin lookup 17 subtable" lacute.smcp
EndChar

StartChar: Cacute
Encoding: 320 262 234
Width: 569
VWidth: 0
Flags: HW
LayerCount: 2
Fore
SplineSet
283.25 800 m 1
 367.75 940.5 l 1
 500.25 940.5 l 1
 382.25 800 l 1
 283.25 800 l 1
37 368 m 0
 37 602 88.75 740 287.75 740 c 0
 408.75 740 464.75 731 546.75 703.75 c 1
 546.75 575.75 l 1
 545.75 575.75 433 591 332.75 591 c 0
 238.5 591 201 579.75 201 366 c 0
 201 202 224.5 143 333.5 143 c 0
 438.5 143 546.75 151.5 546.75 151.5 c 1
 546.75 23.5 l 1
 482.75 0.75 411.75 -8.25 287.75 -6 c 0
 102.75 -3.75 37 129.75 37 368 c 0
EndSplineSet
Substitution2: "'c2sc' Capitals to Small Capitals in Latin lookup 17 subtable" cacute.smcp
EndChar

StartChar: Ccaron
Encoding: 321 268 235
Width: 569
VWidth: 0
Flags: HW
LayerCount: 2
Fore
SplineSet
182.75 937.5 m 1
 284 937.5 l 1
 340.75 881.5 l 1
 395.5 937.5 l 1
 497.25 937.5 l 1
 396.25 800 l 1
 280.25 800 l 1
 182.75 937.5 l 1
37 368 m 0
 37 602 88.75 740 287.75 740 c 0
 408.75 740 464.75 731 546.75 703.75 c 1
 546.75 575.75 l 1
 545.75 575.75 433 591 332.75 591 c 0
 238.5 591 201 579.75 201 366 c 0
 201 202 224.5 143 333.5 143 c 0
 438.5 143 546.75 151.5 546.75 151.5 c 1
 546.75 23.5 l 1
 482.75 0.75 411.75 -8.25 287.75 -6 c 0
 102.75 -3.75 37 129.75 37 368 c 0
EndSplineSet
Substitution2: "'c2sc' Capitals to Small Capitals in Latin lookup 17 subtable" ccaron.smcp
EndChar

StartChar: Eogonek
Encoding: 322 280 236
Width: 567
VWidth: 0
Flags: HW
LayerCount: 2
Fore
SplineSet
50 151.5 m 2
 50 572 l 2
 50 709.58 151.225 732.75 221 732 c 1
 221 732 457.5 728 545.25 716 c 1
 545.25 579.25 l 1
 266 579.25 l 2
 214 579.25 214 550.25 214 523.25 c 2
 214 440.25 l 1
 497.75 429.5 l 1
 497.75 294 l 1
 214 284.75 l 1
 214 201.75 l 2
 214.25 148.75 247 149.75 276 149.75 c 2
 545.25 149.75 l 1
 545.25 14 l 2
 544.936 13.9573 544.619 13.9147 544.3 13.8722 c 0
 467.036 -42.6299 509.139 -95.4523 555.708 -91.4678 c 1
 555.708 -173.968 l 1
 455.896 -202.555 350.92 -68.6861 471.459 7.4226 c 1
 371.551 0.854783 231 -3 231 -3 c 1
 165.975 -5.5 50 8.5 50 151.5 c 2
EndSplineSet
Substitution2: "'c2sc' Capitals to Small Capitals in Latin lookup 17 subtable" eogonek.smcp
EndChar

StartChar: Ecaron
Encoding: 323 282 237
Width: 567
VWidth: 0
Flags: HW
LayerCount: 2
Fore
SplineSet
163.75 933.25 m 1
 265 933.25 l 1
 321.75 877.25 l 1
 376.5 933.25 l 1
 478.25 933.25 l 1
 377.25 795.75 l 1
 261.25 795.75 l 1
 163.75 933.25 l 1
50 151.5 m 2
 50 572 l 2
 50 709.58 151.225 732.75 221 732 c 1
 221 732 457.5 728 545.25 716 c 1
 545.25 579.25 l 1
 266 579.25 l 2
 214 579.25 214 550.25 214 523.25 c 2
 214 440.25 l 1
 497.75 429.5 l 1
 497.75 294 l 1
 214 284.75 l 1
 214 201.75 l 2
 214.25 148.75 247 149.75 276 149.75 c 2
 545.25 149.75 l 1
 545.25 14 l 1
 468 3.5 231 -3 231 -3 c 1
 165.975 -5.5 50 8.5 50 151.5 c 2
EndSplineSet
Substitution2: "'c2sc' Capitals to Small Capitals in Latin lookup 17 subtable" ecaron.smcp
EndChar

StartChar: Dcaron
Encoding: 324 270 238
Width: 664
VWidth: 0
Flags: HW
LayerCount: 2
Fore
SplineSet
160.75 933.25 m 1
 262 933.25 l 1
 318.75 877.25 l 1
 373.5 933.25 l 1
 475.25 933.25 l 1
 374.25 795.75 l 1
 258.25 795.75 l 1
 160.75 933.25 l 1
217.75 142.25 m 1
 364 142.25 l 2
 439.75 142.25 466.75 219.75 466.75 364 c 0
 466.75 553.25 428.25 590.5 364 590.5 c 2
 217.75 590.5 l 1
 217.75 142.25 l 1
53.75 0 m 1
 53.75 732 l 1
 379 732 l 2
 584.5 732 630.75 555.75 630.75 363 c 0
 630.75 129.5 552.5 0 379 0 c 2
 53.75 0 l 1
EndSplineSet
Substitution2: "'c2sc' Capitals to Small Capitals in Latin lookup 17 subtable" dcaron.smcp
EndChar

StartChar: Nacute
Encoding: 325 323 239
Width: 677
VWidth: 0
Flags: HW
LayerCount: 2
Fore
SplineSet
298.875 797 m 1
 383.375 937.5 l 1
 515.875 937.5 l 1
 397.875 797 l 1
 298.875 797 l 1
53.75 0 m 1
 53.75 732 l 1
 219.75 732 l 1
 474 303 l 1
 474 732 l 1
 638 732 l 1
 638 0 l 1
 474 0 l 1
 218.75 421.5 l 1
 218.75 0 l 1
 53.75 0 l 1
EndSplineSet
AlternateSubs2: "'salt' Access All Alternates in Latin lookup 4-1" Nacute.salt
Substitution2: "'c2sc' Capitals to Small Capitals in Latin lookup 17 subtable" nacute.smcp
EndChar

StartChar: Ncaron
Encoding: 326 327 240
Width: 677
VWidth: 0
Flags: HW
LayerCount: 2
Fore
SplineSet
191.125 934.5 m 1
 292.375 934.5 l 1
 349.125 878.5 l 1
 403.875 934.5 l 1
 505.625 934.5 l 1
 404.625 797 l 1
 288.625 797 l 1
 191.125 934.5 l 1
53.75 0 m 1
 53.75 732 l 1
 219.75 732 l 1
 474 303 l 1
 474 732 l 1
 638 732 l 1
 638 0 l 1
 474 0 l 1
 218.75 421.5 l 1
 218.75 0 l 1
 53.75 0 l 1
EndSplineSet
AlternateSubs2: "'salt' Access All Alternates in Latin lookup 4-1" Ncaron.salt
Substitution2: "'c2sc' Capitals to Small Capitals in Latin lookup 17 subtable" ncaron.smcp
EndChar

StartChar: Ohungarumlaut
Encoding: 327 336 241
Width: 669
VWidth: 0
Flags: HW
LayerCount: 2
Fore
SplineSet
374.5 797 m 1
 459 937.5 l 1
 591.5 937.5 l 1
 473.5 797 l 1
 374.5 797 l 1
211 797 m 1
 295.5 937.5 l 1
 428 937.5 l 1
 310 797 l 1
 211 797 l 1
208 361 m 0
 208 182 229.25 145 342.25 145 c 0
 445.75 145 476 182.5 476 361 c 0
 476 563.25 444.5 588 342.25 588 c 0
 243 588 208 570 208 361 c 0
44 361 m 0
 44 704 174.25 737 342.25 737 c 0
 515.25 737 640 704 640 361 c 0
 640 38 522.25 -4 342.25 -4 c 0
 162.25 -4 44 28 44 361 c 0
EndSplineSet
Substitution2: "'c2sc' Capitals to Small Capitals in Latin lookup 17 subtable" ohungarumlaut.smcp
EndChar

StartChar: Rcaron
Encoding: 328 344 242
Width: 612
VWidth: 0
Flags: HW
LayerCount: 2
Fore
SplineSet
154.5 934.5 m 1
 255.75 934.5 l 1
 312.5 878.5 l 1
 367.25 934.5 l 1
 469 934.5 l 1
 368 797 l 1
 252 797 l 1
 154.5 934.5 l 1
212.75 409 m 1
 352.5 409 l 2
 402.25 409 416.5 428.5 416.5 500.75 c 0
 416.5 566.5 396.5 589.5 352.5 589.5 c 2
 212.75 589.5 l 1
 212.75 409 l 1
48 0 m 1
 48 732 l 1
 371.25 732 l 2
 492.5 732 581.5 678.75 581.5 500.75 c 0
 581.5 322.75 514 299.25 468.75 283.25 c 1
 601.75 0 l 1
 416 0 l 1
 307 269 l 1
 212 283 l 1
 212 0 l 1
 48 0 l 1
EndSplineSet
Substitution2: "'c2sc' Capitals to Small Capitals in Latin lookup 17 subtable" rcaron.smcp
EndChar

StartChar: Uring
Encoding: 329 366 243
Width: 660
VWidth: 0
Flags: HW
LayerCount: 2
Fore
SplineSet
298.5 899 m 0
 298.5 877.25 316 860.75 337.75 860.75 c 0
 359.5 860.75 376 877.25 376 899 c 0
 376 920.75 359.5 938.25 337.75 938.25 c 0
 316 938.25 298.5 920.75 298.5 899 c 0
235.75 899 m 0
 235.75 956 281.75 1002 337.75 1002 c 0
 393.75 1002 438.75 956 438.75 899 c 0
 438.75 842 393.75 797 337.75 797 c 0
 281.75 797 235.75 842 235.75 899 c 0
53.75 320 m 2
 53.75 732 l 1
 217.75 732 l 1
 217.75 320 l 2
 217.75 185.25 239.25 144 339.75 144 c 0
 431.25 144 455.75 190.25 455.75 320 c 2
 455.75 732 l 1
 620.75 732 l 1
 620.75 320 l 2
 620.75 -3 460.75 -5 339.75 -5 c 0
 203.75 -5 53.75 -13 53.75 320 c 2
EndSplineSet
Substitution2: "'c2sc' Capitals to Small Capitals in Latin lookup 17 subtable" uring.smcp
EndChar

StartChar: Uhungarumlaut
Encoding: 330 368 244
Width: 660
VWidth: 0
Flags: HW
LayerCount: 2
Fore
SplineSet
369.5 797 m 1
 454 937.5 l 1
 586.5 937.5 l 1
 468.5 797 l 1
 369.5 797 l 1
206 797 m 1
 290.5 937.5 l 1
 423 937.5 l 1
 305 797 l 1
 206 797 l 1
53.75 320 m 2
 53.75 732 l 1
 217.75 732 l 1
 217.75 320 l 2
 217.75 185.25 239.25 144 339.75 144 c 0
 431.25 144 455.75 190.25 455.75 320 c 2
 455.75 732 l 1
 620.75 732 l 1
 620.75 320 l 2
 620.75 -3 460.75 -5 339.75 -5 c 0
 203.75 -5 53.75 -13 53.75 320 c 2
EndSplineSet
Substitution2: "'c2sc' Capitals to Small Capitals in Latin lookup 17 subtable" uhungarumlaut.smcp
EndChar

StartChar: Tcommaaccent
Encoding: 331 354 245
Width: 599
VWidth: 0
Flags: HW
LayerCount: 2
Fore
SplineSet
65 -115 m 1
 106 -100 l 1
 134 -88 135 -78 135 -40 c 1
 239.5 -40 l 1
 239.5 -142 212.5 -183.5 123.5 -183.5 c 2
 65 -183.5 l 1
 65 -115 l 1
26.25 583 m 1
 26.25 732 l 1
 579.25 732 l 1
 579.25 583 l 1
 381.75 583 l 1
 381.75 0 l 1
 217.75 0 l 1
 217.75 583 l 1
 26.25 583 l 1
EndSplineSet
Substitution2: "'c2sc' Capitals to Small Capitals in Latin lookup 17 subtable" tcommaaccent.smcp
EndChar

StartChar: racute
Encoding: 332 341 246
Width: 414
VWidth: 0
Flags: HW
LayerCount: 2
Fore
SplineSet
172.625 596.5 m 1
 257.125 737 l 1
 389.625 737 l 1
 271.625 596.5 l 1
 172.625 596.5 l 1
40.5 0 m 1
 40.5 531 l 1
 182.5 531 l 1
 204.5 464 l 1
 232.5 499.75 280 536.25 340.25 536.25 c 0
 361 536.25 379 535.75 394 530.5 c 1
 394 372.75 l 1
 379 373.5 346.75 374.25 316.25 374.25 c 0
 266.25 374.25 223.75 369 204.5 314.75 c 1
 204.5 0 l 1
 40.5 0 l 1
EndSplineSet
AlternateSubs2: "'salt' Access All Alternates in Latin lookup 4-1" racute.salt
Substitution2: "'smcp' Lowercase to Small Capitals lookup 16-1" racute.smcp
EndChar

StartChar: abreve
Encoding: 333 259 247
Width: 519
VWidth: 0
Flags: HW
LayerCount: 2
Fore
SplineSet
154.25 715 m 1
 216.25 715 l 1
 216.25 682.75 236 663 268.25 663 c 0
 306.25 663 322.25 683.5 322.25 715 c 1
 384.25 715 l 1
 384.25 645 335.25 601 268.25 601 c 0
 202.75 601 154.25 646 154.25 715 c 1
190.5 164 m 2
 190.5 121.25 214 120.5 236.75 120.5 c 0
 287.5 120.5 322.25 158 322.25 158 c 1
 322.25 238.75 l 1
 227.75 231 l 2
 193 227.75 190.5 201 190.5 181 c 2
 190.5 164 l 2
26.5 138.75 m 2
 26.5 184.75 l 2
 26.5 261 65.25 335 190.25 335 c 2
 190.25 335 322.25 334 322.25 335 c 2
 322.25 335 323.25 356 322.25 357 c 1
 322.25 412 297.75 416.5 255.25 416.5 c 0
 218.5 416.5 68.5 407 44.25 405.25 c 1
 44.25 503.5 l 1
 113.75 533.25 181 540.75 280 541 c 0
 405.75 541.25 486.25 503.75 486.25 364.5 c 2
 486.25 0 l 1
 355.5 0 l 1
 322.25 56.5 l 1
 315 40.75 260.25 -8.25 182.75 -6 c 0
 70 -2.25 26.5 75.5 26.5 138.75 c 2
EndSplineSet
Substitution2: "'smcp' Lowercase to Small Capitals lookup 16-1" abreve.smcp
EndChar

StartChar: lacute
Encoding: 334 314 248
Width: 318
VWidth: 0
Flags: HW
LayerCount: 2
Fore
SplineSet
80.875 843 m 1
 165.375 983.5 l 1
 297.875 983.5 l 1
 179.875 843 l 1
 80.875 843 l 1
40.5 189 m 2
 40.5 783 l 1
 204.5 783 l 1
 204.5 219 l 2
 204.5 145.5 221.5 130 246.5 119 c 1
 246.5 119 298.5 98 305.5 98 c 1
 305.5 0 l 1
 180 0 l 2
 89.5 0 40.5 48 40.5 189 c 2
EndSplineSet
Substitution2: "'smcp' Lowercase to Small Capitals lookup 16-1" lacute.smcp
EndChar

StartChar: cacute
Encoding: 335 263 249
Width: 492
VWidth: 0
Flags: HW
LayerCount: 2
Fore
SplineSet
227.009 596.645 m 1
 311.509 737.145 l 1
 444.009 737.145 l 1
 326.009 596.645 l 1
 227.009 596.645 l 1
33.5 266 m 0
 33.5 480 106.5 536 208.5 536 c 0
 260.5 536 365 536.5 459 502.5 c 1
 459 403.5 l 1
 459 403.5 379.25 409.5 290.25 409.5 c 0
 224.25 409.5 197.5 408.25 197.5 263.5 c 0
 197.5 133.75 218.25 121.5 290.25 121.5 c 0
 382.25 121.5 466 130.25 466 130.25 c 1
 466 30.75 l 1
 389.5 -14.75 291.5 -4 208.5 -5 c 1
 109.5 -5 33.5 51.75 33.5 266 c 0
EndSplineSet
Substitution2: "'smcp' Lowercase to Small Capitals lookup 16-1" cacute.smcp
EndChar

StartChar: ccaron
Encoding: 336 269 250
Width: 492
VWidth: 0
Flags: HW
LayerCount: 2
Fore
SplineSet
114.634 734.145 m 1
 215.884 734.145 l 1
 272.634 678.145 l 1
 327.384 734.145 l 1
 429.134 734.145 l 1
 328.134 596.645 l 1
 212.134 596.645 l 1
 114.634 734.145 l 1
33.5 266 m 0
 33.5 480 106.5 536 208.5 536 c 0
 260.5 536 365 536.5 459 502.5 c 1
 459 403.5 l 1
 459 403.5 379.25 409.5 290.25 409.5 c 0
 224.25 409.5 197.5 408.25 197.5 263.5 c 0
 197.5 133.75 218.25 121.5 290.25 121.5 c 0
 382.25 121.5 466 130.25 466 130.25 c 1
 466 30.75 l 1
 389.5 -14.75 291.5 -4 208.5 -5 c 1
 109.5 -5 33.5 51.75 33.5 266 c 0
EndSplineSet
Substitution2: "'smcp' Lowercase to Small Capitals lookup 16-1" ccaron.smcp
EndChar

StartChar: eogonek
Encoding: 337 281 251
Width: 525
VWidth: 0
Flags: HW
LayerCount: 2
Fore
SplineSet
197.5 313 m 1
 297 313 l 2
 320.75 313 334.5 326.75 334.5 349.25 c 0
 334.5 402.5 328.75 416 276.25 416 c 0
 216.5 416 196 410.5 197.5 313 c 1
33.5 268 m 0
 33.5 493 95.5 535 265.5 535 c 0
 429.5 535 498.5 515.5 498.5 339.5 c 0
 498.5 238.5 442.5 202.5 346.5 202.5 c 2
 197.5 202.5 l 1
 197.5 117.25 238.5 120.75 313.5 120.75 c 0
 390.5 120.75 413.5 120.5 488.5 131.5 c 1
 488.5 23 l 1
 410 -33.75 452.25 -87 499 -83 c 1
 499 -165.5 l 1
 405.134 -192.384 306.7 -75.5898 395.563 1.72177 c 1
 332.628 -5.72698 261.996 -5 208.5 -5 c 0
 73.5 -5 33.5 78 33.5 268 c 0
EndSplineSet
Substitution2: "'smcp' Lowercase to Small Capitals lookup 16-1" eogonek.smcp
EndChar

StartChar: ecaron
Encoding: 338 283 252
Width: 525
VWidth: 0
Flags: HW
LayerCount: 2
Fore
SplineSet
118 732.25 m 1
 219.25 732.25 l 1
 276 676.25 l 1
 330.75 732.25 l 1
 432.5 732.25 l 1
 331.5 594.75 l 1
 215.5 594.75 l 1
 118 732.25 l 1
197.5 313 m 1
 297 313 l 2
 320.75 313 334.5 326.75 334.5 349.25 c 0
 334.5 402.5 328.75 416 276.25 416 c 0
 216.5 416 196 410.5 197.5 313 c 1
33.5 268 m 0
 33.5 493 95.5 535 265.5 535 c 0
 429.5 535 498.5 515.5 498.5 339.5 c 0
 498.5 238.5 442.5 202.5 346.5 202.5 c 2
 197.5 202.5 l 1
 197.5 117.25 238.5 120.75 313.5 120.75 c 0
 390.5 120.75 413.5 120.5 488.5 131.5 c 1
 488.5 23 l 1
 415.75 -6.75 291.5 -5 208.5 -5 c 0
 73.5 -5 33.5 78 33.5 268 c 0
EndSplineSet
Substitution2: "'smcp' Lowercase to Small Capitals lookup 16-1" ecaron.smcp
EndChar

StartChar: dcaron
Encoding: 339 271 253
Width: 627
VWidth: 0
Flags: HW
LayerCount: 2
Fore
SplineSet
570.25 781.5 m 1
 674.5 781.5 l 1
 674.5 714.5 l 1
 664.25 580.5 l 1
 580.5 580.5 l 1
 570.5 714.5 l 1
 570.25 781.5 l 1
197.5 270.5 m 0
 197.5 156.25 217.75 130.25 255.75 130.25 c 0
 298.75 130.25 333.25 140 354.25 158.25 c 1
 354.25 398.5 l 1
 329.5 411.25 293.75 416.25 255.75 416.25 c 0
 218.75 416.25 197.5 396 197.5 270.5 c 0
33.5 263 m 0
 33.5 444.75 60.5 539 206.25 539 c 0
 251.25 539 311.25 527.25 354.25 506.5 c 1
 354.25 785 l 1
 518 785 l 1
 518 0 l 1
 380.25 0 l 1
 354.25 51.5 l 1
 318.5 22 267.5 -6 206.25 -6 c 0
 80.75 -6 33.5 81.75 33.5 263 c 0
EndSplineSet
AlternateSubs2: "'salt' Access All Alternates in Latin lookup 4-1" dcaron.salt
Substitution2: "'smcp' Lowercase to Small Capitals lookup 16-1" dcaron.smcp
EndChar

StartChar: nacute
Encoding: 340 324 254
Width: 552
VWidth: 0
Flags: HW
LayerCount: 2
Fore
SplineSet
229.625 600 m 1
 314.125 740.5 l 1
 446.625 740.5 l 1
 328.625 600 l 1
 229.625 600 l 1
40.5 0 m 1
 40.5 531 l 1
 175 531 l 1
 204.5 476.5 l 1
 244.5 508.5 282 540 363 540 c 0
 493 540 519.5 453.5 519.5 347.5 c 2
 519.5 0 l 1
 355.5 0 l 1
 355.5 350.5 l 2
 355.5 398.5 337.5 413.5 308.25 413.5 c 0
 260.5 413.5 232.75 401 204.5 371.5 c 1
 204.5 0 l 1
 40.5 0 l 1
EndSplineSet
AlternateSubs2: "'salt' Access All Alternates in Latin lookup 4-1" nacute.salt
Substitution2: "'smcp' Lowercase to Small Capitals lookup 16-1" nacute.smcp
EndChar

StartChar: ncaron
Encoding: 341 328 255
Width: 552
VWidth: 0
Flags: HW
LayerCount: 2
Fore
SplineSet
125.5 737.5 m 1
 226.75 737.5 l 1
 283.5 681.5 l 1
 338.25 737.5 l 1
 440 737.5 l 1
 339 600 l 1
 223 600 l 1
 125.5 737.5 l 1
40.5 0 m 1
 40.5 531 l 1
 175 531 l 1
 204.5 476.5 l 1
 244.5 508.5 282 540 363 540 c 0
 493 540 519.5 453.5 519.5 347.5 c 2
 519.5 0 l 1
 355.5 0 l 1
 355.5 350.5 l 2
 355.5 398.5 337.5 413.5 308.25 413.5 c 0
 260.5 413.5 232.75 401 204.5 371.5 c 1
 204.5 0 l 1
 40.5 0 l 1
EndSplineSet
AlternateSubs2: "'salt' Access All Alternates in Latin lookup 4-1" ncaron.salt
Substitution2: "'smcp' Lowercase to Small Capitals lookup 16-1" ncaron.smcp
EndChar

StartChar: ohungarumlaut
Encoding: 342 337 256
Width: 557
VWidth: 0
Flags: HW
LayerCount: 2
Fore
SplineSet
311 596 m 1
 395.5 736.5 l 1
 528 736.5 l 1
 410 596 l 1
 311 596 l 1
147.5 596 m 1
 232 736.5 l 1
 364.5 736.5 l 1
 246.5 596 l 1
 147.5 596 l 1
197.5 258 m 0
 197.5 135 214.75 121.5 278.75 121.5 c 0
 347 121.5 360 131 360 258 c 0
 360 391.75 350 409.5 278.75 409.5 c 0
 206.5 409.5 197.5 391.25 197.5 258 c 0
33.5 258 m 0
 33.5 475 97.25 536 278.75 536 c 0
 463 536 524 469 524 258 c 0
 524 61 466.75 -5 278.75 -5 c 0
 93.75 -5 33.5 68 33.5 258 c 0
EndSplineSet
Substitution2: "'smcp' Lowercase to Small Capitals lookup 16-1" ohungarumlaut.smcp
EndChar

StartChar: rcaron
Encoding: 343 345 257
Width: 414
VWidth: 0
Flags: HW
LayerCount: 2
Fore
SplineSet
60 733.75 m 1
 161.25 733.75 l 1
 218 677.75 l 1
 272.75 733.75 l 1
 374.5 733.75 l 1
 273.5 596.25 l 1
 157.5 596.25 l 1
 60 733.75 l 1
40.5 0 m 1
 40.5 531 l 1
 182.5 531 l 1
 204.5 464 l 1
 232.5 499.75 280 536.25 340.25 536.25 c 0
 361 536.25 379 535.75 394 530.5 c 1
 394 372.75 l 1
 379 373.5 346.75 374.25 316.25 374.25 c 0
 266.25 374.25 223.75 369 204.5 314.75 c 1
 204.5 0 l 1
 40.5 0 l 1
EndSplineSet
AlternateSubs2: "'salt' Access All Alternates in Latin lookup 4-1" rcaron.salt
Substitution2: "'smcp' Lowercase to Small Capitals lookup 16-1" rcaron.smcp
EndChar

StartChar: uring
Encoding: 344 367 258
Width: 552
VWidth: 0
Flags: HW
LayerCount: 2
Fore
SplineSet
234.25 698 m 0
 234.25 676.25 251.75 659.75 273.5 659.75 c 0
 295.25 659.75 311.75 676.25 311.75 698 c 0
 311.75 719.75 295.25 737.25 273.5 737.25 c 0
 251.75 737.25 234.25 719.75 234.25 698 c 0
171.5 698 m 0
 171.5 755 217.5 801 273.5 801 c 0
 329.5 801 374.5 755 374.5 698 c 0
 374.5 641 329.5 596 273.5 596 c 0
 217.5 596 171.5 641 171.5 698 c 0
33.5 183.5 m 2
 33.5 531 l 1
 197.5 531 l 1
 197.5 180.5 l 2
 197.5 132.5 215.5 117.5 244.75 117.5 c 0
 292.5 117.5 320.25 130 348.5 159.5 c 1
 348.5 531 l 1
 512.5 531 l 1
 512.5 0 l 1
 378 0 l 1
 348.5 54.5 l 1
 298.75 24 271 -9 190 -9 c 0
 60 -9 33.5 77.5 33.5 183.5 c 2
EndSplineSet
AlternateSubs2: "'salt' Access All Alternates in Latin lookup 4-1" uring.salt
Substitution2: "'smcp' Lowercase to Small Capitals lookup 16-1" uring.smcp
EndChar

StartChar: uhungarumlaut
Encoding: 345 369 259
Width: 552
VWidth: 0
Flags: HW
LayerCount: 2
Fore
SplineSet
305.25 596 m 1
 389.75 736.5 l 1
 522.25 736.5 l 1
 404.25 596 l 1
 305.25 596 l 1
141.75 596 m 1
 226.25 736.5 l 1
 358.75 736.5 l 1
 240.75 596 l 1
 141.75 596 l 1
33.5 183.5 m 2
 33.5 531 l 1
 197.5 531 l 1
 197.5 180.5 l 2
 197.5 132.5 215.5 117.5 244.75 117.5 c 0
 292.5 117.5 320.25 130 348.5 159.5 c 1
 348.5 531 l 1
 512.5 531 l 1
 512.5 0 l 1
 378 0 l 1
 348.5 54.5 l 1
 298.75 24 271 -9 190 -9 c 0
 60 -9 33.5 77.5 33.5 183.5 c 2
EndSplineSet
AlternateSubs2: "'salt' Access All Alternates in Latin lookup 4-1" uhungarumlaut.salt
Substitution2: "'smcp' Lowercase to Small Capitals lookup 16-1" uhungarumlaut.smcp
EndChar

StartChar: tcommaaccent
Encoding: 346 355 260
Width: 383
VWidth: 0
Flags: HW
LayerCount: 2
Fore
SplineSet
44 -115.5 m 1
 85 -100.5 l 1
 113 -88.5 114 -78.5 114 -40.5 c 1
 218.5 -40.5 l 1
 218.5 -142.5 191.5 -184 102.5 -184 c 2
 44 -184 l 1
 44 -115.5 l 1
13.25 413 m 1
 13.25 499 l 1
 94.25 532 l 1
 119.75 680 l 1
 258.25 680 l 1
 258.25 532 l 1
 363.75 532 l 1
 363.75 413 l 1
 258.25 413 l 1
 258.25 220 l 2
 258.25 145 274.5 129.5 299.5 118.5 c 1
 299.5 118.5 351.5 97.5 358.5 97.5 c 1
 358.5 -0.5 l 1
 224 -0.5 l 2
 144.75 -0.5 94.25 49 94.25 190 c 2
 94.25 413 l 1
 13.25 413 l 1
EndSplineSet
AlternateSubs2: "'salt' Access All Alternates in Latin lookup 4-1" tcommaaccent.salt
Substitution2: "'smcp' Lowercase to Small Capitals lookup 16-1" tcommaaccent.smcp
EndChar

StartChar: Lslash
Encoding: 347 321 261
Width: 575
VWidth: 0
Flags: HW
LayerCount: 2
Fore
SplineSet
20.25 299.75 m 1
 20.25 375.75 l 1
 96.5 408 l 1
 96.5 732 l 1
 260.5 732 l 1
 260.5 478.25 l 1
 363 521.75 l 1
 362.75 446 l 1
 260.5 402.25 l 1
 260.5 201 l 2
 260.5 148 293.5 149 322.5 149 c 2
 553.5 149 l 1
 553.5 0 l 1
 255 0 l 2
 170.248 0 96.5 35.5 96.5 148.5 c 2
 96.5 332 l 1
 20.25 299.75 l 1
EndSplineSet
Substitution2: "'c2sc' Capitals to Small Capitals in Latin lookup 17 subtable" lslash.smcp
EndChar

StartChar: uni00AD
Encoding: 173 173 262
Width: 354
VWidth: 0
Flags: HW
LayerCount: 2
Fore
SplineSet
20 223 m 1
 20 357 l 1
 334 357 l 1
 334 223 l 1
 20 223 l 1
EndSplineSet
Substitution2: "'case' Case-Sensitive Forms lookup 1-1" uni00AD.alt
Substitution2: "'c2sc' Capitals to Small Capitals in Latin lookup 17 subtable" uni00AD.smcp
Substitution2: "'smcp' Lowercase to Small Capitals lookup 16-1" uni00AD.smcp
EndChar

StartChar: lslash
Encoding: 348 322 263
Width: 367
VWidth: 0
Flags: HW
LayerCount: 2
Fore
SplineSet
10.75 343.5 m 1
 10.75 419.5 l 1
 84 450.5 l 1
 84 783 l 1
 248 783 l 1
 248 520 l 1
 353.5 565.5 l 1
 353.25 489.75 l 1
 248 444.25 l 1
 248 219 l 2
 248 145.5 265 130 290 119 c 1
 290 119 342 98 349 98 c 1
 349 0 l 1
 223.5 0 l 2
 133 0 84 48 84 189 c 2
 84 374.75 l 1
 10.75 343.5 l 1
EndSplineSet
Substitution2: "'smcp' Lowercase to Small Capitals lookup 16-1" lslash.smcp
EndChar

StartChar: Dcroat
Encoding: 349 272 264
Width: 664
VWidth: 0
Flags: HW
LayerCount: 2
Fore
SplineSet
217.75 142.25 m 1
 364.25 142.25 l 2
 440 142.25 466 219.75 466 364 c 0
 466 552.25 426.5 589.25 364.25 589.25 c 2
 217.75 589 l 1
 217.75 407.5 l 1
 319.25 407.5 l 1
 319.25 338.5 l 1
 217.75 338.5 l 1
 217.75 142.25 l 1
-11.25 338.5 m 1
 -11.25 407.5 l 1
 53.75 407.5 l 1
 53.75 731.75 l 2
 53.75 732 364.25 732 379.25 732 c 0
 584.75 732 630.75 555.75 630.75 363 c 0
 630.75 129.5 552.75 0 379.25 0 c 2
 53.75 0 l 1
 53.75 338.5 l 1
 -11.25 338.5 l 1
EndSplineSet
Substitution2: "'c2sc' Capitals to Small Capitals in Latin lookup 17 subtable" dcroat.smcp
EndChar

StartChar: dcroat
Encoding: 350 273 265
Width: 567
VWidth: 0
Flags: HW
LayerCount: 2
Fore
SplineSet
193 270.5 m 0
 193 156.25 213.25 130.25 251.25 130.25 c 0
 294.25 130.25 328.75 140 349.75 158.25 c 1
 349.75 398.5 l 1
 325 411.25 289.25 416.25 251.25 416.25 c 0
 214.25 416.25 193 396 193 270.5 c 0
29 263 m 0
 29 444.75 56 539 201.75 539 c 0
 246.75 539 306.75 527.25 349.75 506.5 c 1
 349.75 601 l 1
 248.75 601 l 1
 248.75 670 l 1
 349.75 670 l 1
 349.75 785 l 1
 513.5 785 l 1
 513.5 670 l 1
 576.5 670 l 1
 576.5 601 l 1
 513.5 601 l 1
 513.5 0 l 1
 375.75 0 l 1
 349.75 51.5 l 1
 314 22 263 -6 201.75 -6 c 0
 76.25 -6 29 81.75 29 263 c 0
EndSplineSet
AlternateSubs2: "'salt' Access All Alternates in Latin lookup 4-1" dcroat.salt
Substitution2: "'smcp' Lowercase to Small Capitals lookup 16-1" dcroat.smcp
EndChar

StartChar: questiondown.alt
Encoding: 351 -1 266
Width: 543
VWidth: 0
Flags: HW
LayerCount: 2
Fore
SplineSet
239 606.5 m 2
 239 708.5 l 2
 239 725.75 248.75 731.5 262.75 731.5 c 2
 362 731.5 l 2
 376 731.5 386 722.5 386 708.5 c 2
 386 606.5 l 2
 386 591.5 378 581.5 362 581.5 c 2
 262.75 581.5 l 2
 245.5 581.5 239 591 239 606.5 c 2
26.5 192.5 m 2
 26.5 256 l 2
 26.5 391 89.5 460.25 247.75 450.5 c 1
 247.75 451.25 248.25 535 247.75 536.5 c 1
 374.5 536.5 l 1
 374.5 329.5 l 1
 360 329.75 284.5 330 270 329.5 c 0
 221 327.5 190.25 309.5 190.25 253 c 2
 190.25 216.5 l 2
 190.25 164 222 142.25 289 142.25 c 2
 530.75 142.5 l 1
 530.75 20 l 1
 440.75 -0.5 363.75 -12.5 248.75 -7.5 c 1
 96.75 -7.5 26.5 94.5 26.5 192.5 c 2
EndSplineSet
EndChar

StartChar: at.alt
Encoding: 352 -1 267
Width: 877
VWidth: 0
Flags: HW
LayerCount: 2
Fore
SplineSet
366.75 264.75 m 0
 366.75 243.75 379.75 229.75 408.25 230 c 0
 444.75 229.75 483 240.5 505.25 269 c 1
 505.25 332 l 1
 404.25 323.5 l 2
 378.5 321 366.5 311.75 366.75 285 c 0
 366 284 366 265.75 366.75 264.75 c 0
44 415.5 m 2
 44 519 91.25 624.5 264.75 624.5 c 2
 448.25 624.5 l 2
 538 624.5 631.25 608 631.25 462 c 2
 631.25 112.5 l 1
 528.75 112.5 l 1
 507.25 169 l 1
 505.25 169 451.75 103.5 360.75 103.5 c 0
 271.75 103 232.5 175 232.75 243 c 2
 232.75 281 l 2
 232.75 374.5 288.5 421.5 384.25 421.5 c 0
 429 421.5 505.25 420.5 505.25 421.5 c 2
 505.25 421.5 506.25 451.75 505.25 452.5 c 1
 505.25 491.25 488 498 451.25 498 c 2
 264.75 498 l 2
 216.75 498 170.75 488 170.75 408 c 2
 170.75 142.5 l 2
 170.75 52.5 224.75 32 264.75 32 c 2
 591.25 32 l 2
 673.25 32 694.25 74.5 694.25 142.5 c 2
 694.25 579.5 l 2
 694.25 656.5 652.25 697.25 591.25 697.25 c 2
 187.25 697.25 l 1
 187.25 796.75 l 1
 235.25 806.75 371.75 824.75 497.75 823.75 c 2
 591.25 823.5 l 2
 704 823 820.75 763.75 820.75 579.5 c 2
 820.75 142.5 l 2
 820.75 -23 743.5 -95.5 598.75 -95.5 c 2
 264.75 -95.5 l 2
 147.75 -95.5 44.25 -37.25 44.25 127.5 c 2
 44 415.5 l 2
EndSplineSet
EndChar

StartChar: questiondown
Encoding: 191 191 268
Width: 543
VWidth: 0
Flags: HW
LayerCount: 2
Fore
SplineSet
237.75 347.5 m 2
 237.75 448 l 2
 237.75 465 249 471.5 262.5 471.75 c 2
 359.5 471.75 l 2
 373.5 471.5 383.5 462.75 383.5 448.75 c 2
 383.5 347.5 l 2
 383.25 332.75 375.5 322.75 360.25 322.5 c 2
 261.5 322.5 l 1
 244.75 323.5 238 332.5 237.75 347.5 c 2
26.5 -2.75 m 2
 26 127.75 88.25 200.5 246.5 190.75 c 1
 246.5 191.5 247 275.25 246.5 276.75 c 1
 374.5 276.75 l 1
 374.75 69.75 l 1
 360.25 70 284.5 70.25 270 69.75 c 0
 221 67.75 194 45.25 193 -7.5 c 2
 193 -7.5 192.75 -38.75 192.75 -43.75 c 0
 192.75 -89.5 223.25 -118.25 289 -117.5 c 0
 301.5 -117.5 530.5 -117.25 530.5 -117.25 c 2
 529.75 -117.25 530.5 -240 530 -239.75 c 0
 440 -260.25 363 -272.25 248 -267.25 c 1
 91.75 -267.5 26.5 -161 26.5 -66.5 c 2
 26.5 -2.75 l 2
EndSplineSet
Substitution2: "'case' Case-Sensitive Forms lookup 1-1" questiondown.alt
Substitution2: "'smcp' Lowercase to Small Capitals lookup 16-1" questiondown.smcp
EndChar

StartChar: oe
Encoding: 353 339 269
Width: 851
VWidth: 0
Flags: HW
LayerCount: 2
Fore
SplineSet
523.75 313 m 1
 623 313 l 2
 646.75 313 660.5 326.75 660.5 349.25 c 0
 660.5 402.5 654.75 416 602.25 416 c 0
 542.25 416 520.75 408 523.75 313 c 1
197.5 258 m 0
 197.5 135 214.75 121.5 278.75 121.5 c 0
 356.75 121.5 359.5 143.75 359.5 268 c 0
 359.5 387.25 350.75 409.5 278.75 409.5 c 0
 206.5 409.5 197.5 391.25 197.5 258 c 0
33.5 258 m 0
 33.5 475 97.25 536 278.75 536 c 0
 348 536 399.25 525.75 435.75 500.25 c 1
 470.75 527.75 521.25 535 591.5 535 c 0
 755.5 535 824.5 515.5 824.5 339.5 c 0
 824.5 238.5 768.5 202.5 672.5 202.5 c 2
 523.75 202.5 l 1
 522.75 120.25 564 120.75 639.5 120.75 c 0
 716.5 120.75 739.5 120.5 814.5 131.5 c 1
 814.5 23 l 1
 741.75 -6.75 617.5 -5 534.5 -5 c 0
 489 -5 456 5 431.5 26.5 c 1
 395.75 4.25 346 -5 278.75 -5 c 0
 93.75 -5 33.5 68 33.5 258 c 0
EndSplineSet
Substitution2: "'smcp' Lowercase to Small Capitals lookup 16-1" oe.smcp
EndChar

StartChar: OE
Encoding: 354 338 270
Width: 992
VWidth: 0
Flags: HW
LayerCount: 2
Fore
SplineSet
44 361 m 0
 44 704 174 737 342 737 c 0
 415 737 478.25 730.75 527.25 696 c 1
 557.5 724.75 602 734.25 646.25 732 c 2
 646.25 732 868 728 955.75 716 c 1
 955.75 579.25 l 1
 691.25 579.25 l 2
 639.25 579.25 639.25 550.25 639.25 523.25 c 2
 639.25 440.25 l 1
 908.25 429.5 l 1
 908.25 294 l 1
 639.25 284.75 l 1
 639.25 201.75 l 2
 639.5 148.75 672.25 149.75 701.25 149.75 c 2
 955.75 149.75 l 1
 955.75 14 l 1
 878.5 3.5 656.25 -3 656.25 -3 c 2
 616 -5.25 559.5 -2 522.25 33.75 c 1
 475 2.75 414.5 -4 342 -4 c 0
 162 -4 44 28 44 361 c 0
208 361 m 0
 208 182 229 145 342 145 c 0
 445.5 145 475.25 182.5 475.25 361 c 0
 475.25 563.25 444.25 588 342 588 c 0
 242.75 588 208 570 208 361 c 0
EndSplineSet
EndChar

StartChar: Ydieresis
Encoding: 355 376 271
Width: 666
VWidth: 0
Flags: HW
LayerCount: 2
Fore
SplineSet
405.75 859.25 m 0
 405.75 893.25 434 920.5 468 920.5 c 0
 502 920.5 529.25 893.25 529.25 859.25 c 0
 529.25 825.25 502 797 468 797 c 0
 434 797 405.75 825.25 405.75 859.25 c 0
150.75 859.25 m 0
 150.75 893.25 179 920.5 213 920.5 c 0
 247 920.5 274.25 893.25 274.25 859.25 c 0
 274.25 825.25 247 797 213 797 c 0
 179 797 150.75 825.25 150.75 859.25 c 0
30 732 m 1
 208.5 732 l 1
 334.5 393 l 1
 471.5 732 l 1
 650 732 l 1
 413.5 215 l 1
 413.5 0 l 1
 249.5 0 l 1
 249.5 215 l 1
 30 732 l 1
EndSplineSet
Substitution2: "'c2sc' Capitals to Small Capitals in Latin lookup 17 subtable" ydieresis.smcp
EndChar

StartChar: guillemotright
Encoding: 187 187 272
Width: 592
VWidth: 0
Flags: HW
LayerCount: 2
Fore
SplineSet
265.25 232.5 m 1
 388.5 354 l 1
 267.25 472.75 l 1
 353 557 l 1
 559 354 l 1
 348 146 l 1
 265.25 232.5 l 1
33.5 232.5 m 1
 156.75 354 l 1
 35.5 472.75 l 1
 121.25 557 l 1
 327.25 354 l 1
 116.25 146 l 1
 33.5 232.5 l 1
EndSplineSet
EndChar

StartChar: cent
Encoding: 162 162 273
Width: 486
VWidth: 0
Flags: HW
LayerCount: 2
Fore
SplineSet
26.5 266 m 0
 26.5 481.75 100.75 537.75 206.25 536.5 c 1
 206.25 634 l 1
 302.25 634 l 1
 302.25 533.75 l 1
 349.25 529.25 402.75 520.25 452.75 502.5 c 1
 452.75 403.5 l 1
 452.75 403.5 372.25 410 283.25 410 c 0
 217.25 410 190.5 408.25 190.5 263.5 c 0
 190.5 133.75 211.25 121 283.25 121 c 0
 375.25 121 459 129.75 459 129.75 c 1
 459 30.25 l 1
 410.75 2.25 355.25 -4.75 299.25 -5.5 c 1
 299.25 -95.25 l 1
 203.25 -95.25 l 1
 203.25 -5.5 l 1
 102 -4.5 26.5 51.75 26.5 266 c 0
EndSplineSet
EndChar

StartChar: sterling
Encoding: 163 163 274
Width: 578
VWidth: 0
Flags: HW
LayerCount: 2
Fore
SplineSet
33.5 0 m 1
 33.5 126.5 l 1
 98 149 l 1
 98 307.5 l 1
 33.5 307.5 l 1
 33.5 390 l 1
 98 414.5 l 1
 98 475 l 2
 98 698.75 197.25 732 363.5 732 c 0
 420.5 732 544.5 716 544.5 716 c 1
 544.5 584 l 1
 358 584 l 2
 284 584 262 578 262 491.5 c 2
 262 414.5 l 1
 465.5 397.5 l 1
 465.5 307.5 l 1
 262 307.5 l 1
 262 149 l 1
 543.5 149 l 1
 543.5 0 l 1
 33.5 0 l 1
EndSplineSet
Substitution2: "'smcp' Lowercase to Small Capitals lookup 16-1" sterling.smcp
EndChar

StartChar: yen
Encoding: 165 165 275
Width: 646
VWidth: 0
Flags: HW
LayerCount: 2
Fore
SplineSet
13.25 732 m 1
 191.75 732 l 1
 317.75 404.5 l 1
 454 732 l 1
 633.25 732 l 1
 445.75 343.5 l 1
 530.75 343.5 l 1
 530.75 254.5 l 1
 396.75 254.5 l 1
 396.75 223.25 l 1
 530.75 223.25 l 1
 530.75 134.25 l 1
 396.75 134.25 l 1
 396.75 0 l 1
 232.75 0 l 1
 232.75 134.25 l 1
 103.75 134.25 l 1
 103.75 223.25 l 1
 232.75 223.25 l 1
 232.75 254.5 l 1
 103.75 254.5 l 1
 103.75 343.5 l 1
 186.75 343.5 l 1
 13.25 732 l 1
EndSplineSet
Substitution2: "'smcp' Lowercase to Small Capitals lookup 16-1" yen.smcp
EndChar

StartChar: section
Encoding: 167 167 276
Width: 537
VWidth: 0
Flags: HW
LayerCount: 2
Fore
SplineSet
201 371 m 2
 201 338 216.25 334 242 334 c 2
 294.25 334 l 2
 332.25 334 337.25 344 337.25 372 c 1
 338.25 373 337.25 401 337.25 401 c 2
 337.25 424.75 335.25 440 294.25 440 c 2
 242 440 l 2
 204.25 440 201 426.25 201 399 c 2
 201 371 l 2
38 330.5 m 2
 38 355 l 2
 38 391.5 35 456.5 104.5 478 c 1
 41.25 506.75 37 558 37 590 c 2
 37 630 l 2
 37 728 88 784 182 784 c 0
 267.75 784 404.5 778.75 463.5 765 c 1
 463.5 650 l 1
 234.5 650 l 2
 210.25 650 201.25 640 201 619.5 c 2
 201 597.5 l 2
 201 581.25 210 567 236 567 c 2
 338.5 567 l 2
 451.5 567 501.75 528.25 501.5 441.5 c 2
 501.5 417 l 2
 501.5 380.75 496.5 320.5 437 302.5 c 1
 493 293.5 500.5 231 500.5 198 c 2
 500.5 147.5 l 2
 500.5 22 426.5 -8 362.5 -8 c 0
 267 -8 127.75 -3.5 74 11 c 1
 74 126 l 1
 301 126 l 2
 326 126 337 130.75 337.25 152.75 c 2
 337.25 180 l 2
 337.25 201 327.5 207.5 301.75 207.5 c 2
 197 207.5 l 2
 102 207.5 38 233 38 330.5 c 2
EndSplineSet
EndChar

StartChar: g.salt
Encoding: 356 -1 277
Width: 555
VWidth: 0
Flags: HW
LayerCount: 2
Fore
SplineSet
197.5 285.25 m 0
 197.5 179.5 200.25 125.5 267.75 125.5 c 0
 301.25 125.5 321.5 129.5 351.25 146 c 1
 351.25 422.5 l 1
 269.25 422.5 l 2
 199 422.5 197.5 346 197.5 285.25 c 0
33.5 280 m 0
 33.5 463.75 106.75 541.5 231.75 541.5 c 0
 337.75 541.5 463 526.25 515.25 508.75 c 1
 515.25 -44 l 2
 515.25 -184.5 436 -287.25 288.75 -272 c 2
 53.25 -248 l 1
 53.25 -139 l 1
 266.25 -139 l 2
 319.25 -139 351.25 -108 351.25 -44 c 2
 351.25 40.25 l 1
 318.75 12.75 276.75 2 231.75 2 c 0
 78.75 2 33.5 96.5 33.5 280 c 0
EndSplineSet
EndChar

StartChar: guillemotleft
Encoding: 171 171 278
Width: 592
VWidth: 0
Flags: HW
LayerCount: 2
Fore
SplineSet
265.25 354 m 1
 471.25 557 l 1
 557 472.75 l 1
 435.75 354 l 1
 559 232.5 l 1
 476.25 146 l 1
 265.25 354 l 1
33.5 354 m 1
 239.5 557 l 1
 325.25 472.75 l 1
 204 354 l 1
 327.25 232.5 l 1
 244.5 146 l 1
 33.5 354 l 1
EndSplineSet
EndChar

StartChar: paragraph
Encoding: 182 182 279
Width: 575
VWidth: 0
Flags: HW
LayerCount: 2
Fore
SplineSet
138 514.5 m 2
 138 469.75 162 466.5 190 466.5 c 2
 236.5 466.5 l 1
 236.5 620.5 l 1
 190 620.5 l 2
 143.75 620.5 138 604.5 138 566 c 2
 138 514.5 l 2
26.5 499 m 2
 26.5 592 l 2
 26.5 687 92.75 732 182.5 732 c 2
 563.25 732 l 1
 563.25 618.5 l 1
 516 618.5 l 1
 516 0 l 1
 404.5 0 l 1
 404.5 620.5 l 1
 348 620.5 l 1
 348 -270 l 1
 236.5 -270 l 1
 236.5 372 l 1
 230.5 370 216.75 354.75 182.5 355 c 0
 71.25 355 26.5 421 26.5 499 c 2
EndSplineSet
EndChar

StartChar: macron
Encoding: 175 175 280
Width: 359
VWidth: 0
Flags: HW
LayerCount: 2
Fore
SplineSet
33.5 531 m 1
 33.5 616.5 l 1
 325.5 616.5 l 1
 325.5 531 l 1
 33.5 531 l 1
EndSplineSet
Substitution2: "'smcp' Lowercase to Small Capitals lookup 16-1" macron.smcp
EndChar

StartChar: copyright
Encoding: 169 169 281
Width: 796
VWidth: 0
Flags: HW
LayerCount: 2
Fore
SplineSet
220.5 365 m 0
 220.5 526 276.75 583 364.5 583 c 0
 405.5 583 492.5 578 550 559 c 1
 550 477 l 1
 487 486 427.5 489 394.5 489 c 0
 340.5 489 322 459.5 322 362 c 0
 322 278 343.25 241 399.75 241 c 0
 461.25 241 517.25 249.75 556 257 c 1
 556 175 l 1
 501 149.5 438.25 147 371.25 147 c 0
 292.25 147 220.5 188 220.5 365 c 0
138.5 368 m 0
 138.5 213 187.5 94.25 301.5 94 c 2
 511.5 94 l 2
 598.5 94.25 659 164 659 368 c 0
 659 488 650 638 519 638 c 2
 301.5 638 l 2
 212.5 638 138.5 589.75 138.5 368 c 0
37 368 m 0
 37 555 81.75 732 301.5 732 c 2
 519 732 l 2
 720.25 732 760.5 560.25 760.5 368 c 0
 760.5 125.5 670 0 519 0 c 2
 301.5 0 l 2
 110.75 0 37 168.75 37 368 c 0
EndSplineSet
EndChar

StartChar: registered
Encoding: 174 174 282
Width: 796
VWidth: 0
Flags: HW
LayerCount: 2
Fore
SplineSet
344.5 394 m 1
 403.5 394 l 2
 455.5 394 460 400.25 460 443.5 c 0
 460 483.25 443.75 486 403.5 486 c 2
 344.5 486 l 1
 344.5 394 l 1
243 153 m 1
 243 580 l 1
 427.5 580 l 2
 493.5 580 561.5 554.25 561.5 444.5 c 0
 561.5 357.75 531.75 327.25 489.5 313.5 c 1
 575.25 153 l 1
 466.5 153 l 1
 386 308 l 1
 344.5 320 l 1
 344.5 153 l 1
 243 153 l 1
138.5 368 m 0
 138.5 213 187.5 94.25 301.5 94 c 2
 511.5 94 l 2
 598.5 94.25 659 164 659 368 c 0
 659 488 650 638 519 638 c 2
 301.5 638 l 2
 212.5 638 138.5 589.75 138.5 368 c 0
37 368 m 0
 37 555 81.75 732 301.5 732 c 2
 519 732 l 2
 720.25 732 760.5 560.25 760.5 368 c 0
 760.5 125.5 670 0 519 0 c 2
 301.5 0 l 2
 110.75 0 37 168.75 37 368 c 0
EndSplineSet
EndChar

StartChar: plusminus
Encoding: 177 177 283
Width: 491
VWidth: 0
Flags: HW
LayerCount: 2
Fore
SplineSet
38 379.5 m 1
 38 513.5 l 1
 178 513.5 l 1
 178 654.5 l 1
 312 654.5 l 1
 312 513.5 l 1
 454 513.5 l 1
 454 379.5 l 1
 312 379.5 l 1
 312 238.5 l 1
 178 238.5 l 1
 178 379.5 l 1
 38 379.5 l 1
38 64.5 m 1
 38 198.5 l 1
 454 198.5 l 1
 454 64.5 l 1
 38 64.5 l 1
EndSplineSet
EndChar

StartChar: logicalnot
Encoding: 172 172 284
Width: 482
VWidth: 0
Flags: HW
LayerCount: 2
Fore
SplineSet
27.5 233.5 m 1
 27.5 360 l 1
 454.5 360 l 1
 454.5 303 454.5 216 454.5 159 c 1
 328 159 l 1
 328 233.5 l 1
 27.5 233.5 l 1
EndSplineSet
EndChar

StartChar: guilsinglleft
Encoding: 357 8249 285
Width: 356
VWidth: 0
Flags: HW
LayerCount: 2
Fore
SplineSet
33.5 354 m 1
 239.5 557 l 1
 325.25 472.75 l 1
 204 354 l 1
 327.25 232.5 l 1
 244.5 146 l 1
 33.5 354 l 1
EndSplineSet
EndChar

StartChar: guilsinglright
Encoding: 358 8250 286
Width: 356
VWidth: 0
Flags: HW
LayerCount: 2
Fore
SplineSet
33.5 232.5 m 1
 156.75 354 l 1
 35.5 472.75 l 1
 121.25 557 l 1
 327.25 354 l 1
 116.25 146 l 1
 33.5 232.5 l 1
EndSplineSet
EndChar

StartChar: perthousand
Encoding: 359 8240 287
Width: 1378
VWidth: 0
Flags: HW
LayerCount: 2
Fore
SplineSet
1089 157.75 m 2
 1089 129 1095.75 112.75 1132.25 112.75 c 2
 1195.75 112.75 l 2
 1235.75 112.75 1241 130 1241 157.75 c 2
 1241 230.75 l 2
 1241 267.75 1228.25 275.75 1197.75 275.75 c 2
 1134.25 275.75 l 2
 1103.25 275.75 1089 267.5 1089 230.75 c 2
 1089 157.75 l 2
979 135.25 m 2
 979 253.25 l 2
 979 338.25 1014.5 385.75 1115.5 385.75 c 2
 1216.5 385.75 l 2
 1314.5 385.75 1351 338.25 1351 253.25 c 2
 1351 135.25 l 2
 1351 50.25 1315.5 2.75 1214.5 2.75 c 2
 1113.5 2.75 l 2
 1015.5 2.75 979 50.25 979 135.25 c 2
675 157.75 m 2
 675 129 681.75 112.75 718.25 112.75 c 2
 781 112.75 l 2
 821 112.75 827 130 827 157.75 c 2
 827 230.75 l 2
 827 267.75 813.5 275.75 783 275.75 c 2
 720.25 275.75 l 2
 689.25 275.75 675 267.5 675 230.75 c 2
 675 157.75 l 2
565 135.25 m 2
 565 253.25 l 2
 565 338.25 599.75 385.75 700.75 385.75 c 2
 802.5 385.75 l 2
 900.5 385.75 937 338.25 937 253.25 c 2
 937 135.25 l 2
 937 50.25 901.5 2.75 800.5 2.75 c 2
 698.75 2.75 l 2
 600.75 2.75 565 50.25 565 135.25 c 2
200.75 0 m 1
 650.75 732 l 1
 761.5 732 l 1
 316.75 0 l 1
 200.75 0 l 1
138.5 504 m 2
 138.5 475.25 145.25 459 181.75 459 c 2
 245.25 459 l 2
 285.25 459 290.5 476.25 290.5 504 c 2
 290.5 577 l 2
 290.5 614 277.75 622 247.25 622 c 2
 183.75 622 l 2
 152.75 622 138.5 613.75 138.5 577 c 2
 138.5 504 l 2
28.5 481.5 m 2
 28.5 599.5 l 2
 28.5 684.5 64 732 165 732 c 2
 266 732 l 2
 364 732 400.5 684.5 400.5 599.5 c 2
 400.5 481.5 l 2
 400.5 396.5 365 349 264 349 c 2
 163 349 l 2
 65 349 28.5 396.5 28.5 481.5 c 2
EndSplineSet
Substitution2: "'smcp' Lowercase to Small Capitals lookup 16-1" perthousand.smcp
EndChar

StartChar: dagger
Encoding: 360 8224 288
Width: 460
VWidth: 0
Flags: HW
LayerCount: 2
Fore
SplineSet
13.25 440.25 m 1
 13.25 566.75 l 1
 146.25 580.5 l 1
 158 770 l 1
 303.5 770 l 1
 315.25 580.5 l 1
 447.25 566.75 l 1
 447.25 440.25 l 1
 315.25 426.5 l 1
 302.5 -72 l 1
 157 -72 l 1
 146.25 426.5 l 1
 13.25 440.25 l 1
EndSplineSet
EndChar

StartChar: daggerdbl
Encoding: 361 8225 289
Width: 473
VWidth: 0
Flags: HW
LayerCount: 2
Fore
SplineSet
13.25 136.5 m 1
 13.25 263 l 1
 148.75 279.75 l 1
 146.25 426.5 l 1
 13.25 440.25 l 1
 13.25 566.75 l 1
 146.25 580.5 l 1
 158.25 770 l 1
 303.5 770 l 1
 315.25 580.5 l 1
 447.25 566.75 l 1
 447.25 440.25 l 1
 315.25 426.5 l 1
 312.25 279 l 1
 447.25 263 l 1
 447.25 136.5 l 1
 307.25 121.25 l 1
 302.5 -72 l 1
 157 -72 l 1
 153 119.75 l 1
 13.25 136.5 l 1
EndSplineSet
EndChar

StartChar: trademark
Encoding: 362 8482 290
Width: 710
VWidth: 0
Flags: HW
LayerCount: 2
Fore
SplineSet
311.25 383 m 1
 353.25 732 l 1
 459.75 732 l 1
 507.75 538.5 l 1
 544.25 732 l 1
 654.25 732 l 1
 700.25 383 l 1
 598.75 383 l 1
 579.5 561 l 1
 553 383 l 1
 462.5 383 l 1
 427.75 559.75 l 1
 412.75 383 l 1
 311.25 383 l 1
13.25 645.5 m 1
 13.25 732 l 1
 302.25 732 l 1
 302.25 645.5 l 1
 209 645.5 l 1
 209 383 l 1
 107.5 383 l 1
 107.5 645.5 l 1
 13.25 645.5 l 1
EndSplineSet
EndChar

StartChar: notequal
Encoding: 363 8800 291
Width: 453
VWidth: 0
Flags: HW
LayerCount: 2
Fore
SplineSet
13.25 174.5 m 1
 13.25 309.75 l 1
 164.75 309.75 l 1
 211.5 389.75 l 1
 13.25 389.75 l 1
 13.25 525 l 1
 289.5 525 l 1
 325.75 587.25 l 1
 401.75 587.25 l 1
 365.5 525 l 1
 440.25 525 l 1
 440.25 389.75 l 1
 287.5 389.75 l 1
 240.75 309.75 l 1
 440.25 309.75 l 1
 440.25 174.5 l 1
 163.5 174.5 l 1
 121.25 101.25 l 1
 45.25 101.25 l 1
 87.5 174.5 l 1
 13.25 174.5 l 1
EndSplineSet
EndChar

StartChar: infinity
Encoding: 364 8734 292
Width: 753
VWidth: 0
Flags: HW
LayerCount: 2
Fore
SplineSet
449.75 340.25 m 1
 470 310 499.5 279.75 542.25 279.75 c 0
 587.5 279.75 601.25 306.25 601.25 341 c 0
 601.25 375.75 595.75 403.25 542.25 403.25 c 0
 500 403.25 469.75 371.5 449.75 340.25 c 1
151.75 341 m 0
 151.75 306.25 161.5 279.75 209.25 279.75 c 0
 252 279.75 280 310.75 300.25 341 c 1
 280.25 372.25 244 403.25 209.25 403.25 c 0
 154.5 403.25 151.75 375.75 151.75 341 c 0
33.5 341 m 0
 33.5 428 61.5 514 199.5 514 c 0
 275.5 514 328.75 482 373.5 422.5 c 1
 411.5 486.5 477.5 514 553.5 514 c 0
 691.5 514 719.5 428 719.5 341 c 0
 719.5 249 680.5 169 553.5 169 c 0
 487 169 426.25 184 371.75 260.5 c 1
 324.75 184 273.5 169 199.5 169 c 0
 72.5 169 33.5 249 33.5 341 c 0
EndSplineSet
EndChar

StartChar: lessequal
Encoding: 365 8804 293
Width: 441
VWidth: 0
Flags: HW
LayerCount: 2
Fore
SplineSet
33.5 358 m 1
 33.5 505.5 l 1
 408.5 628.5 l 1
 408.5 481 l 1
 200.75 433.25 l 1
 408.5 375.5 l 1
 408.5 227.5 l 1
 33.5 358 l 1
33.5 73.25 m 1
 33.5 192.25 l 1
 408 192.25 l 1
 408 73.25 l 1
 33.5 73.25 l 1
EndSplineSet
EndChar

StartChar: greaterequal
Encoding: 366 8805 294
Width: 441
VWidth: 0
Flags: HW
LayerCount: 2
Fore
SplineSet
33.75 227.5 m 1
 33.75 375.5 l 1
 241.5 433.25 l 1
 33.75 481 l 1
 33.75 628.5 l 1
 408.75 505.5 l 1
 408.75 358 l 1
 33.75 227.5 l 1
33.5 73.25 m 1
 33.5 192.25 l 1
 408.75 192.25 l 1
 408.75 73.25 l 1
 33.5 73.25 l 1
EndSplineSet
EndChar

StartChar: circumflex
Encoding: 367 710 295
Width: 381
VWidth: 0
Flags: HW
LayerCount: 2
Fore
SplineSet
33.5 531 m 1
 137.75 668.5 l 1
 253.75 668.5 l 1
 348 531 l 1
 247 531 l 1
 192.5 587 l 1
 135.5 531 l 1
 33.5 531 l 1
EndSplineSet
Substitution2: "'smcp' Lowercase to Small Capitals lookup 16-1" circumflex.smcp
EndChar

StartChar: tilde
Encoding: 368 732 296
Width: 412
VWidth: 0
Flags: HW
LayerCount: 2
Fore
SplineSet
33.5 591.5 m 1
 62.25 626.75 103 663 155.25 663 c 0
 200.75 662.25 224.5 628.25 261.5 628 c 1
 297.5 626.25 329.5 645.5 354 667 c 1
 379 601 l 1
 354.25 570 315 530.75 266.25 531.25 c 0
 220 532 190.75 566.25 152.5 566 c 0
 112.25 565.75 91.5 552.5 59 531 c 1
 33.5 591.5 l 1
EndSplineSet
Substitution2: "'smcp' Lowercase to Small Capitals lookup 16-1" tilde.smcp
EndChar

StartChar: ring
Encoding: 369 730 297
Width: 270
VWidth: 0
Flags: HW
LayerCount: 2
Fore
SplineSet
96.25 632 m 0
 96.25 610.25 113.75 593.75 135.5 593.75 c 0
 157.25 593.75 173.75 610.25 173.75 632 c 0
 173.75 653.75 157.25 671.25 135.5 671.25 c 0
 113.75 671.25 96.25 653.75 96.25 632 c 0
33.5 632 m 0
 33.5 689 79.5 735 135.5 735 c 0
 191.5 735 236.5 689 236.5 632 c 0
 236.5 575 191.5 530 135.5 530 c 0
 79.5 530 33.5 575 33.5 632 c 0
EndSplineSet
Substitution2: "'smcp' Lowercase to Small Capitals lookup 16-1" ring.smcp
EndChar

StartChar: ellipsis
Encoding: 370 8230 298
Width: 804
VWidth: 0
Flags: HW
LayerCount: 2
Fore
SplineSet
175.25 23 m 2
 175.25 125 l 2
 175.25 140 183.25 150 199.25 150 c 2
 297.25 150 l 2
 306.668 150 313.075 147.536 317.043 142.895 c 1
 321.042 147.412 327.111 150 335.25 150 c 2
 433.25 150 l 2
 442.668 150 449.075 147.536 453.043 142.895 c 1
 457.042 147.412 463.111 150 471.25 150 c 2
 569.25 150 l 2
 587.25 150 594.25 141 594.25 125 c 2
 594.25 23 l 2
 594.25 5 583.25 0 569.25 0 c 2
 471.25 0 l 2
 463.863 0 457.59 2.5057 453.311 6.9295 c 1
 448.786 1.7552 441.545 0 433.25 0 c 2
 335.25 0 l 2
 327.863 0 321.59 2.5057 317.311 6.9295 c 1
 312.786 1.7552 305.545 0 297.25 0 c 2
 199.25 0 l 2
 185.25 0 175.25 9 175.25 23 c 2
EndSplineSet
EndChar

StartChar: fraction
Encoding: 371 8260 299
Width: 354
VWidth: 0
Flags: HW
LayerCount: 2
Fore
SplineSet
-60.75 0 m 1
 300.75 760.5 l 1
 415.25 760.5 l 1
 53.75 0 l 1
 -60.75 0 l 1
EndSplineSet
EndChar

StartChar: dotlessi
Encoding: 372 305 300
Width: 244
VWidth: 0
Flags: HW
LayerCount: 2
Fore
SplineSet
40.5 0 m 1
 40.5 531 l 1
 204.5 531 l 1
 204.5 0 l 1
 40.5 0 l 1
EndSplineSet
EndChar

StartChar: fi
Encoding: 373 64257 301
Width: 635
VWidth: 0
Flags: HW
LayerCount: 2
Fore
SplineSet
13.25 412 m 1
 13.25 514 l 1
 91.75 531 l 1
 91.75 566 l 2
 91.75 686.25 177 783 316.5 786 c 0
 365.5 786.75 524 778.25 565.5 759.5 c 1
 565.5 664 l 1
 564.5 664 377.75 667.5 377.75 667.5 c 2
 324.25 668.5 255.75 654.5 255.75 558.5 c 2
 255.75 531 l 1
 598 521 l 1
 598 0 l 1
 433.75 0 l 1
 433.75 412 l 1
 255.75 412 l 1
 255.75 0 l 1
 91.75 0 l 1
 91.75 412 l 1
 13.25 412 l 1
EndSplineSet
Ligature2: "'liga' Standard Ligatures lookup 15-1" f i
EndChar

StartChar: fl
Encoding: 374 64258 302
Width: 723
VWidth: 0
Flags: HW
LayerCount: 2
Fore
SplineSet
13.25 412 m 1
 13.25 514 l 1
 92 531 l 1
 92 573.5 l 2
 92 739.25 180.75 786 300.75 786 c 2
 609.5 783.75 l 1
 609.5 219 l 2
 609.5 145.5 624.25 131 651.5 119 c 1
 651.5 119 703.5 98 710.5 98 c 1
 710.5 0 l 1
 585 0 l 2
 490.25 0 445.5 48 445.5 189 c 2
 445.5 666.75 l 1
 411.75 666.75 332 667.5 332 667.5 c 2
 278.5 667.5 256 647 256 573.5 c 2
 256 531 l 1
 366 531 l 1
 366 412 l 1
 255.5 412 l 1
 255.5 0 l 1
 91.5 0 l 1
 91.5 412 l 1
 13.25 412 l 1
EndSplineSet
Ligature2: "'liga' Standard Ligatures lookup 15-1" f l
EndChar

StartChar: exclamdown
Encoding: 161 161 303
Width: 278
VWidth: 0
Flags: HW
LayerCount: 2
Fore
SplineSet
57.25 -270 m 1
 73.75 264 l 1
 202.75 264 l 1
 219 -270 l 1
 57.25 -270 l 1
65 338.5 m 2
 65 438 l 2
 65 452 75 460 89 461 c 1
 186.75 461 l 1
 198.75 460 210.75 449 210.75 435 c 2
 210.75 338.75 l 2
 210.5 326 205.75 311.75 188.5 311.75 c 2
 89 311.75 l 2
 75.25 311.75 65 320.5 65 338.5 c 2
EndSplineSet
Substitution2: "'case' Case-Sensitive Forms lookup 1-1" exclamdown.alt
Substitution2: "'smcp' Lowercase to Small Capitals lookup 16-1" exclamdown.smcp
EndChar

StartChar: ampersand.salt
Encoding: 375 -1 304
Width: 991
VWidth: 0
Flags: HW
LayerCount: 2
Fore
SplineSet
402.25 286 m 1
 486.5 286 l 2
 507.5 286 515.75 288.5 515.75 312.25 c 0
 515.75 332.75 507.5 336 486.5 336 c 2
 443.75 336 l 2
 417 336 402.25 335.25 402.25 286 c 1
193.75 338.5 m 2
 193.75 301.25 207.25 287.5 238.25 287.5 c 1
 238.25 410.5 314 452 436.25 452 c 2
 490.25 452 l 2
 591.75 452 679.75 422 679.75 295.75 c 0
 679.75 172 592.5 170.25 488 170.25 c 2
 402.25 170.25 l 1
 402.5 139.75 419 131 452.5 130.25 c 2
 612.75 130.25 l 2
 695.75 130.25 719.25 168.25 719.25 232 c 2
 719.25 497 l 1
 300.75 497 l 2
 203.75 497 193.75 477 193.75 416.25 c 2
 193.75 338.5 l 2
29.75 331.75 m 2
 29.75 416.25 l 2
 29.75 591.5 118 627.25 293.25 628.75 c 1
 719.25 628.75 l 1
 737.25 744.5 l 1
 883.25 744.5 l 1
 883.25 626.75 l 1
 978.25 626.75 l 1
 978.25 517 l 1
 883.25 497.75 l 1
 883.25 229.75 l 2
 883.25 43.25 753.25 -1.5 612.75 -1.5 c 2
 448.75 -1.5 l 2
 342.25 -0.75 238.25 44 238.25 165.25 c 1
 125.75 165.25 29.75 196.25 29.75 331.75 c 2
EndSplineSet
EndChar

StartChar: a.superior
Encoding: 376 -1 305
Width: 373
VWidth: -75
Flags: HW
LayerCount: 2
Fore
SplineSet
136.5 488 m 2
 136.5 464 151.5 461.5 167.75 461.5 c 0
 205.25 461.5 222.25 485.25 222.25 485.25 c 1
 222.25 533.75 l 1
 161.75 528.25 l 2
 138 526 136.5 510.25 136.5 497.75 c 2
 136.5 488 l 2
20.5 467.5 m 2
 20.5 498.5 l 2
 20.5 548 48 595.25 135.5 595.25 c 2
 135.5 595.25 222.25 594.5 222.25 595.5 c 2
 222.25 595.5 223.25 605.25 222.25 606.25 c 1
 222.25 641.75 205.25 643.5 174.75 643.5 c 0
 130.5 643.5 51.25 636.25 32.5 635 c 1
 32.5 710 l 1
 82.5 732.75 124.5 737.5 193.25 738.25 c 0
 287.5 738.5 347.25 713.5 347.25 621 c 2
 347.25 378 l 1
 250.25 378 l 1
 222.5 421 l 1
 217.5 409 181.75 372.5 130.25 374 c 0
 52 376.25 20.5 426 20.5 467.5 c 2
EndSplineSet
EndChar

StartChar: b.superior
Encoding: 377 -1 306
Width: 404
VWidth: -75
Flags: HW
LayerCount: 2
Fore
SplineSet
151 495 m 1
 166.5 484 183.75 478 214.25 478 c 0
 240.75 478 255 492.75 255 562.25 c 0
 255 639.25 239.75 650 212.75 650 c 0
 186.25 650 169.25 646.25 151 637.5 c 1
 151 495 l 1
25.25 378 m 1
 25.25 901.25 l 1
 150.25 901.25 l 1
 150.25 719.5 l 1
 181.75 735 221.5 744.25 254 744.25 c 0
 360.5 744.25 380 676.5 380 557 c 0
 380 437.5 345 374 254 374 c 0
 209.75 374 177 394.75 151 417 c 1
 129 378 l 1
 25.25 378 l 1
EndSplineSet
Ligature2: "'ordn' Ordinals lookup 21-1" b
EndChar

StartChar: c.superior
Encoding: 378 -1 307
Width: 350
VWidth: -75
Flags: HW
LayerCount: 2
Fore
SplineSet
20.5 555 m 0
 20.5 697.25 72.25 735.5 145.5 735.5 c 0
 183 735.5 255.25 735.75 322.5 710 c 1
 322.5 634.75 l 1
 322.5 634.75 270.5 639 209.5 639 c 0
 164.5 639 145.5 642.25 145.5 553.75 c 0
 145.5 484.5 160 471 209.5 471 c 0
 272.5 471 327.5 475.75 327.5 475.75 c 1
 327.5 401.75 l 1
 272.5 367.5 204.5 375.5 145.5 374.5 c 1
 74.5 374.5 20.5 412.5 20.5 555 c 0
EndSplineSet
Ligature2: "'ordn' Ordinals lookup 21-1" c
EndChar

StartChar: d.superior
Encoding: 379 -1 308
Width: 402
VWidth: -75
Flags: HW
LayerCount: 2
Fore
SplineSet
145.5 562.5 m 0
 145.5 493 159.75 478 186.25 478 c 0
 216.75 478 233.75 484 249.25 495 c 1
 249.25 637.75 l 1
 231 646.75 213.5 650.25 186.25 650.25 c 0
 160 650.25 145.5 639.5 145.5 562.5 c 0
20.5 557.25 m 0
 20.5 680.5 39.75 744.5 146.25 744.5 c 0
 178.75 744.5 218.75 735.25 250.25 719.75 c 1
 250.25 901.75 l 1
 374.75 901.75 l 1
 374.75 378 l 1
 271 378 l 1
 249.25 417 l 1
 223.25 394.75 190.5 374 146.25 374 c 0
 55.25 374 20.5 434 20.5 557.25 c 0
EndSplineSet
Ligature2: "'ordn' Ordinals lookup 21-1" d
EndChar

